<svg width="100" height="100" viewBox="0 0 100 100" fill="none" xmlns="http://www.w3.org/2000/svg">
<g clip-path="url(#clip0_12_901)">
<path d="M49.9268 -0.061033C50.1256 -0.0606121 50.3244 -0.0601912 50.5292 -0.0597575C53.3826 -0.0500562 56.1818 -0.00105294 58.9844 0.58594C59.1748 0.624744 59.3652 0.663548 59.5614 0.703528C67.1881 2.2989 74.3092 5.34942 80.4688 10.1563C80.6437 10.2899 80.8187 10.4236 80.999 10.5614C82.3201 11.5903 83.5542 12.7128 84.7656 13.8672C84.8829 13.9789 85.0002 14.0905 85.121 14.2056C86.7491 15.7673 88.242 17.3713 89.5861 19.1842C89.8517 19.542 90.1214 19.8964 90.3915 20.2507C91.6354 21.8967 92.7353 23.5952 93.75 25.3906C93.8209 25.5137 93.8918 25.6369 93.9649 25.7637C98.1856 33.1364 100.093 41.4897 100.061 49.9268C100.061 50.1256 100.06 50.3244 100.06 50.5292C100.05 53.3825 100.001 56.1818 99.4141 58.9844C99.3559 59.27 99.3559 59.27 99.2965 59.5614C97.7011 67.1881 94.6506 74.3092 89.8438 80.4688C89.7101 80.6437 89.5764 80.8187 89.4386 80.999C88.4097 82.3201 87.2872 83.5542 86.1328 84.7656C85.9653 84.9415 85.9653 84.9415 85.7945 85.121C84.2303 86.7516 82.6241 88.2448 80.8081 89.5904C80.4719 89.8414 80.1413 90.0985 79.8111 90.3572C73.7658 95.0263 66.4636 98.0169 58.9844 99.4141C58.8272 99.4458 58.6699 99.4774 58.5079 99.5101C52.6396 100.657 45.8729 100.444 40.0391 99.2188C39.7416 99.1575 39.7416 99.1575 39.4382 99.0951C32.1655 97.5498 25.4022 94.3916 19.5313 89.8438C19.268 89.6428 19.268 89.6428 18.9995 89.4379C17.6794 88.4086 16.4454 87.2868 15.2344 86.1328C15.1171 86.0212 14.9999 85.9095 14.879 85.7945C13.2484 84.2303 11.7552 82.624 10.4096 80.8081C10.1586 80.4719 9.90153 80.1413 9.6428 79.8111C4.97374 73.7658 1.98306 66.4636 0.585945 58.9844C0.554254 58.8271 0.522562 58.6699 0.48991 58.5079C-0.579007 53.0409 -0.555837 46.467 0.585945 41.0156C0.62475 40.8252 0.663554 40.6348 0.703534 40.4387C2.7144 30.8256 7.09653 22.3433 13.8672 15.2344C13.9786 15.1174 14.0899 15.0004 14.2047 14.8799C15.7667 13.2515 17.371 11.7583 19.1842 10.4139C19.542 10.1483 19.8964 9.87862 20.2507 9.60846C21.8967 8.36464 23.5952 7.26471 25.3906 6.25C25.5137 6.1791 25.6369 6.10819 25.7637 6.03514C33.1364 1.81445 41.4897 -0.0931597 49.9268 -0.061033Z" fill="#4BAE4F"/>
<path d="M45.7901 22.5299C45.998 22.5268 46.206 22.5237 46.4202 22.5206C46.6428 22.5225 46.8654 22.5245 47.0947 22.5265C47.4403 22.5251 47.4403 22.5251 47.7929 22.5237C48.2795 22.523 48.7661 22.5248 49.2527 22.5289C49.9974 22.5342 50.7415 22.529 51.4862 22.5227C51.9592 22.5234 52.4323 22.5246 52.9053 22.5265C53.2392 22.5236 53.2392 22.5236 53.5798 22.5206C53.8917 22.5252 53.8917 22.5252 54.2099 22.5299C54.4833 22.531 54.4833 22.531 54.7622 22.5322C55.5266 22.7176 55.7947 22.9928 56.25 23.6328C56.3867 24.2867 56.3735 24.9245 56.3609 25.5904C56.3611 25.8849 56.3611 25.8849 56.3613 26.1854C56.3606 26.8333 56.353 27.4809 56.3454 28.1288C56.3436 28.5784 56.3422 29.0281 56.3412 29.4777C56.3375 30.6603 56.3279 31.8428 56.3171 33.0254C56.3071 34.2325 56.3026 35.4396 56.2977 36.6466C56.2872 39.0145 56.2706 41.3822 56.25 43.75C56.4999 43.7478 56.7497 43.7457 57.0072 43.7434C59.3609 43.7236 61.7145 43.709 64.0683 43.6994C65.2784 43.6943 66.4885 43.6874 67.6985 43.6763C68.8661 43.6657 70.0337 43.6599 71.2013 43.6573C71.647 43.6555 72.0927 43.652 72.5383 43.6467C73.1622 43.6397 73.7858 43.6387 74.4096 43.6391C74.6865 43.6339 74.6865 43.6339 74.969 43.6285C75.8376 43.6353 76.2462 43.6638 76.9703 44.1799C77.3798 44.7793 77.4655 45.0554 77.4639 45.7722C77.4666 46.0782 77.4666 46.0782 77.4694 46.3904C77.4646 46.7179 77.4646 46.7179 77.4597 47.052C77.4597 47.2781 77.4597 47.5041 77.4597 47.737C77.4587 48.2145 77.4553 48.6919 77.4496 49.1692C77.4414 49.8997 77.4416 50.6298 77.4429 51.3603C77.4409 51.8244 77.4384 52.2886 77.4353 52.7527C77.4353 52.971 77.4352 53.1893 77.4352 53.4143C77.4305 53.7203 77.4305 53.7203 77.4258 54.0325C77.4241 54.2113 77.4225 54.3901 77.4208 54.5743C77.3276 55.1837 77.1154 55.5564 76.7578 56.0547C76.308 56.2796 76.0567 56.2741 75.5565 56.2735C75.3867 56.2737 75.2169 56.274 75.0419 56.2743C74.8552 56.2736 74.6685 56.2729 74.4762 56.2722C74.1817 56.2722 74.1817 56.2722 73.8814 56.2723C73.2304 56.2721 72.5794 56.2706 71.9284 56.2691C71.4779 56.2687 71.0275 56.2684 70.577 56.2682C69.3896 56.2675 68.2022 56.2656 67.0148 56.2634C65.8039 56.2614 64.5929 56.2605 63.382 56.2595C61.0046 56.2574 58.6273 56.2541 56.25 56.25C56.2517 56.5003 56.2535 56.7506 56.2553 57.0085C56.2711 59.3651 56.2828 61.7217 56.2905 64.0784C56.2946 65.29 56.3001 66.5016 56.3089 67.7133C56.3174 68.8821 56.3221 70.051 56.3241 71.2199C56.3256 71.6662 56.3284 72.1126 56.3326 72.559C56.3383 73.1833 56.3391 73.8074 56.3387 74.4318C56.3415 74.6171 56.3443 74.8024 56.3472 74.9933C56.3393 76.2472 56.3393 76.2472 55.8783 76.8666C55.2371 77.3079 54.8722 77.3706 54.099 77.3814C53.7929 77.3861 53.7929 77.3861 53.4807 77.3909C52.547 77.3996 51.6133 77.4076 50.6796 77.4121C50.1869 77.4154 49.6942 77.4207 49.2014 77.4281C48.4918 77.4388 47.7823 77.4431 47.0726 77.446C46.8524 77.4504 46.6323 77.4548 46.4054 77.4594C46.1995 77.4588 45.9936 77.4583 45.7815 77.4577C45.5107 77.4601 45.5107 77.4601 45.2344 77.4625C44.4694 77.2836 44.2043 77.0059 43.75 76.3672C43.6133 75.7133 43.6265 75.0755 43.6391 74.4096C43.639 74.2133 43.6389 74.0169 43.6387 73.8146C43.6394 73.1667 43.647 72.519 43.6546 71.8712C43.6565 71.4215 43.6579 70.9719 43.6588 70.5223C43.6626 69.3396 43.6721 68.1571 43.683 66.9746C43.6929 65.7675 43.6974 64.5604 43.7023 63.3533C43.7128 60.9855 43.7295 58.6178 43.75 56.25C43.4997 56.2517 43.2494 56.2535 42.9915 56.2553C40.6349 56.2711 38.2783 56.2828 35.9216 56.2905C34.71 56.2946 33.4984 56.3001 32.2867 56.3089C31.1179 56.3174 29.949 56.3221 28.7801 56.3241C28.3338 56.3256 27.8874 56.3284 27.441 56.3326C26.8167 56.3382 26.1926 56.339 25.5682 56.3387C25.2903 56.3429 25.2903 56.3429 25.0067 56.3472C23.7528 56.3393 23.7528 56.3393 23.1334 55.8782C22.6921 55.237 22.6294 54.8722 22.6186 54.099C22.6154 53.895 22.6123 53.6909 22.6091 53.4807C22.6004 52.547 22.5924 51.6133 22.5879 50.6796C22.5846 50.1869 22.5793 49.6941 22.5719 49.2014C22.5612 48.4918 22.5569 47.7823 22.554 47.0726C22.5496 46.8524 22.5452 46.6323 22.5406 46.4054C22.5412 46.1995 22.5417 45.9936 22.5423 45.7815C22.5407 45.6009 22.5391 45.4204 22.5375 45.2343C22.7164 44.4694 22.9941 44.2043 23.6328 43.75C24.2867 43.6133 24.9245 43.6265 25.5904 43.6391C25.7867 43.639 25.9831 43.6388 26.1854 43.6387C26.8333 43.6394 27.481 43.647 28.1288 43.6546C28.5785 43.6564 29.0281 43.6578 29.4777 43.6588C30.6604 43.6625 31.8429 43.6721 33.0254 43.6829C34.2325 43.6929 35.4396 43.6974 36.6467 43.7023C39.0145 43.7128 41.3822 43.7294 43.75 43.75C43.7478 43.5001 43.7457 43.2503 43.7434 42.9928C43.7236 40.6391 43.709 38.2855 43.6994 35.9317C43.6943 34.7216 43.6874 33.5115 43.6763 32.3015C43.6657 31.1339 43.6599 29.9663 43.6574 28.7987C43.6555 28.353 43.652 27.9073 43.6468 27.4617C43.6397 26.8378 43.6387 26.2142 43.6391 25.5904C43.6356 25.4058 43.6321 25.2212 43.6285 25.031C43.6353 24.1633 43.6639 23.7538 44.1787 23.0301C44.7826 22.618 45.0677 22.533 45.7901 22.5299Z" fill="#FEFEFE"/>
</g>
<defs>
<clipPath id="clip0_12_901">
<rect width="100" height="100" fill="white"/>
</clipPath>
</defs>
</svg>
