<svg width="144" height="144" viewBox="0 0 144 144" fill="none" xmlns="http://www.w3.org/2000/svg">
<g clip-path="url(#clip0_5_36)">
<path d="M35.4988 14.2177C35.7306 14.2144 35.9623 14.2111 36.201 14.2077C36.9771 14.1977 37.7531 14.1938 38.5292 14.1899C39.086 14.1842 39.6428 14.1781 40.1996 14.1718C42.029 14.1526 43.8583 14.1424 45.6878 14.1328C46.3191 14.129 46.9505 14.1252 47.5818 14.1213C50.2107 14.1058 52.8395 14.0923 55.4685 14.085C59.2261 14.0745 62.9832 14.0516 66.7407 14.0104C69.3875 13.9825 72.0342 13.9688 74.6812 13.9654C76.2593 13.9631 77.8369 13.9548 79.4149 13.9314C80.9032 13.9096 82.3906 13.9057 83.879 13.9148C84.4211 13.9151 84.9631 13.9093 85.505 13.8965C89.6389 13.8045 92.0901 14.9413 95.302 17.5178C96.1184 18.1693 96.9587 18.7859 97.8 19.4047C98.5026 19.9235 99.1972 20.452 99.8892 20.9848C100.253 21.2592 100.622 21.5264 100.995 21.7882C101.289 21.9975 101.289 21.9975 101.589 22.2111C101.767 22.334 101.944 22.4569 102.127 22.5836C103.133 23.4935 103.728 24.3667 103.917 25.7217C103.914 26.0777 103.912 26.4337 103.909 26.8005C103.909 26.9982 103.909 27.196 103.909 27.3997C103.909 28.0481 103.9 28.6961 103.891 29.3445C103.889 29.7961 103.887 30.2477 103.886 30.6993C103.882 31.8839 103.871 33.0684 103.859 34.253C103.847 35.4634 103.842 36.6738 103.836 37.8842C103.824 40.2562 103.805 42.6281 103.781 45C104.11 44.9931 104.438 44.9863 104.776 44.9792C107.887 44.9162 110.998 44.8699 114.109 44.8397C115.708 44.8236 117.307 44.8019 118.906 44.7666C120.453 44.7327 121.999 44.7144 123.545 44.7065C124.132 44.7008 124.719 44.6897 125.305 44.6729C129.293 44.563 131.777 45.103 134.845 47.7259C135.442 48.2297 136.077 48.6726 136.719 49.1166C137.114 49.402 137.507 49.6879 137.9 49.9746C138.324 50.283 138.748 50.5913 139.172 50.8997C139.371 51.0448 139.57 51.1899 139.775 51.3394C140.291 51.7118 140.81 52.0784 141.331 52.4421C141.747 52.7347 141.747 52.7347 142.172 53.0332C142.524 53.2774 142.524 53.2774 142.884 53.5265C143.738 54.2571 143.976 54.8427 144.072 55.9659C144.073 56.2966 144.074 56.6273 144.075 56.968C144.077 57.1527 144.078 57.3373 144.079 57.5276C144.083 58.146 144.082 58.7643 144.082 59.3826C144.083 59.8262 144.085 60.2697 144.087 60.7132C144.092 61.9179 144.094 63.1225 144.094 64.3271C144.095 65.3329 144.097 66.3386 144.099 67.3444C144.103 69.7174 144.105 72.0904 144.104 74.4634C144.104 76.911 144.11 79.3584 144.119 81.806C144.126 83.9077 144.129 86.0094 144.129 88.1111C144.129 89.3662 144.13 90.6212 144.136 91.8763C144.142 93.0569 144.142 94.2374 144.138 95.418C144.137 95.8508 144.138 96.2837 144.142 96.7166C144.146 97.3085 144.143 97.9 144.139 98.4918C144.139 98.8227 144.14 99.1536 144.14 99.4946C143.968 100.612 143.579 101.218 142.875 102.094C141.249 103.074 139.747 103.05 137.884 103.02C137.6 103.019 137.315 103.018 137.022 103.016C136.12 103.012 135.217 103.001 134.314 102.99C133.7 102.986 133.086 102.982 132.472 102.979C130.971 102.969 129.47 102.955 127.969 102.938C127.972 103.387 127.972 103.387 127.974 103.846C127.992 106.673 128.004 109.499 128.012 112.326C128.017 113.779 128.023 115.232 128.032 116.685C128.042 118.087 128.047 119.49 128.049 120.892C128.05 121.427 128.053 121.962 128.058 122.497C128.064 123.246 128.065 123.996 128.065 124.745C128.069 125.077 128.069 125.077 128.074 125.415C128.066 126.699 127.956 127.536 127.125 128.531C125.637 129.795 124.45 129.816 122.587 129.797C122.301 129.799 122.015 129.8 121.72 129.802C120.761 129.806 119.803 129.802 118.844 129.797C118.157 129.798 117.469 129.8 116.782 129.802C115.109 129.805 113.435 129.804 111.762 129.8C109.813 129.795 107.864 129.796 105.915 129.797C102.438 129.798 98.9601 129.794 95.4823 129.787C92.1087 129.781 88.7351 129.779 85.3615 129.782C81.6867 129.785 78.0119 129.785 74.3371 129.781C73.9452 129.781 73.5532 129.781 73.1613 129.78C72.9684 129.78 72.7756 129.78 72.5769 129.779C71.2188 129.778 69.8607 129.779 68.5026 129.78C66.6743 129.781 64.846 129.778 63.0177 129.772C62.3463 129.771 61.6748 129.771 61.0034 129.772C60.0877 129.774 59.1722 129.77 58.2565 129.765C57.8569 129.768 57.8569 129.768 57.4492 129.77C55.9884 129.756 54.9946 129.608 53.7188 128.812C53.7188 128.627 53.7188 128.441 53.7188 128.25C53.5565 128.173 53.3941 128.095 53.2269 128.015C52.6044 127.693 52.0419 127.337 51.4633 126.942C51.2472 126.794 51.0311 126.647 50.8085 126.495C50.5797 126.337 50.3509 126.18 50.1152 126.018C49.7618 125.774 49.7618 125.774 49.4011 125.526C48.6829 125.029 47.9661 124.531 47.25 124.031C47.036 123.882 46.8219 123.733 46.6014 123.58C46.0182 123.171 45.4382 122.758 44.8594 122.344C44.6862 122.222 44.5129 122.101 44.3344 121.976C43.3364 121.251 42.7021 120.652 42.1875 119.531C42.076 118.684 42.0891 117.848 42.1051 116.995C42.1063 116.753 42.1075 116.512 42.1087 116.263C42.1134 115.495 42.124 114.727 42.1348 113.959C42.139 113.437 42.1429 112.915 42.1463 112.393C42.1556 111.116 42.1701 109.839 42.1875 108.562C41.8283 108.564 41.4692 108.566 41.0991 108.568C37.714 108.585 34.3289 108.598 30.9438 108.606C29.2035 108.611 27.4632 108.617 25.7229 108.626C24.0433 108.635 22.3638 108.64 20.6843 108.643C20.0435 108.644 19.4028 108.647 18.7621 108.652C17.8645 108.658 16.9671 108.659 16.0696 108.658C15.6724 108.663 15.6724 108.663 15.2671 108.667C13.2117 108.658 11.9199 108.115 10.3535 106.77C8.97541 105.636 7.5257 104.638 6.04689 103.641C0.608383 99.9566 0.608383 99.9566 1.37147e-05 98.4375C-0.0723432 97.6581 -0.0723432 97.6581 -0.0751997 96.744C-0.0775988 96.397 -0.0799978 96.05 -0.0824696 95.6925C-0.082273 95.3088 -0.0820134 94.9251 -0.0816971 94.5413C-0.0833805 94.1366 -0.0852946 93.7318 -0.087422 93.3271C-0.0923906 92.2282 -0.0937086 91.1294 -0.0940674 90.0305C-0.0944673 89.3438 -0.0956682 88.657 -0.0971595 87.9703C-0.102363 85.574 -0.104662 83.1777 -0.104219 80.7814C-0.103881 78.5485 -0.109817 76.3158 -0.118701 74.083C-0.126059 72.1652 -0.129072 70.2474 -0.128713 68.3296C-0.12857 67.1845 -0.13017 66.0395 -0.136127 64.8945C-0.141577 63.8173 -0.141611 62.7403 -0.137521 61.6631C-0.136934 61.2683 -0.13826 60.8735 -0.141663 60.4788C-0.168668 57.1285 -0.168668 57.1285 0.483163 56.0547C1.53985 54.9872 2.26202 54.5298 3.76811 54.461C4.26963 54.4586 4.7712 54.4608 5.2727 54.4667C5.54722 54.4666 5.82174 54.4665 6.10459 54.4663C7.0101 54.4669 7.91546 54.4735 8.82094 54.4801C9.4495 54.4817 10.0781 54.4829 10.7066 54.4837C12.3596 54.4869 14.0125 54.4952 15.6655 54.5046C17.3528 54.5132 19.0401 54.5171 20.7274 54.5213C24.037 54.5303 27.3466 54.5447 30.6563 54.5625C30.6552 54.3698 30.6542 54.1771 30.6531 53.9786C30.6283 49.2886 30.6097 44.5985 30.598 39.9084C30.5922 37.6403 30.5843 35.3722 30.5714 33.1041C30.5602 31.1271 30.5529 29.15 30.5504 27.173C30.5489 26.1263 30.5455 25.0797 30.5373 24.033C30.5282 22.864 30.528 21.6952 30.5285 20.5262C30.5245 20.1798 30.5205 19.8335 30.5163 19.4767C30.5308 16.4884 30.5308 16.4884 31.7813 15.1875C32.9751 14.2789 34.0481 14.2179 35.4988 14.2177Z" fill="#BE927C"/>
<path d="M35.4988 14.2177C35.7306 14.2144 35.9623 14.2111 36.201 14.2077C36.9771 14.1977 37.7531 14.1938 38.5292 14.1899C39.086 14.1842 39.6428 14.1781 40.1996 14.1718C42.029 14.1526 43.8583 14.1424 45.6877 14.1328C46.3191 14.129 46.9504 14.1252 47.5818 14.1213C50.2107 14.1058 52.8395 14.0923 55.4684 14.085C59.2261 14.0745 62.9832 14.0516 66.7407 14.0104C69.3875 13.9825 72.0342 13.9688 74.6811 13.9654C76.2593 13.9631 77.8369 13.9548 79.4149 13.9314C80.9032 13.9096 82.3906 13.9057 83.879 13.9148C84.4211 13.9151 84.9631 13.9093 85.505 13.8965C89.6389 13.8045 92.09 14.9413 95.302 17.5178C96.1184 18.1693 96.9587 18.7859 97.8 19.4047C98.5025 19.9235 99.1972 20.452 99.8892 20.9848C100.253 21.2592 100.622 21.5264 100.995 21.7882C101.191 21.9278 101.387 22.0673 101.589 22.2111C101.767 22.334 101.944 22.4569 102.127 22.5836C103.133 23.4935 103.728 24.3667 103.917 25.7217C103.914 26.0777 103.912 26.4337 103.909 26.8005C103.909 26.9982 103.909 27.196 103.909 27.3997C103.909 28.0481 103.9 28.6961 103.891 29.3445C103.889 29.7961 103.887 30.2477 103.886 30.6993C103.882 31.8839 103.871 33.0684 103.858 34.253C103.847 35.4634 103.842 36.6738 103.836 37.8842C103.824 40.2562 103.805 42.6281 103.781 45C104.11 44.9931 104.438 44.9863 104.776 44.9792C107.887 44.9162 110.998 44.8699 114.109 44.8397C115.708 44.8236 117.307 44.8019 118.906 44.7666C120.453 44.7327 121.999 44.7144 123.545 44.7065C124.132 44.7008 124.719 44.6897 125.305 44.6729C129.293 44.563 131.777 45.103 134.845 47.7259C135.442 48.2297 136.077 48.6726 136.719 49.1166C137.113 49.402 137.507 49.6879 137.9 49.9746C138.324 50.283 138.748 50.5913 139.172 50.8997C139.371 51.0448 139.57 51.1899 139.775 51.3394C140.291 51.7118 140.81 52.0784 141.331 52.4421C141.747 52.7347 141.747 52.7347 142.172 53.0332C142.524 53.2774 142.524 53.2774 142.884 53.5265C143.738 54.2571 143.976 54.8427 144.072 55.9659C144.073 56.2966 144.074 56.6273 144.075 56.968C144.076 57.1527 144.078 57.3373 144.079 57.5276C144.083 58.146 144.082 58.7643 144.082 59.3826C144.083 59.8262 144.085 60.2697 144.087 60.7132C144.092 61.9179 144.094 63.1225 144.094 64.3271C144.095 65.3329 144.097 66.3386 144.099 67.3444C144.103 69.7174 144.105 72.0904 144.104 74.4634C144.104 76.911 144.11 79.3584 144.119 81.806C144.126 83.9077 144.129 86.0094 144.129 88.1111C144.129 89.3662 144.13 90.6212 144.136 91.8763C144.142 93.0569 144.142 94.2374 144.138 95.418C144.137 95.8508 144.138 96.2837 144.142 96.7166C144.146 97.3085 144.143 97.9 144.139 98.4918C144.139 98.8227 144.14 99.1536 144.14 99.4946C143.968 100.612 143.578 101.218 142.875 102.094C141.249 103.074 139.747 103.05 137.884 103.02C137.6 103.019 137.315 103.018 137.022 103.016C136.12 103.012 135.217 103.001 134.314 102.99C133.7 102.986 133.086 102.982 132.471 102.979C130.971 102.969 129.47 102.955 127.969 102.938C127.969 102.845 127.969 102.752 127.969 102.656C130.103 102.656 132.238 102.656 134.438 102.656C134.42 100.517 134.399 98.3777 134.371 96.2384C134.359 95.245 134.348 94.2517 134.34 93.2582C134.331 92.1153 134.316 90.9725 134.3 89.8297C134.297 89.2961 134.297 89.2962 134.295 88.7518C134.289 88.4197 134.284 88.0876 134.278 87.7454C134.275 87.4537 134.272 87.1621 134.268 86.8616C134.115 85.7693 133.695 84.9947 132.868 84.2627C132.707 84.1591 132.546 84.0555 132.38 83.9487C132.191 83.8254 132.003 83.7021 131.809 83.575C131.603 83.4445 131.398 83.3141 131.186 83.1797C130.862 82.9696 130.862 82.9696 130.532 82.7553C130.048 82.4407 129.563 82.1274 129.077 81.815C128.151 81.2175 127.23 80.6133 126.309 80.0079C125.011 79.1557 123.714 78.3038 122.414 77.4547C122.143 77.2774 121.872 77.1 121.592 76.9173C120.359 76.1315 119.342 76.1706 117.91 76.161C117.655 76.1582 117.4 76.1554 117.137 76.1526C116.291 76.1437 115.445 76.1367 114.598 76.1298C114.013 76.124 113.427 76.1181 112.842 76.112C111.298 76.0965 109.755 76.0826 108.211 76.0691C106.637 76.0549 105.063 76.0393 103.489 76.0237C100.399 75.9935 97.3089 75.9649 94.2188 75.9375C94.2188 77.1441 94.2188 78.3506 94.2188 79.5938C95.0392 79.5451 95.0392 79.5451 95.8762 79.4956C97.71 79.3946 99.5431 79.3242 101.379 79.2732C102.49 79.2412 103.597 79.1982 104.706 79.127C112.544 78.6366 112.544 78.6366 115.327 80.9492C117.259 82.6754 119.224 84.7176 120.094 87.1875C118.385 88.8962 110.429 87.9293 107.867 87.9625C106.663 87.9784 105.46 88.0014 104.256 88.0413C94.7073 88.3493 94.7073 88.3493 91.4609 85.5272C91.1175 85.2028 90.7794 84.8728 90.4479 84.5363C89.831 83.9268 89.1447 83.4516 88.4279 82.9666C88.2196 82.8172 88.0113 82.6678 87.7967 82.5139C87.3862 82.2197 86.9753 81.926 86.564 81.6328C86.3612 81.4871 86.1583 81.3413 85.9493 81.1912C85.7739 81.0657 85.5984 80.9402 85.4177 80.8109C84.9375 80.4375 84.9375 80.4375 84.0938 79.5938C86.9709 79.5938 89.8481 79.5938 92.8125 79.5938C92.9225 76.4075 93.0041 73.2239 93.0376 70.0359C93.0543 68.555 93.0828 67.0764 93.1394 65.5965C93.7053 59.3492 93.7053 59.3492 91.919 53.6025C90.4622 52.1213 88.8107 51.2414 86.9088 50.4487C85.4815 49.7974 84.253 48.8695 82.9863 47.9531C82.5452 47.65 82.1034 47.348 81.6603 47.0479C81.4776 46.9233 81.2949 46.7988 81.1066 46.6705C80.9786 46.5833 80.8506 46.4961 80.7188 46.4062C79.9546 47.1039 79.6244 47.625 79.5547 48.6895C79.5529 48.921 79.5511 49.1525 79.5493 49.3911C79.5465 49.6573 79.5437 49.9235 79.5409 50.1978C79.5393 50.4893 79.5377 50.7808 79.536 51.0811C79.5332 51.3885 79.5304 51.6959 79.5276 52.0125C79.5187 53.0306 79.5117 54.0487 79.5048 55.0668C79.499 55.7718 79.4931 56.4768 79.487 57.1819C79.4731 58.8493 79.4604 60.5167 79.4482 62.1841C79.433 64.2686 79.4158 66.3531 79.3987 68.4377C79.3685 72.1564 79.3399 75.875 79.3125 79.5938C78.8484 79.6866 78.3844 79.7794 77.9062 79.875C78.65 80.4146 79.3943 80.9535 80.1387 81.4922C80.3645 81.6558 80.5904 81.8195 80.8231 81.9881C81.9924 82.8333 83.1654 83.6719 84.3497 84.4958C84.5667 84.6471 84.7837 84.7984 85.0073 84.9543C85.423 85.2432 85.8395 85.5309 86.2569 85.8172C86.5392 86.0137 86.5392 86.0137 86.8271 86.2141C86.9923 86.3278 87.1574 86.4415 87.3276 86.5587C87.75 86.9062 87.75 86.9062 88.3125 87.75C84.2734 87.7593 80.2344 87.7571 76.1952 87.742C74.3194 87.7353 72.4437 87.7322 70.5678 87.7374C68.755 87.7424 66.9425 87.7377 65.1298 87.7265C64.4407 87.7239 63.7516 87.7246 63.0625 87.729C59.2169 87.7508 56.1153 87.7484 52.875 85.5C52.5562 85.2868 52.5562 85.2868 52.231 85.0692C51.7429 84.7303 51.2901 84.3711 50.8359 83.9883C50.676 83.8582 50.5161 83.7281 50.3513 83.594C48.9038 82.406 47.4554 81.1932 46.125 79.875C46.125 79.7822 46.125 79.6894 46.125 79.5938C56.0559 79.5938 65.9869 79.5938 76.2188 79.5938C76.1955 76.9892 76.1723 74.3846 76.1484 71.7012C76.144 70.8822 76.1396 70.0631 76.135 69.2193C76.1267 68.5667 76.118 67.9142 76.1089 67.2616C76.1084 66.7575 76.1084 66.7575 76.1079 66.2432C76.0708 64.0755 75.9031 62.6609 74.3004 61.0926C74.1264 60.973 73.9524 60.8534 73.7732 60.7302C73.5743 60.5903 73.3753 60.4503 73.1704 60.3061C72.9582 60.1625 72.746 60.019 72.5273 59.8711C72.0735 59.5545 71.6198 59.2377 71.1661 58.9208C70.9331 58.7598 70.7 58.5987 70.4599 58.4328C69.7533 57.9398 69.0557 57.4364 68.3602 56.9279C68.0245 56.6824 68.0245 56.6824 67.682 56.432C67.2557 56.1198 66.8297 55.8074 66.404 55.4946C66.1096 55.2806 66.1096 55.2806 65.8092 55.0624C65.6396 54.9384 65.4701 54.8143 65.2954 54.6866C65.0948 54.5528 64.8942 54.4191 64.6875 54.2812C64.4209 54.083 64.1543 53.8848 63.8796 53.6806C62.3155 52.8055 60.5158 52.9865 58.7736 52.9849C58.3917 52.9806 58.0099 52.9759 57.6281 52.9708C56.6289 52.9585 55.6298 52.9529 54.6306 52.9486C53.6086 52.9431 52.5868 52.9313 51.5649 52.92C49.5641 52.8989 47.5634 52.8847 45.5625 52.875C45.5625 53.4319 45.5625 53.9888 45.5625 54.5625C45.883 54.5566 46.2035 54.5507 46.5337 54.5446C47.7308 54.5242 48.928 54.5113 50.1253 54.5007C50.6419 54.4951 51.1586 54.4874 51.6752 54.4776C52.4209 54.4639 53.1663 54.4576 53.9121 54.4526C54.1404 54.4468 54.3687 54.441 54.604 54.435C57.1667 54.434 58.8851 55.6839 60.8379 57.2168C62.7883 58.7195 64.7953 60.1163 66.8543 61.4662C67.0689 61.6095 67.2834 61.7527 67.5044 61.9003C67.6937 62.0246 67.8831 62.1489 68.0782 62.277C68.7473 62.8176 69.2214 63.4491 69.75 64.125C66.831 64.2474 63.912 64.3487 60.9914 64.4245C59.6346 64.4603 58.2788 64.5029 56.9228 64.5619C46.1878 65.0206 46.1878 65.0206 43.0139 62.1851C42.6843 61.8605 42.3611 61.5293 42.0461 61.1905C41.4704 60.5882 40.821 60.1369 40.132 59.6722C39.3267 59.0911 38.5219 58.5095 37.7172 57.9276C36.9984 57.408 36.2786 56.8901 35.5573 56.3741C35.2741 56.1708 34.9909 55.9674 34.6992 55.7578C34.337 55.499 34.337 55.499 33.9675 55.2349C33.8029 55.1058 33.6383 54.9767 33.4688 54.8438C33.4688 54.7509 33.4688 54.6581 33.4688 54.5625C36.9956 54.5625 40.5225 54.5625 44.1562 54.5625C44.2661 50.6429 44.3478 46.7254 44.3814 42.8044C44.3981 40.9832 44.4267 39.1639 44.4832 37.3435C45.2245 29.4976 45.2245 29.4976 42.8894 22.3821C41.5536 21.0709 39.9689 20.3456 38.2258 19.7316C36.8889 19.2009 35.8041 18.3521 34.6641 17.4902C34.2852 17.224 33.9058 16.9584 33.5259 16.6937C32.8666 16.209 32.3401 15.7691 31.7812 15.1875C32.9882 14.2931 34.0456 14.2179 35.4988 14.2177Z" fill="#BE927C"/>
<path d="M0.843735 55.6875C2.19716 56.136 3.23536 56.8988 4.37694 57.7266C4.79981 58.0292 5.22278 58.3317 5.64586 58.634C5.86896 58.794 6.09207 58.954 6.32193 59.1188C7.57194 60.0109 8.83117 60.8897 10.0898 61.7695C10.3322 61.9393 10.5746 62.1091 10.8243 62.284C11.7118 62.9051 12.5987 63.5241 13.5 64.125C13.6038 64.8838 13.6038 64.8838 13.6014 65.869C13.6022 66.0498 13.6029 66.2306 13.6036 66.4168C13.605 67.0254 13.6004 67.6337 13.5958 68.2423C13.5955 68.6774 13.5957 69.1125 13.5961 69.5476C13.5964 70.7313 13.5914 71.9148 13.5855 73.0985C13.5803 74.3345 13.5798 75.5706 13.5788 76.8067C13.5761 79.1484 13.5692 81.4902 13.5608 83.8319C13.5513 86.4975 13.5467 89.163 13.5424 91.8286C13.5336 97.3128 13.5188 102.797 13.5 108.281C11.6565 108.01 11.6565 108.01 10.8633 107.239C9.83548 106.293 8.74149 105.506 7.59373 104.713C7.1739 104.419 6.75422 104.124 6.3347 103.83C6.12397 103.682 5.91324 103.534 5.69612 103.382C5.38247 103.162 5.38247 103.162 5.06248 102.938C4.85846 102.794 4.65444 102.651 4.44423 102.504C3.8631 102.095 3.28477 101.682 2.70702 101.268C2.53154 101.145 2.35607 101.022 2.17528 100.896C1.17002 100.17 0.544652 99.5489 -1.51647e-05 98.4375C-0.106194 97.6227 -0.106194 97.6227 -0.107158 96.7083C-0.109537 96.3605 -0.111916 96.0127 -0.114367 95.6544C-0.112727 95.2713 -0.110999 94.8881 -0.109192 94.5049C-0.110336 94.0997 -0.111838 93.6944 -0.113672 93.2892C-0.117515 92.1904 -0.116029 91.0916 -0.113352 89.9927C-0.111214 88.8421 -0.113198 87.6916 -0.114522 86.541C-0.116056 84.6089 -0.114035 82.6768 -0.110016 80.7447C-0.105424 78.5117 -0.106911 76.2788 -0.111557 74.0458C-0.115387 72.1278 -0.115925 70.2097 -0.113718 68.2917C-0.112403 67.1465 -0.112225 66.0013 -0.115014 64.8561C-0.117454 63.7794 -0.115757 62.7028 -0.110885 61.6261C-0.10977 61.2312 -0.110088 60.8363 -0.11195 60.4414C-0.11426 59.902 -0.110848 59.3624 -0.107158 58.823C-0.106839 58.5212 -0.106521 58.2194 -0.106194 57.9085C0.0141998 56.9847 0.314899 56.4454 0.843735 55.6875Z" fill="#A87D6A"/>
<path d="M43.3125 80.7188C45.1338 81.6454 46.7353 82.7494 48.3672 83.9672C49.9108 85.1168 51.4865 86.2128 53.0778 87.2953C53.2556 87.4163 53.4334 87.5374 53.6166 87.6621C53.7724 87.7676 53.9281 87.8731 54.0886 87.9818C54.245 88.0909 54.4014 88.2001 54.5625 88.3125C54.7551 88.425 54.9477 88.5374 55.1462 88.6533C55.6875 89.1562 55.6875 89.1563 55.8259 89.8882C55.8244 90.3319 55.8244 90.3319 55.8228 90.7846C55.8243 91.1241 55.8259 91.4637 55.8275 91.8136C55.8235 92.1904 55.8194 92.5672 55.8152 92.944C55.8149 93.3404 55.8151 93.7367 55.8157 94.1331C55.816 95.2098 55.8094 96.2864 55.8016 97.3631C55.7945 98.4881 55.7939 99.6131 55.7925 100.738C55.789 102.869 55.7798 104.999 55.7685 107.13C55.7559 109.555 55.7498 111.981 55.7441 114.406C55.7323 119.396 55.7125 124.385 55.6875 129.375C55.1306 129.282 54.5737 129.189 54 129.094C53.9072 128.815 53.8144 128.537 53.7187 128.25C53.2004 127.947 53.2004 127.947 52.5937 127.688C52.2127 127.445 51.8361 127.196 51.4632 126.942C51.2472 126.794 51.0311 126.647 50.8085 126.495C50.5797 126.337 50.3509 126.18 50.1152 126.018C49.8796 125.855 49.6439 125.693 49.4011 125.526C48.6828 125.029 47.9661 124.531 47.25 124.031C46.9289 123.808 46.9289 123.808 46.6014 123.58C46.0182 123.171 45.4382 122.758 44.8594 122.344C44.6861 122.222 44.5129 122.101 44.3344 121.976C43.3422 121.255 42.7328 120.626 42.1875 119.531C42.0805 118.783 42.0805 118.783 42.0785 117.964C42.0757 117.652 42.0729 117.34 42.07 117.019C42.0713 116.68 42.0725 116.34 42.0739 115.99C42.0719 115.631 42.07 115.271 42.068 114.901C42.063 113.916 42.0633 112.932 42.0649 111.948C42.0658 111.125 42.064 110.302 42.0624 109.48C42.0584 107.539 42.0588 105.597 42.062 103.656C42.0653 101.656 42.0613 99.655 42.0538 97.6543C42.0475 95.9348 42.0457 94.2152 42.0473 92.4957C42.0483 91.4695 42.0476 90.4433 42.0428 89.4171C42.0376 88.2725 42.0416 87.1281 42.0464 85.9835C42.0437 85.6446 42.0409 85.3057 42.0381 84.9566C42.0538 83.1845 42.1105 82.0651 43.3125 80.7188Z" fill="#A87E6B"/>
<path d="M31.5 15.4688C32.3324 15.6367 32.8968 15.8804 33.583 16.3773C33.7664 16.5086 33.9498 16.6399 34.1387 16.7751C34.3353 16.9183 34.5318 17.0615 34.7344 17.209C35.1602 17.5146 35.5861 17.82 36.0121 18.1252C36.237 18.287 36.4619 18.4488 36.6936 18.6155C37.9375 19.5048 39.193 20.3775 40.4473 21.252C40.918 21.5802 41.3886 21.9087 41.859 22.2374C42.0583 22.3765 42.2577 22.5155 42.4631 22.6588C42.6506 22.792 42.8381 22.9252 43.0312 23.0625C43.3231 23.2447 43.3231 23.2447 43.6208 23.4305C44.1562 23.9062 44.1562 23.9063 44.2947 24.4888C44.2931 24.8268 44.2931 24.8268 44.2915 25.1715C44.2931 25.4307 44.2946 25.6898 44.2962 25.9567C44.2922 26.2403 44.2881 26.524 44.284 26.8162C44.2841 27.1153 44.2843 27.4144 44.2845 27.7226C44.2837 28.7134 44.2749 29.704 44.2661 30.6947C44.264 31.3808 44.2624 32.0669 44.2613 32.753C44.257 34.5605 44.2459 36.3678 44.2335 38.1753C44.222 40.0189 44.2169 41.8626 44.2112 43.7064C44.1991 47.3251 44.1793 50.9438 44.1562 54.5625C40.7222 54.6553 37.2881 54.7481 33.75 54.8438C36.2668 56.6669 38.7846 58.487 41.3262 60.2754C42.7005 61.2435 44.0743 62.2123 45.4395 63.1934C45.6834 63.3685 45.9274 63.5436 46.1788 63.724C46.3467 63.8563 46.5146 63.9887 46.6875 64.125C46.6875 64.2178 46.6875 64.3106 46.6875 64.4062C43.318 64.787 40.3872 64.9847 37.6172 62.8066C36.9998 62.3036 36.3917 61.792 35.7884 61.2721C34.7037 60.3762 33.5312 59.6131 32.3613 58.834C31.9171 58.5325 31.4732 58.2304 31.0298 57.9276C30.719 57.7155 30.719 57.7155 30.4019 57.499C27.8115 55.7179 27.8115 55.7179 26.7188 54.8438C26.7188 54.7509 26.7188 54.6581 26.7188 54.5625C28.0181 54.5625 29.3175 54.5625 30.6562 54.5625C30.6534 53.859 30.6534 53.859 30.6506 53.1412C30.6335 48.7254 30.6208 44.3096 30.6125 39.8938C30.6082 37.6235 30.6023 35.3532 30.5926 33.0829C30.5842 31.1041 30.5787 29.1253 30.5769 27.1465C30.5758 26.0987 30.5732 25.051 30.567 24.0033C30.5602 22.8336 30.5601 21.664 30.5605 20.4942C30.5574 20.1469 30.5544 19.7995 30.5513 19.4417C30.5524 19.1226 30.5536 18.8036 30.5548 18.4749C30.554 18.1982 30.5532 17.9216 30.5524 17.6366C30.6741 16.744 30.993 16.2047 31.5 15.4688Z" fill="#A77D6A"/>
<path d="M80.4375 46.125C82.2588 47.0516 83.8603 48.1557 85.4922 49.3735C87.0358 50.523 88.6115 51.6191 90.2028 52.7016C90.3806 52.8226 90.5584 52.9436 90.7416 53.0684C90.8974 53.1739 91.0531 53.2794 91.2136 53.3881C91.37 53.4972 91.5264 53.6063 91.6875 53.7188C91.8803 53.8154 92.073 53.9121 92.2716 54.0117C92.973 54.726 92.9454 55.2825 92.9525 56.256C92.9484 56.487 92.9444 56.718 92.9402 56.9561C92.9404 57.2003 92.9405 57.4446 92.9407 57.6963C92.9399 58.5045 92.9312 59.3124 92.9224 60.1205C92.9203 60.6805 92.9187 61.2405 92.9175 61.8005C92.9132 63.275 92.9022 64.7495 92.8897 66.224C92.8782 67.7283 92.8731 69.2327 92.8674 70.7371C92.8554 73.6894 92.8356 76.6415 92.8125 79.5938C90.0281 79.6866 87.2437 79.7794 84.375 79.875C85.1639 80.4087 85.9528 80.9423 86.7656 81.4922C88.7769 82.861 90.7454 84.2735 92.6818 85.7462C93.9546 86.7137 95.2493 87.6399 96.5742 88.5355C96.725 88.6476 96.8759 88.7596 97.0312 88.875C97.0312 88.9678 97.0312 89.0606 97.0312 89.1562C93.3494 89.537 90.4871 89.6168 87.5132 87.2413C87.1302 86.9228 86.7499 86.6009 86.3725 86.2758C85.3431 85.4147 84.2395 84.6574 83.1445 83.8828C82.7237 83.5787 82.3033 83.274 81.8833 82.9688C81.1613 82.445 80.438 81.9231 79.7124 81.4043C79.4296 81.2013 79.1468 80.9982 78.8555 80.7891C78.614 80.6165 78.3726 80.4439 78.1238 80.2661C77.9592 80.137 77.7946 80.008 77.625 79.875C77.625 79.7822 77.625 79.6894 77.625 79.5938C78.1819 79.5938 78.7388 79.5938 79.3125 79.5938C79.3117 79.433 79.3109 79.2722 79.3101 79.1065C79.2915 75.191 79.2776 71.2755 79.2688 67.3599C79.2644 65.4664 79.2585 63.5728 79.2488 61.6793C79.2395 59.8521 79.2346 58.0248 79.2324 56.1976C79.2309 55.5003 79.2278 54.8031 79.2233 54.1058C79.2172 53.1295 79.2163 52.1533 79.2167 51.1769C79.2137 50.8884 79.2106 50.6 79.2075 50.3027C79.2143 48.738 79.253 47.3095 80.4375 46.125Z" fill="#A87E6B"/>
<path d="M94.2188 75.9375C97.5513 75.872 100.884 75.8222 104.217 75.7918C105.765 75.7772 107.312 75.7574 108.86 75.7253C110.358 75.6945 111.854 75.6779 113.352 75.6707C113.92 75.6655 114.488 75.6555 115.055 75.6401C118.857 75.5417 121.333 76.0341 124.377 78.3745C125.078 78.9032 125.811 79.38 126.547 79.8599C127.066 80.1986 127.58 80.5434 128.094 80.8901C128.747 81.33 129.401 81.7666 130.058 82.1997C130.355 82.3955 130.651 82.5913 130.957 82.793C131.216 82.9634 131.475 83.1338 131.741 83.3093C133.965 84.8478 133.965 84.8478 134.438 86.0625C134.505 86.8277 134.505 86.8277 134.501 87.7135C134.501 88.2117 134.501 88.2117 134.501 88.7199C134.498 89.0771 134.495 89.4343 134.492 89.8022C134.492 90.169 134.491 90.5357 134.49 90.9135C134.488 91.8864 134.482 92.8592 134.476 93.832C134.47 94.8255 134.468 95.8191 134.465 96.8126C134.459 98.7605 134.449 100.708 134.438 102.656C132.303 102.656 130.168 102.656 127.969 102.656C127.953 101.346 127.953 101.346 127.937 100.009C127.924 99.1596 127.909 98.3107 127.895 97.4618C127.886 96.8731 127.878 96.2844 127.871 95.6957C127.862 94.8481 127.847 94.0006 127.831 93.1531C127.83 92.8911 127.828 92.6291 127.826 92.3592C127.793 90.8979 127.661 89.856 126.844 88.5937C126.148 87.9157 126.148 87.9157 125.297 87.3105C125.141 87.1941 124.984 87.0776 124.824 86.9575C122.739 85.4211 120.585 83.9809 118.44 82.5305C117.456 81.8612 116.484 81.1749 115.514 80.4858C114.502 79.7948 113.769 79.8322 112.546 79.8172C112.348 79.8145 112.151 79.8117 111.947 79.8088C111.293 79.7999 110.639 79.793 109.984 79.786C109.531 79.7802 109.078 79.7743 108.625 79.7683C107.431 79.7528 106.237 79.7389 105.043 79.7253C103.825 79.7112 102.607 79.6955 101.39 79.68C98.9993 79.6497 96.609 79.6212 94.2188 79.5937C94.2188 78.3872 94.2188 77.1806 94.2188 75.9375Z" fill="#A87E6B"/>
<path d="M46.125 79.5938C50.1176 79.5211 54.11 79.467 58.1031 79.4335C59.9577 79.4174 61.8118 79.3956 63.6662 79.3604C65.4588 79.3265 67.2511 79.3082 69.044 79.3002C69.7249 79.2946 70.4057 79.2835 71.0864 79.2667C75.3174 79.1664 78.1816 79.4451 81.4179 82.3172C82.0235 82.8438 82.6779 83.2897 83.3412 83.74C83.7506 84.0332 84.1597 84.3269 84.5684 84.6211C84.7777 84.7697 84.9871 84.9184 85.2028 85.0715C85.5082 85.2912 85.5082 85.2912 85.8197 85.5154C85.9958 85.6415 86.1719 85.7676 86.3533 85.8976C87.0581 86.4663 87.6757 87.1069 88.3125 87.75C84.2734 87.7593 80.2344 87.7571 76.1952 87.742C74.3194 87.7353 72.4437 87.7322 70.5678 87.7374C68.755 87.7424 66.9425 87.7377 65.1298 87.7265C64.4407 87.7239 63.7516 87.7247 63.0625 87.729C59.2169 87.7509 56.1153 87.7484 52.875 85.5C52.6625 85.3578 52.4499 85.2157 52.231 85.0692C51.7429 84.7303 51.2901 84.3711 50.8359 83.9883C50.596 83.7931 50.596 83.7931 50.3513 83.594C48.9038 82.406 47.4554 81.1932 46.125 79.875C46.125 79.7822 46.125 79.6894 46.125 79.5938Z" fill="#D2A896"/>
<path d="M84.0938 79.5937C87.8001 79.4493 91.5057 79.3399 95.2143 79.2731C96.9373 79.2411 98.6582 79.1977 100.38 79.127C112.913 78.6251 112.913 78.6251 116.115 81.351C117.866 83.0078 119.255 84.9219 120.094 87.1875C118.385 88.8962 110.429 87.9293 107.867 87.9625C106.663 87.9784 105.46 88.0014 104.256 88.0413C94.7073 88.3493 94.7073 88.3493 91.4609 85.5272C91.1175 85.2028 90.7794 84.8728 90.4479 84.5363C89.831 83.9267 89.1447 83.4516 88.4279 82.9665C88.2196 82.8172 88.0113 82.6678 87.7967 82.5139C87.3862 82.2197 86.9753 81.926 86.564 81.6328C86.3612 81.4871 86.1583 81.3413 85.9493 81.1911C85.7739 81.0657 85.5984 80.9402 85.4177 80.8109C84.9355 80.4359 84.5215 80.0288 84.0938 79.5937Z" fill="#D2A896"/>
<path d="M34.5938 14.3438C37.8431 14.2585 41.0922 14.1938 44.3425 14.1543C45.8523 14.1354 47.3614 14.1097 48.8708 14.0679C50.3315 14.0278 51.7916 14.0063 53.2529 13.9969C53.8062 13.9902 54.3594 13.9771 54.9124 13.9572C59.1455 13.8107 61.5471 14.8082 64.7512 17.5759C65.3914 18.1202 66.0678 18.6008 66.7606 19.0756C66.9562 19.2135 67.1518 19.3515 67.3533 19.4936C67.5352 19.6214 67.717 19.7492 67.9043 19.8809C68.1024 20.0206 68.3006 20.1604 68.5047 20.3044C69.2898 20.8575 70.0759 21.4047 70.875 21.9375C70.875 22.1231 70.875 22.3088 70.875 22.5C67.6059 22.5089 64.337 22.5071 61.068 22.492C59.5496 22.4853 58.0315 22.4822 56.5131 22.4874C55.045 22.4924 53.5772 22.4876 52.1091 22.4765C51.5519 22.4739 50.9946 22.4746 50.4374 22.479C45.9444 22.5106 42.8159 21.6977 39.3047 18.7383C39.0648 18.5431 39.0648 18.5431 38.8201 18.344C37.3725 17.156 35.9242 15.9432 34.5938 14.625C34.5938 14.5322 34.5938 14.4394 34.5938 14.3438Z" fill="#D2A896"/>
<path d="M45.5625 52.875C47.7459 52.8291 49.9292 52.7943 52.1129 52.773C53.1272 52.7628 54.1413 52.7489 55.1554 52.7265C56.1366 52.7049 57.1174 52.6933 58.0987 52.6882C58.6501 52.6829 59.2013 52.6675 59.7525 52.6519C62.3133 52.6508 63.8039 53.2843 65.8125 54.8438C66.2353 55.1427 66.6589 55.4407 67.0836 55.7369C67.4868 56.0301 67.8892 56.3242 68.291 56.6191C68.7271 56.9375 69.1632 57.2558 69.5995 57.5739C69.813 57.7296 70.0265 57.8854 70.2464 58.0459C70.839 58.474 71.436 58.8946 72.0363 59.3119C72.2149 59.4367 72.3935 59.5615 72.5775 59.69C72.9075 59.9199 73.2385 60.1482 73.5708 60.3746C74.8133 61.2442 75.7333 62.1062 76.2188 63.5625C76.2436 64.0845 76.2518 64.6073 76.2507 65.1299C76.2506 65.6112 76.2506 65.6112 76.2506 66.1023C76.2492 66.4486 76.2477 66.7949 76.2462 67.1517C76.2458 67.5064 76.2454 67.861 76.245 68.2264C76.2437 69.1682 76.2412 70.1101 76.2381 71.0519C76.2352 72.0134 76.2339 72.9749 76.2325 73.9363C76.2294 75.8222 76.2245 77.7079 76.2188 79.5938C74.2697 79.5938 72.3206 79.5938 70.3125 79.5938C70.3084 79.1681 70.3043 78.7424 70.3001 78.3038C70.2837 76.7219 70.262 75.14 70.2387 73.5581C70.2293 72.874 70.2215 72.1898 70.2151 71.5056C70.2056 70.5211 70.1909 69.5369 70.1752 68.5525C70.1734 68.2474 70.1716 67.9424 70.1697 67.6281C70.1354 65.8577 70.0488 64.463 68.7634 63.1191C68.6133 63.0098 68.4632 62.9006 68.3086 62.788C68.1356 62.6598 67.9627 62.5317 67.7845 62.3997C67.5978 62.2671 67.4111 62.1346 67.2188 61.998C67.0235 61.8555 66.8283 61.713 66.6272 61.5662C64.4292 59.9741 62.1811 58.4523 59.9314 56.9346C59.3649 56.5458 58.8096 56.1446 58.255 55.7391C56.8699 54.7725 55.6834 54.7874 54.0494 54.7548C53.8072 54.7489 53.5649 54.7431 53.3153 54.7371C52.5416 54.7187 51.7679 54.7021 50.9941 54.6855C50.4695 54.6734 49.9449 54.6611 49.4203 54.6487C48.1344 54.6186 46.8485 54.5901 45.5625 54.5625C45.5625 54.0056 45.5625 53.4488 45.5625 52.875Z" fill="#A87E6B"/>
<path d="M4.21875 54.8437C7.11117 54.7716 10.0034 54.7169 12.8965 54.6835C14.2404 54.6674 15.5838 54.6457 16.9273 54.6104C18.2276 54.5764 19.5273 54.5582 20.828 54.5502C21.3205 54.5446 21.813 54.5335 22.3052 54.5166C26.0103 54.3948 28.1839 55.2149 31.0493 57.5722C31.6534 58.0618 32.2902 58.4959 32.9359 58.9285C33.3188 59.1956 33.7015 59.4629 34.084 59.7305C34.2799 59.8657 34.4759 60.0009 34.6778 60.1403C34.8687 60.274 35.0596 60.4078 35.2562 60.5457C35.4205 60.66 35.5848 60.7743 35.7541 60.8921C36.453 61.4495 37.0639 62.0794 37.6875 62.7187C32.8309 62.736 27.9744 62.7378 23.1178 62.7213C22.3344 62.7191 21.551 62.7184 20.7676 62.7183C19.6866 62.7174 18.6062 62.7028 17.5254 62.6836C17.2385 62.6843 16.9517 62.6851 16.6561 62.6859C13.7528 62.6063 11.3558 61.186 9.12305 59.4141C8.97452 59.2966 8.82598 59.1792 8.67295 59.0582C7.12874 57.8213 5.62354 56.5185 4.21875 55.125C4.21875 55.0322 4.21875 54.9394 4.21875 54.8437Z" fill="#D2A896"/>
<path d="M31.5 15.4688C32.3324 15.6367 32.8968 15.8804 33.583 16.3773C33.7664 16.5086 33.9498 16.6399 34.1387 16.7751C34.3353 16.9183 34.5318 17.0615 34.7344 17.209C35.1602 17.5146 35.5861 17.82 36.0121 18.1252C36.237 18.287 36.4619 18.4488 36.6936 18.6155C37.9375 19.5048 39.193 20.3775 40.4473 21.252C40.918 21.5802 41.3886 21.9087 41.859 22.2374C42.0583 22.3765 42.2577 22.5155 42.4631 22.6588C42.6506 22.792 42.8381 22.9252 43.0312 23.0625C43.3231 23.2447 43.3231 23.2447 43.6208 23.4305C44.1562 23.9062 44.1562 23.9063 44.2947 24.4888C44.2931 24.8268 44.2931 24.8268 44.2915 25.1715C44.2931 25.4307 44.2946 25.6898 44.2962 25.9567C44.2922 26.2403 44.2881 26.524 44.284 26.8162C44.2841 27.1153 44.2843 27.4144 44.2845 27.7226C44.2837 28.7134 44.2749 29.704 44.2661 30.6947C44.264 31.3808 44.2624 32.0669 44.2613 32.753C44.257 34.5605 44.2459 36.3678 44.2335 38.1753C44.222 40.0189 44.2169 41.8626 44.2112 43.7064C44.1991 47.3251 44.1793 50.9438 44.1562 54.5625C40.7222 54.6553 37.2881 54.7481 33.75 54.8438C36.2668 56.6669 38.7846 58.487 41.3262 60.2754C42.7005 61.2435 44.0743 62.2123 45.4395 63.1934C45.6834 63.3685 45.9274 63.5436 46.1788 63.724C46.3467 63.8563 46.5146 63.9887 46.6875 64.125C46.6875 64.2178 46.6875 64.3106 46.6875 64.4062C43.318 64.787 40.3872 64.9847 37.6172 62.8066C36.9998 62.3036 36.3917 61.792 35.7884 61.2721C34.7037 60.3762 33.5312 59.6131 32.3613 58.834C31.9171 58.5325 31.4732 58.2304 31.0298 57.9276C30.719 57.7155 30.719 57.7155 30.4019 57.499C27.8115 55.7179 27.8115 55.7179 26.7188 54.8438C26.7188 54.7509 26.7188 54.6581 26.7188 54.5625C26.9349 54.5499 27.151 54.5373 27.3737 54.5243C31.687 54.2662 35.9443 53.9448 40.2089 53.2248C40.8721 53.1454 41.52 53.152 42.1875 53.1562C42.1768 49.5501 42.1601 45.9441 42.1358 42.338C42.1247 40.6636 42.1156 38.9892 42.1113 37.3147C42.107 35.699 42.0974 34.0833 42.0839 32.4676C42.0797 31.851 42.0775 31.2344 42.0773 30.6177C42.0766 29.7544 42.069 28.8914 42.0598 28.0281C42.0612 27.7728 42.0626 27.5175 42.0641 27.2545C42.0448 26.0885 42.0063 25.4716 41.3728 24.4644C38.7728 22.0114 34.0488 21.3651 30.6562 20.5312C30.6333 19.9514 30.617 19.3712 30.6035 18.791C30.5937 18.468 30.5839 18.145 30.5739 17.8121C30.6629 16.799 30.9135 16.2862 31.5 15.4688Z" fill="#98705F"/>
<path d="M80.4375 46.125C82.2588 47.0516 83.8603 48.1557 85.4922 49.3735C87.0358 50.523 88.6115 51.6191 90.2028 52.7016C90.3806 52.8226 90.5584 52.9436 90.7416 53.0684C90.8974 53.1739 91.0531 53.2794 91.2136 53.3881C91.37 53.4972 91.5264 53.6063 91.6875 53.7188C91.8803 53.8154 92.073 53.9121 92.2716 54.0117C92.973 54.726 92.9454 55.2825 92.9525 56.256C92.9484 56.487 92.9444 56.718 92.9402 56.9561C92.9404 57.2003 92.9405 57.4446 92.9407 57.6963C92.9399 58.5045 92.9312 59.3124 92.9224 60.1205C92.9203 60.6805 92.9187 61.2405 92.9175 61.8005C92.9132 63.275 92.9022 64.7495 92.8897 66.224C92.8782 67.7283 92.8731 69.2327 92.8674 70.7371C92.8554 73.6894 92.8356 76.6415 92.8125 79.5938C90.0281 79.6866 87.2437 79.7794 84.375 79.875C85.1639 80.4087 85.9528 80.9423 86.7656 81.4922C88.7769 82.861 90.7454 84.2735 92.6818 85.7462C93.9546 86.7137 95.2493 87.6399 96.5742 88.5355C96.725 88.6476 96.8759 88.7596 97.0312 88.875C97.0312 88.9678 97.0312 89.0606 97.0312 89.1562C93.3494 89.537 90.4871 89.6168 87.5132 87.2413C87.1302 86.9228 86.7499 86.6009 86.3725 86.2758C85.3431 85.4147 84.2395 84.6574 83.1445 83.8828C82.7237 83.5787 82.3033 83.274 81.8833 82.9688C81.1613 82.445 80.438 81.9231 79.7124 81.4043C79.4296 81.2013 79.1468 80.9982 78.8555 80.7891C78.614 80.6165 78.3726 80.4439 78.1238 80.2661C77.9592 80.137 77.7946 80.008 77.625 79.875C77.625 79.7822 77.625 79.6894 77.625 79.5938C77.8552 79.5589 78.0854 79.5241 78.3226 79.4883C81.4619 78.959 84.5003 78.1261 87.559 77.2575C87.9027 77.1602 88.2463 77.0628 88.6003 76.9625C88.9105 76.8736 89.2206 76.7847 89.5401 76.6932C90.2812 76.5 90.2812 76.5 90.8438 76.5C90.8461 73.8106 90.8394 71.1214 90.8212 68.432C90.813 67.1832 90.8079 65.9345 90.81 64.6856C90.8118 63.4801 90.8055 62.2749 90.7935 61.0695C90.7904 60.6098 90.7902 60.1502 90.793 59.6906C90.7964 59.0459 90.7894 58.4022 90.7799 57.7577C90.7786 57.3911 90.7774 57.0244 90.7761 56.6467C90.4799 55.3166 89.9845 55.041 88.875 54.2812C85.9763 52.6507 82.5043 52.0102 79.3125 51.1875C79.3015 50.6932 79.2937 50.1988 79.2872 49.7043C79.2825 49.429 79.2779 49.1537 79.273 48.8701C79.3279 47.7913 79.6647 46.8978 80.4375 46.125Z" fill="#99705F"/>
<path d="M66.9375 14.3438C69.7367 14.2122 72.5352 14.1129 75.337 14.0523C76.6388 14.0232 77.9384 13.9839 79.239 13.9194C88.4833 13.4729 88.4833 13.4729 91.0981 15.5814C92.5324 16.8985 93.6958 18.358 94.7812 19.9688C94.9392 20.1586 95.0972 20.3484 95.26 20.5439C95.625 21.0938 95.625 21.0938 95.625 22.2188C92.4707 22.5025 89.3268 22.6597 86.1606 22.7221C85.5243 22.738 84.8881 22.761 84.2523 22.7913C79.599 23.0076 76.7368 22.3676 73.1491 19.3317C72.3338 18.6536 71.4791 18.0353 70.6207 17.4131C69.3033 16.457 68.0847 15.5012 66.9375 14.3438Z" fill="#D2A896"/>
<path d="M83.25 45C85.7391 44.9277 88.2278 44.8731 90.7176 44.8397C91.8743 44.8237 93.0303 44.802 94.1866 44.7666C103.574 44.4867 103.574 44.4867 106.62 47.29C106.758 47.4284 106.897 47.5667 107.04 47.7092C107.618 48.2686 108.268 48.6997 108.935 49.1462C109.344 49.4394 109.753 49.7331 110.162 50.0273C110.371 50.176 110.581 50.3246 110.797 50.4778C111 50.6242 111.204 50.7707 111.413 50.9216C111.678 51.1108 111.678 51.1108 111.947 51.3038C112.652 51.8725 113.269 52.5131 113.906 53.1562C111.371 53.1651 108.835 53.1633 106.299 53.1482C105.122 53.1416 103.944 53.1384 102.766 53.1437C101.626 53.1486 100.487 53.1438 99.3468 53.1327C98.9152 53.1301 98.4836 53.1309 98.0519 53.1352C94.0508 53.1717 91.0638 52.0098 87.9609 49.3945C87.721 49.1994 87.721 49.1994 87.4763 49.0002C86.0288 47.8122 84.5804 46.5994 83.25 45.2812C83.25 45.1884 83.25 45.0956 83.25 45Z" fill="#D2A896"/>
<path d="M34.0312 54.8437C36.7889 54.7055 39.5457 54.6013 42.3061 54.5377C43.5888 54.5072 44.8691 54.4659 46.1505 54.3982C55.4503 53.9189 55.4503 53.9189 58.4127 56.5422C59.9817 58.053 61.2334 59.7876 62.4375 61.5937C62.4375 61.8722 62.4375 62.1506 62.4375 62.4375C59.4218 62.8154 56.4055 62.8759 53.369 62.9253C52.6685 62.9399 51.9682 62.9609 51.2681 62.9888C46.6627 63.1681 43.6009 62.9297 40.121 59.7599C39.4861 59.1914 38.801 58.7099 38.1017 58.2242C37.4704 57.7659 36.8398 57.3066 36.2093 56.8471C36.0043 56.6983 35.7992 56.5494 35.588 56.3961C35.4093 56.2659 35.2306 56.1357 35.0465 56.0015C34.5898 55.6688 34.5898 55.6688 34.0312 55.4062C34.0312 55.2206 34.0312 55.035 34.0312 54.8437Z" fill="#D2A896"/>
<path d="M109.688 45C112.147 44.8549 114.605 44.7459 117.068 44.6794C118.212 44.6475 119.354 44.6044 120.497 44.5332C128.593 44.0419 128.593 44.0419 131.375 46.3752C133.218 48.0337 134.753 49.9725 136.125 52.0312C136.125 52.3097 136.125 52.5881 136.125 52.875C133.469 53.1955 130.827 53.3202 128.153 53.3783C127.578 53.3942 127.002 53.4172 126.427 53.4475C121.982 53.6765 119.461 52.8827 116.106 49.9425C115.444 49.3704 114.741 48.8703 114.022 48.3728C113.813 48.2234 113.605 48.0741 113.39 47.9202C112.98 47.6259 112.569 47.3323 112.158 47.0391C111.955 46.8933 111.752 46.7476 111.543 46.5974C111.368 46.4719 111.192 46.3464 111.011 46.2171C110.529 45.8422 110.115 45.435 109.688 45Z" fill="#D1A896"/>
<path d="M56.4961 29.7246C56.8525 29.7201 57.2089 29.7156 57.576 29.7109C58.0932 29.7106 58.0932 29.7106 58.6208 29.7103C58.9348 29.7095 59.2487 29.7087 59.5721 29.7078C60.9559 29.8694 61.8675 30.3488 62.8165 31.3594C63.4668 32.7369 63.4352 33.9338 63.4043 35.4375C63.4063 35.7109 63.4083 35.9842 63.4103 36.2659C63.397 37.766 63.3641 38.9757 62.4375 40.2188C60.6923 41.6571 58.8562 41.5126 56.6719 41.4844C56.3351 41.4887 55.9983 41.4931 55.6512 41.4976C53.7442 41.4891 52.4175 41.4311 50.9062 40.2188C49.8041 38.683 49.9175 37.2839 49.9219 35.4551C49.9139 35.1536 49.9059 34.8522 49.8977 34.5416C49.8916 32.0684 49.8916 32.0684 50.7041 31.0419C52.4941 29.4808 54.2027 29.7188 56.4961 29.7246Z" fill="#384F68"/>
<path d="M0.84375 55.6875C2.19717 56.136 3.23537 56.8988 4.37695 57.7266C4.79982 58.0292 5.2228 58.3317 5.64587 58.634C5.86898 58.794 6.09208 58.954 6.32195 59.1188C7.57195 60.0109 8.83118 60.8897 10.0898 61.7695C10.3322 61.9393 10.5746 62.1091 10.8243 62.284C11.7118 62.9051 12.5987 63.5241 13.5 64.125C13.6038 64.8838 13.6038 64.8838 13.6015 65.869C13.6022 66.0498 13.6029 66.2306 13.6036 66.4168C13.605 67.0254 13.6004 67.6337 13.5958 68.2423C13.5955 68.6774 13.5957 69.1125 13.5962 69.5476C13.5964 70.7313 13.5914 71.9148 13.5856 73.0985C13.5803 74.3345 13.5798 75.5706 13.5788 76.8067C13.5762 79.1484 13.5692 81.4902 13.5608 83.8319C13.5513 86.4975 13.5467 89.163 13.5425 91.8286C13.5336 97.3128 13.5188 102.797 13.5 108.281C11.8477 108.035 11.8477 108.035 11.5312 107.719C11.5037 107.177 11.4962 106.635 11.4962 106.093C11.4955 105.739 11.4948 105.386 11.494 105.022C11.4946 104.627 11.4952 104.232 11.4958 103.836C11.4954 103.423 11.4949 103.01 11.4942 102.596C11.493 101.704 11.4924 100.811 11.4924 99.919C11.4921 98.508 11.4885 97.097 11.4841 95.686C11.4834 95.4481 11.4826 95.2102 11.4819 94.9651C11.4804 94.4785 11.4789 93.992 11.4774 93.5054C11.4676 90.219 11.4601 86.9327 11.4608 83.6463C11.4612 81.4315 11.4567 79.2168 11.4465 77.002C11.4413 75.8294 11.4387 74.6569 11.4422 73.4843C11.4454 72.3808 11.4421 71.2775 11.4338 70.174C11.432 69.7691 11.4325 69.3642 11.4356 68.9594C11.4395 68.4063 11.4339 67.8531 11.4279 67.3001C11.4275 66.9906 11.4271 66.6812 11.4266 66.3624C11.1911 65.2543 10.7008 64.8421 9.84375 64.125C6.92072 62.3602 3.28109 61.605 0 60.75C-0.022924 60.1701 -0.0392117 59.59 -0.0527344 59.0098C-0.0625232 58.6867 -0.072312 58.3637 -0.0823975 58.0309C0.0066865 57.0177 0.25725 56.5049 0.84375 55.6875Z" fill="#99705F"/>
<path d="M43.3125 80.7188C45.1338 81.6454 46.7353 82.7494 48.3672 83.9672C49.9108 85.1168 51.4865 86.2128 53.0778 87.2953C53.2556 87.4163 53.4334 87.5374 53.6166 87.6621C53.7724 87.7676 53.9281 87.8731 54.0886 87.9818C54.245 88.0909 54.4014 88.2001 54.5625 88.3125C54.7551 88.425 54.9477 88.5374 55.1462 88.6533C55.6875 89.1562 55.6875 89.1563 55.8259 89.8882C55.8244 90.3319 55.8244 90.3319 55.8228 90.7846C55.8243 91.1241 55.8259 91.4637 55.8275 91.8136C55.8235 92.1904 55.8194 92.5672 55.8152 92.944C55.8149 93.3404 55.8151 93.7367 55.8157 94.1331C55.816 95.2098 55.8094 96.2864 55.8016 97.3631C55.7945 98.4881 55.7939 99.6131 55.7925 100.738C55.789 102.869 55.7798 104.999 55.7685 107.13C55.756 109.555 55.7498 111.981 55.7441 114.406C55.7323 119.396 55.7126 124.385 55.6875 129.375C54.0352 129.129 54.0352 129.129 53.7187 128.812C53.6907 128.321 53.6824 127.828 53.6818 127.336C53.6807 127.016 53.6796 126.696 53.6784 126.366C53.6786 126.011 53.6787 125.657 53.6789 125.292C53.6774 124.722 53.6759 124.153 53.6743 123.584C53.6728 122.97 53.672 122.356 53.6713 121.742C53.6697 120.463 53.665 119.185 53.6597 117.906C53.6579 117.468 53.6561 117.031 53.6543 116.594C53.6535 116.374 53.6526 116.155 53.6516 115.93C53.6398 112.951 53.6305 109.973 53.6271 106.995C53.6247 104.988 53.6184 102.981 53.6076 100.974C53.602 99.9113 53.5985 98.8489 53.5999 97.7863C53.6012 96.7862 53.5974 95.7863 53.5895 94.7863C53.5867 94.2448 53.5893 93.7032 53.5922 93.1617C53.5887 92.8384 53.5852 92.515 53.5816 92.1818C53.5809 91.9014 53.5802 91.621 53.5795 91.3321C53.3978 90.3475 52.9946 89.8758 52.3125 89.1562C49.3213 87.3136 45.5662 86.5848 42.1875 85.7812C41.9799 82.2179 41.9799 82.2179 43.3125 80.7188Z" fill="#99705F"/>
<path d="M77.625 79.5938C81.0165 79.2105 83.9399 79.0253 86.7305 81.2109C87.3463 81.7114 87.9515 82.221 88.5508 82.7412C89.5409 83.5733 90.605 84.2933 91.6699 85.0254C92.0622 85.301 92.454 85.5771 92.8455 85.8538C93.0295 85.9836 93.2136 86.1135 93.4033 86.2474C94.1988 86.8097 94.9921 87.3748 95.7832 87.9434C96.0272 88.1185 96.2712 88.2936 96.5226 88.474C96.6904 88.6063 96.8583 88.7387 97.0312 88.875C97.0312 88.9678 97.0312 89.0606 97.0312 89.1563C93.3494 89.537 90.4871 89.6168 87.5132 87.2413C87.1302 86.9228 86.7499 86.6009 86.3725 86.2758C85.3431 85.4147 84.2395 84.6574 83.1445 83.8828C82.7237 83.5787 82.3033 83.274 81.8833 82.9688C81.1613 82.445 80.438 81.9232 79.7124 81.4043C79.4296 81.2013 79.1468 80.9982 78.8555 80.7891C78.614 80.6165 78.3726 80.4439 78.1238 80.2661C77.9592 80.1371 77.7946 80.008 77.625 79.875C77.625 79.7822 77.625 79.6894 77.625 79.5938Z" fill="#3A5068"/>
<path d="M103.219 45C106.61 44.6168 109.534 44.4316 112.324 46.6172C112.94 47.1177 113.545 47.6272 114.145 48.1475C115.135 48.9795 116.199 49.6996 117.264 50.4316C117.656 50.7072 118.048 50.9833 118.439 51.26C118.623 51.3899 118.807 51.5198 118.997 51.6536C119.793 52.216 120.586 52.7811 121.377 53.3496C121.621 53.5247 121.865 53.6998 122.116 53.8803C122.284 54.0126 122.452 54.1449 122.625 54.2813C122.625 54.3741 122.625 54.4669 122.625 54.5625C118.943 54.9432 116.081 55.023 113.107 52.6476C112.724 52.329 112.344 52.0071 111.966 51.682C110.937 50.821 109.833 50.0637 108.738 49.2891C108.317 48.985 107.897 48.6803 107.477 48.375C106.755 47.8512 106.032 47.3294 105.306 46.8106C105.023 46.6075 104.741 46.4045 104.449 46.1953C104.208 46.0227 103.966 45.8502 103.718 45.6724C103.553 45.5433 103.388 45.4142 103.219 45.2813C103.219 45.1884 103.219 45.0956 103.219 45Z" fill="#3A5068"/>
<path d="M27.2812 54.8438C30.6728 54.4605 33.5962 54.2753 36.3867 56.4609C37.0026 56.9614 37.6077 57.471 38.207 57.9912C39.1972 58.8233 40.2613 59.5433 41.3262 60.2754C41.7184 60.551 42.1103 60.8271 42.5017 61.1038C42.6858 61.2336 42.8699 61.3635 43.0595 61.4974C43.855 62.0597 44.6484 62.6248 45.4395 63.1934C45.6834 63.3685 45.9274 63.5436 46.1788 63.724C46.3467 63.8563 46.5146 63.9887 46.6875 64.125C46.6875 64.2178 46.6875 64.3106 46.6875 64.4063C43.3181 64.787 40.3871 64.9848 37.6172 62.8066C37.0007 62.3039 36.3934 61.7927 35.7908 61.2734C34.6949 60.3696 33.5087 59.6011 32.3262 58.8164C30.5949 57.6568 28.8675 56.4802 27.2812 55.125C27.2812 55.0322 27.2812 54.9394 27.2812 54.8438Z" fill="#3A5168"/>
<path d="M63.7289 118.011C63.9898 118.008 64.2508 118.004 64.5197 118.001C64.9415 118.002 64.9415 118.002 65.372 118.003C65.8063 118.001 65.8063 118.001 66.2494 117.999C66.8619 117.997 67.4745 117.997 68.087 118C69.0248 118.002 69.962 117.994 70.8997 117.985C71.4946 117.984 72.0895 117.985 72.6845 117.985C72.9651 117.982 73.2458 117.979 73.535 117.976C75.4655 117.995 75.4655 117.995 76.4045 118.634C76.7813 119.25 76.7813 119.25 76.7813 120.252C76.4679 121.329 76.3094 121.511 75.375 122.062C74.7668 122.172 74.7668 122.172 74.1033 122.176C73.8537 122.18 73.604 122.183 73.3468 122.187C73.0793 122.186 72.8118 122.185 72.5361 122.184C72.1212 122.187 72.1212 122.187 71.6978 122.189C71.1134 122.191 70.529 122.19 69.9446 122.188C69.0501 122.186 68.1561 122.194 67.2616 122.203C66.6936 122.203 66.1256 122.203 65.5576 122.202C65.2901 122.205 65.0226 122.208 64.747 122.212C62.9054 122.192 62.9054 122.192 61.9865 121.554C61.4142 120.656 61.4613 120.009 61.5938 118.969C62.2192 118.117 62.6965 118.018 63.7289 118.011Z" fill="#3B5168"/>
<path d="M24.6351 94.9489C24.8961 94.9453 25.157 94.9417 25.4259 94.938C25.8478 94.9393 25.8478 94.9393 26.2782 94.9405C26.7125 94.9383 26.7125 94.9383 27.1556 94.9361C27.7682 94.9343 28.3807 94.9346 28.9933 94.937C29.931 94.9394 30.8683 94.9314 31.806 94.9224C32.4009 94.922 32.9958 94.9221 33.5907 94.923C33.8714 94.9198 34.1521 94.9166 34.4413 94.9134C36.3718 94.9328 36.3718 94.9328 37.3107 95.5711C37.6875 96.1875 37.6875 96.1875 37.6875 97.1894C37.3742 98.2664 37.2157 98.4485 36.2813 99C35.6731 99.109 35.6731 99.109 35.0096 99.1136C34.7599 99.1172 34.5102 99.1208 34.253 99.1244C33.9855 99.1236 33.718 99.1228 33.4424 99.1219C33.0274 99.1242 33.0274 99.1242 32.604 99.1264C32.0196 99.1282 31.4352 99.1278 30.8509 99.1254C29.9563 99.123 29.0623 99.1311 28.1679 99.1401C27.5999 99.1405 27.0319 99.1404 26.4639 99.1395C26.1964 99.1427 25.9289 99.1458 25.6533 99.1491C23.8117 99.1296 23.8117 99.1296 22.8928 98.4914C22.3204 97.5931 22.3676 96.947 22.5 95.9062C23.1255 95.0542 23.6027 94.9557 24.6351 94.9489Z" fill="#3B5168"/>
<path d="M60.1875 14.3438C66.7506 13.8222 66.7506 13.8222 68.8535 15.5215C69.2707 15.9162 69.6877 16.3113 70.098 16.7132C71.1069 17.6148 72.2626 18.3267 73.3887 19.0723C74.8633 20.0573 76.3012 21.0352 77.625 22.2188C77.625 22.3116 77.625 22.4044 77.625 22.5C74.2506 22.8813 71.3161 23.074 68.5371 20.9004C67.9229 20.4008 67.3199 19.8916 66.7224 19.3721C65.6334 18.4569 64.4621 17.6571 63.2988 16.8398C62.8794 16.5415 62.4607 16.242 62.0431 15.9412C61.8676 15.8157 61.6922 15.6902 61.5114 15.5609C61.0295 15.1862 60.6092 14.7844 60.1875 14.3438Z" fill="#3B5169"/>
<path d="M103.342 62.3145C103.691 62.3088 104.04 62.3032 104.399 62.2974C104.902 62.2977 104.902 62.2977 105.415 62.298C105.722 62.2974 106.029 62.2969 106.345 62.2964C107.345 62.4704 107.684 62.7516 108.281 63.5625C108.281 64.5645 108.281 64.5645 108 65.5312C106.895 66.6246 105.808 66.4928 104.332 66.5041C104.011 66.5021 103.69 66.5001 103.359 66.498C103.039 66.5037 102.718 66.5093 102.387 66.5151C102.079 66.5149 101.77 66.5147 101.452 66.5145C101.171 66.515 100.889 66.5156 100.599 66.5161C99.638 66.3366 99.3055 66.0201 98.7188 65.25C98.5139 63.5822 98.5139 63.5822 99.0418 62.8066C100.209 61.9795 101.967 62.3066 103.342 62.3145Z" fill="#3C5168"/>
<path d="M64.1514 110.419C64.4875 110.418 64.8235 110.417 65.1698 110.416C65.5211 110.419 65.8724 110.422 66.2344 110.426C66.5857 110.423 66.937 110.419 67.299 110.416C67.8031 110.418 67.8031 110.418 68.3174 110.419C68.6257 110.42 68.9341 110.421 69.2518 110.422C70.0313 110.531 70.0313 110.531 70.5537 110.899C71.0947 111.701 70.975 112.411 70.875 113.344C70.5537 113.82 70.5537 113.82 70.0313 114.188C69.2518 114.297 69.2518 114.297 68.3174 114.3C67.9813 114.301 67.6452 114.302 67.299 114.303C66.9477 114.3 66.5963 114.296 66.2344 114.293C65.8831 114.296 65.5318 114.299 65.1698 114.303C64.6657 114.301 64.6657 114.301 64.1514 114.3C63.843 114.299 63.5347 114.298 63.217 114.297C62.4375 114.188 62.4375 114.188 61.9151 113.82C61.374 113.018 61.4938 112.308 61.5938 111.375C62.2734 110.368 62.9952 110.423 64.1514 110.419Z" fill="#374F68"/>
<path d="M25.0576 87.3567C25.3937 87.3556 25.7298 87.3545 26.0761 87.3534C26.4274 87.3567 26.7787 87.3599 27.1406 87.3633C27.4919 87.36 27.8433 87.3568 28.2052 87.3534C28.7093 87.355 28.7093 87.355 29.2236 87.3567C29.532 87.3576 29.8403 87.3586 30.158 87.3596C30.9375 87.4688 30.9375 87.4688 31.4599 87.8361C32.001 88.6382 31.8812 89.3481 31.7813 90.2812C31.4599 90.7576 31.4599 90.7576 30.9375 91.125C30.158 91.2342 30.158 91.2342 29.2236 91.2371C28.8876 91.2381 28.5515 91.2392 28.2052 91.2404C27.8539 91.2371 27.5026 91.2338 27.1406 91.2305C26.7893 91.2337 26.438 91.237 26.0761 91.2404C25.5719 91.2387 25.5719 91.2387 25.0576 91.2371C24.7493 91.2361 24.4409 91.2352 24.1232 91.2342C23.3438 91.125 23.3438 91.125 22.8214 90.7576C22.2803 89.9555 22.4 89.2456 22.5 88.3125C23.1796 87.305 23.9014 87.3603 25.0576 87.3567Z" fill="#374F68"/>
<path d="M53.7188 33.4688C55.6678 33.4688 57.6169 33.4688 59.625 33.4688C59.625 34.7681 59.625 36.0675 59.625 37.4062C57.6759 37.4062 55.7269 37.4062 53.7188 37.4062C53.7188 36.1069 53.7188 34.8075 53.7188 33.4688Z" fill="#B58D7A"/>
</g>
<defs>
<clipPath id="clip0_5_36">
<rect width="144" height="144" fill="white"/>
</clipPath>
</defs>
</svg>
