<svg width="100" height="100" viewBox="0 0 100 100" fill="none" xmlns="http://www.w3.org/2000/svg">
<g clip-path="url(#clip0_12_913)">
<path d="M92.3805 43.0222C93.1375 43.6397 93.6945 44.1915 93.7993 45.2016C93.7871 46.4642 93.6702 47.6618 93.4326 48.9014C93.3979 49.0856 93.3633 49.2699 93.3276 49.4597C91.8409 57.0404 88.6182 64.2791 83.7891 70.3125C83.6322 70.5106 83.4754 70.7088 83.3137 70.9129C78.1264 77.3589 71.6269 82.2246 64.0625 85.5469C63.9224 85.6085 63.7824 85.6702 63.6381 85.7337C58.712 87.8626 53.2159 89.1021 47.8516 89.2578C47.8536 89.3924 47.8557 89.5271 47.8578 89.6658C47.9495 96.6199 47.9495 96.6199 46.2891 98.6328C45.2171 99.6257 44.3554 100.031 42.8833 100.085C42.662 100.097 42.4407 100.109 42.2127 100.121C40.1551 99.9666 38.5009 98.4373 37.1297 97.0408C36.8634 96.7766 36.8634 96.7766 36.5917 96.5071C36.1105 96.0295 35.633 95.5484 35.1562 95.0663C34.6534 94.5591 34.1476 94.055 33.6423 93.5504C32.7949 92.7033 31.9498 91.8539 31.1061 91.003C30.1344 90.0231 29.1594 89.0467 28.1824 88.0721C27.2374 87.1294 26.2946 86.1844 25.3529 85.2383C24.9545 84.838 24.5553 84.4385 24.1555 84.0395C23.5961 83.481 23.0401 82.9193 22.4843 82.3572C22.2386 82.113 22.2386 82.113 21.988 81.8639C19.9274 79.7659 18.6867 77.3687 18.6646 74.3897C18.7574 69.2634 22.9755 66.0557 26.339 62.6907C26.6737 62.3554 27.0085 62.0199 27.3432 61.6845C28.0407 60.9859 28.7385 60.2877 29.4366 59.5897C30.3288 58.6976 31.2195 57.8041 32.11 56.9103C32.7991 56.219 33.4892 55.5285 34.1795 54.8383C34.5083 54.5093 34.8369 54.1799 35.1651 53.8502C35.6238 53.3895 36.0838 52.93 36.5442 52.4709C36.7444 52.269 36.7444 52.269 36.9486 52.0631C38.6354 50.3872 40.3708 48.9428 42.8253 48.8106C44.2691 48.858 45.3087 49.4143 46.3432 50.4036C48.0761 52.3486 47.9108 55.2256 47.876 57.6782C47.8742 57.9183 47.8724 58.1584 47.8706 58.4057C47.8661 58.9893 47.8597 59.5727 47.8516 60.1563C57.0705 61.5348 66.3907 60.0981 74.6094 55.6641C74.7252 55.6027 74.8411 55.5414 74.9605 55.4782C78.9525 53.3546 82.8507 50.3495 85.7422 46.875C85.9177 46.6678 86.0935 46.4608 86.2694 46.254C86.638 45.8201 87.0062 45.3859 87.3733 44.9509C87.5022 44.799 87.5022 44.799 87.6336 44.644C87.8077 44.4353 87.9789 44.2241 88.1473 44.0107C89.1971 42.6921 90.8439 42.038 92.3805 43.0222Z" fill="#53E25F"/>
<path d="M59.6192 0.378421C61.3623 1.4267 62.7864 2.99124 64.2209 4.41761C64.3806 4.57572 64.5403 4.73382 64.7049 4.89671C65.2263 5.41335 65.747 5.93075 66.2674 6.44837C66.4468 6.62674 66.6263 6.80512 66.8111 6.9889C67.5655 7.73919 68.3197 8.48967 69.0732 9.24092C70.1436 10.3081 71.2156 11.3736 72.2899 12.4368C73.143 13.2814 73.9933 14.1287 74.8428 14.9769C75.2015 15.3343 75.5611 15.6909 75.9215 16.0467C78.7659 18.856 81.1643 21.2702 81.3233 25.4883C81.1865 29.5689 78.9357 31.8264 76.2075 34.5755C75.9642 34.8217 75.9642 34.8217 75.7159 35.0729C75.1857 35.6089 74.6547 36.1441 74.1234 36.6791C74.0323 36.7708 73.9413 36.8625 73.8474 36.957C72.9856 37.8248 72.1234 38.6922 71.2603 39.5587C70.165 40.6583 69.0717 41.7598 67.9811 42.864C67.2088 43.6455 66.4342 44.4248 65.658 45.2024C65.1967 45.6647 64.7367 46.1282 64.2785 46.5936C63.7669 47.1128 63.2517 47.6282 62.7355 48.1428C62.514 48.3702 62.514 48.3702 62.288 48.6022C60.8837 49.988 59.1414 51.1143 57.119 51.2054C55.844 51.116 54.5931 50.7603 53.711 49.8047C52.1195 47.595 52.0935 45.4736 52.1241 42.8589C52.126 42.5658 52.1278 42.2727 52.1294 41.9796C52.1337 41.2676 52.1404 40.5557 52.1485 39.8438C47.3233 39.1104 42.0963 39.0794 37.3047 40.0391C37.1378 40.0715 36.9708 40.104 36.7988 40.1375C30.2736 41.4447 24.0337 44.3329 18.9453 48.6328C18.828 48.7306 18.7107 48.8284 18.5898 48.9291C16.2775 50.8575 14.2605 52.8665 12.4436 55.2818C11.0567 57.0857 11.0567 57.0857 9.95562 57.3769C8.9847 57.4903 8.24487 57.3473 7.36087 56.897C6.62109 56.2604 6.32447 55.7813 6.18136 54.805C5.69377 45.2327 11.8779 34.4708 17.9688 27.5391C18.0793 27.4069 18.1898 27.2747 18.3037 27.1385C20.1137 24.9877 22.1786 22.9896 24.4141 21.2891C24.5418 21.1897 24.6695 21.0904 24.8011 20.9881C32.5537 14.9733 42.2706 11.0042 52.1485 10.7422C52.1464 10.5798 52.1444 10.4174 52.1423 10.2501C52.1356 9.6397 52.1307 9.02927 52.127 8.4188C52.1241 8.02786 52.1191 7.63694 52.1141 7.24602C52.1036 5.15847 52.1772 2.9753 53.6843 1.37024C55.3464 -0.144767 57.5006 -0.595259 59.6192 0.378421Z" fill="#00ACB3"/>
<path d="M50 10.9375C50 20.3477 50 29.7578 50 39.4531C47.2285 39.4531 44.4571 39.4531 41.6016 39.4531C40.1242 39.5949 38.7418 39.7375 37.3047 40.0391C37.1397 40.0715 36.9748 40.104 36.8048 40.1375C30.2769 41.4435 24.0356 44.3312 18.9453 48.6328C18.828 48.7306 18.7107 48.8284 18.5898 48.9291C16.2775 50.8575 14.2605 52.8665 12.4436 55.2818C11.0567 57.0857 11.0567 57.0857 9.95562 57.3769C8.9847 57.4903 8.24487 57.3473 7.36087 56.897C6.62109 56.2604 6.32447 55.7813 6.18136 54.805C5.69377 45.2327 11.8779 34.4708 17.9688 27.5391C18.0793 27.4069 18.1898 27.2747 18.3037 27.1385C20.1137 24.9877 22.1786 22.9896 24.4141 21.2891C24.5418 21.1897 24.6695 21.0904 24.8011 20.9881C31.6326 15.6879 41.1441 10.9375 50 10.9375Z" fill="#00D8E0"/>
<path d="M92.3805 43.0222C93.1375 43.6397 93.6945 44.1915 93.7993 45.2016C93.7871 46.4642 93.6702 47.6618 93.4326 48.9014C93.398 49.0856 93.3633 49.2699 93.3276 49.4597C91.8409 57.0404 88.6182 64.2791 83.7891 70.3125C83.6322 70.5106 83.4754 70.7088 83.3138 70.9129C78.1264 77.3589 71.6269 82.2246 64.0625 85.5469C63.9225 85.6085 63.7824 85.6702 63.6381 85.7337C59.5054 87.5197 54.5305 89.0625 50 89.0625C50 79.6523 50 70.2422 50 60.5469C52.7715 60.5469 55.543 60.5469 58.3984 60.5469C59.8801 60.4101 61.2573 60.2722 62.6953 59.9609C62.8803 59.9221 63.0653 59.8833 63.2559 59.8434C67.2584 58.9818 71.0083 57.6069 74.6094 55.6641C74.7253 55.6027 74.8411 55.5414 74.9605 55.4782C78.9525 53.3546 82.8507 50.3495 85.7422 46.875C85.9177 46.6678 86.0935 46.4608 86.2694 46.254C86.638 45.8201 87.0062 45.3859 87.3734 44.9509C87.4592 44.8496 87.5451 44.7484 87.6336 44.644C87.8077 44.4353 87.9789 44.2241 88.1473 44.0107C89.1971 42.6921 90.8439 42.038 92.3805 43.0222Z" fill="#00AB5E"/>
<path d="M89.2578 42.9688C89.3867 43.0332 89.5156 43.0977 89.6484 43.1641C88.9395 43.873 88.2305 44.582 87.5 45.3125C87.5 44.5822 87.6796 44.4514 88.1592 43.9209C88.2815 43.7834 88.4039 43.646 88.53 43.5043C88.8672 43.1641 88.8672 43.1641 89.2578 42.9688Z" fill="#14B75D"/>
</g>
<defs>
<clipPath id="clip0_12_913">
<rect width="100" height="100" fill="white"/>
</clipPath>
</defs>
</svg>
