<svg width="35" height="35" viewBox="0 0 35 35" fill="none" xmlns="http://www.w3.org/2000/svg">
<path d="M17.4744 2.16615C17.5309 2.16627 17.5875 2.1664 17.6457 2.16653C18.5666 2.16993 19.4651 2.21554 20.3711 2.39259C20.43 2.40396 20.489 2.41532 20.5497 2.42704C24.0726 3.13252 27.409 5.13044 29.5996 7.99806C29.6425 8.05306 29.6425 8.05306 29.6862 8.10918C31.2519 10.1238 32.2175 12.4703 32.6758 14.9707C32.6998 15.1013 32.6998 15.1013 32.7244 15.2345C33.3518 19.2533 32.2582 23.3915 29.8763 26.657C28.9703 27.873 27.8871 28.9811 26.6602 29.8731C26.6024 29.916 26.5447 29.9589 26.4853 30.0031C23.1419 32.4241 18.9268 33.3047 14.8737 32.661C12.1495 32.1873 9.6112 30.9961 7.51954 29.1895C7.46464 29.1421 7.40974 29.0948 7.35318 29.0461C6.54942 28.3375 5.83435 27.5882 5.19532 26.7285C5.16635 26.6904 5.13738 26.6523 5.10753 26.613C3.71317 24.7765 2.85322 22.6168 2.39259 20.3711C2.38023 20.3121 2.36787 20.2531 2.35514 20.1923C1.89014 17.8609 2.09921 15.2451 2.80274 12.9883C2.81919 12.9347 2.83563 12.8812 2.85258 12.826C3.74544 9.97176 5.55072 7.29874 7.9297 5.46876C7.9662 5.44034 8.0027 5.41192 8.04031 5.38264C10.7556 3.27958 14.0412 2.15032 17.4744 2.16615ZM21.6731 12.9518C21.6075 13.018 21.5418 13.0842 21.4761 13.1503C21.3356 13.2918 21.1957 13.4339 21.0562 13.5764C20.8356 13.8016 20.6137 14.0255 20.3916 14.2492C19.9209 14.7237 19.4517 15.1996 18.9826 15.6757C18.4749 16.1909 17.9669 16.7058 17.4573 17.2192C17.2365 17.4417 17.0165 17.6651 16.7971 17.8891C16.6609 18.0279 16.5239 18.166 16.3868 18.3038C16.2928 18.3988 16.1997 18.4945 16.1066 18.5903C16.0508 18.6462 15.9949 18.7021 15.9374 18.7596C15.889 18.8088 15.8407 18.8579 15.7909 18.9085C15.6543 19.0039 15.6543 19.0039 15.5082 18.9919C15.3374 18.9163 15.2367 18.8139 15.1064 18.68C15.0532 18.626 15.0001 18.5719 14.9453 18.5162C14.8884 18.4574 14.8315 18.3985 14.7728 18.3379C14.6513 18.2145 14.5298 18.091 14.4082 17.9676C14.2172 17.7723 14.0264 17.5768 13.8358 17.3811C13.6517 17.1925 13.4668 17.0047 13.2818 16.817C13.2253 16.7584 13.1688 16.6999 13.1106 16.6396C12.6894 16.213 12.3569 15.9692 11.7365 15.9577C11.2146 15.9709 10.8447 16.149 10.4825 16.5232C10.1615 16.9356 10.0965 17.3505 10.1391 17.8608C10.2579 18.3369 10.5128 18.6882 10.8568 19.028C10.8958 19.0677 10.9349 19.1073 10.9751 19.1482C11.1032 19.2777 11.2322 19.4063 11.3613 19.5348C11.4514 19.6253 11.5415 19.7158 11.6316 19.8063C11.82 19.9955 12.0089 20.1841 12.1982 20.3724C12.4398 20.6128 12.68 20.8546 12.9199 21.0969C13.1055 21.284 13.2919 21.4703 13.4785 21.6563C13.5673 21.7451 13.6559 21.8342 13.7443 21.9235C14.4506 22.6503 14.4506 22.6503 15.3811 23.0051C16.5359 22.991 17.2716 21.977 18.0353 21.213C18.1048 21.1436 18.1745 21.0742 18.2441 21.0049C18.4304 20.8192 18.6164 20.6333 18.8024 20.4473C18.919 20.3308 19.0357 20.2143 19.1523 20.0978C19.5602 19.6905 19.9679 19.2831 20.3755 18.8755C20.7541 18.4968 21.1331 18.1186 21.5123 17.7405C21.8394 17.4143 22.1662 17.0878 22.4929 16.7611C22.6873 16.5666 22.8818 16.3723 23.0766 16.1782C23.2594 15.9961 23.4419 15.8136 23.6242 15.6308C23.7225 15.5324 23.8211 15.4344 23.9197 15.3363C24.6419 14.6124 24.6419 14.6124 24.9085 13.6505C24.8946 13.2169 24.7603 12.8816 24.4687 12.5594C24.0984 12.2135 23.7991 12.0356 23.2892 12.0056C22.5766 12.0344 22.1478 12.463 21.6731 12.9518Z" fill="#00BA00"/>
</svg>
