<svg width="35" height="35" viewBox="0 0 35 35" fill="none" xmlns="http://www.w3.org/2000/svg">
<g clip-path="url(#clip0_7_28)">
<path d="M17.4744 -0.021372C17.5439 -0.0212247 17.6135 -0.0210774 17.6852 -0.0209256C18.6839 -0.0175301 19.6636 -0.000378969 20.6445 0.205068C20.7112 0.21865 20.7778 0.232231 20.8465 0.246224C23.5158 0.804604 26.0082 1.87229 28.1641 3.55468C28.2253 3.60147 28.2865 3.64826 28.3496 3.69647C29.413 4.52467 30.4145 5.49738 31.2402 6.56249C31.2932 6.62796 31.3461 6.69344 31.4007 6.76089C33.7617 9.72803 35.03 13.4976 35.0216 17.2763C35.0214 17.4772 35.023 17.6781 35.0247 17.879C35.0277 18.7932 34.9453 19.6748 34.7949 20.5762C34.7756 20.6928 34.7756 20.6928 34.7559 20.8117C34.2757 23.4853 33.1148 26.0271 31.4453 28.1641C31.3934 28.2305 31.3415 28.2969 31.288 28.3654C30.4449 29.4167 29.5014 30.4115 28.4375 31.2402C28.3735 31.2925 28.3095 31.3447 28.2436 31.3986C26.0594 33.1477 23.382 34.2763 20.6445 34.7949C20.5892 34.8061 20.5339 34.8173 20.4769 34.8288C18.4233 35.2302 16.0551 35.1553 14.0137 34.7266C13.9096 34.7051 13.9096 34.7051 13.8033 34.6833C11.2642 34.1438 8.88094 33.0429 6.83593 31.4453C6.76949 31.3934 6.70305 31.3415 6.63459 31.288C5.58325 30.4449 4.58843 29.5014 3.75976 28.4375C3.68138 28.3415 3.68138 28.3415 3.60141 28.2436C1.85231 26.0594 0.723713 23.382 0.205071 20.6445C0.19388 20.5892 0.182689 20.5339 0.171158 20.4769C-0.20274 18.5637 -0.194474 16.2631 0.205071 14.3555C0.218652 14.2888 0.232234 14.2222 0.246227 14.1535C0.935766 10.8572 2.44219 7.80835 4.80004 5.3887C4.92132 5.26422 5.04148 5.13873 5.16166 5.01319C5.64712 4.51144 6.15394 4.06237 6.71397 3.64567C6.83789 3.55321 6.96057 3.45925 7.0832 3.36509C7.65787 2.9285 8.25543 2.54968 8.88484 2.197C9.0122 2.12544 9.13854 2.05236 9.26482 1.97894C11.7668 0.572985 14.628 -0.0322105 17.4744 -0.021372Z" fill="#F44336"/>
<path d="M12.0483 10.6384C12.1588 10.6355 12.1588 10.6355 12.2716 10.6326C12.799 10.7023 13.1588 10.9995 13.5203 11.3702C13.5631 11.4129 13.6058 11.4556 13.6499 11.4996C13.7896 11.6395 13.9283 11.7803 14.0671 11.9212C14.1643 12.019 14.2616 12.1167 14.359 12.2143C14.614 12.4704 14.8682 12.7273 15.1223 12.9844C15.3821 13.247 15.6427 13.5088 15.9032 13.7707C16.4134 14.2839 16.9228 14.7979 17.4316 15.3125C17.7177 15.2007 17.9071 14.9905 18.1176 14.7755C18.1785 14.7142 18.1785 14.7142 18.2406 14.6515C18.3287 14.5628 18.4165 14.4738 18.5043 14.3848C18.6433 14.2436 18.7829 14.103 18.9225 13.9624C19.3195 13.5627 19.7156 13.1622 20.1115 12.7614C20.3538 12.5161 20.5967 12.2714 20.8398 12.0269C20.9321 11.9339 21.0243 11.8406 21.1162 11.7471C21.2451 11.6161 21.3746 11.4857 21.5043 11.3554C21.5418 11.317 21.5793 11.2786 21.6179 11.239C21.915 10.9425 22.2185 10.6973 22.6438 10.6277C23.1641 10.6328 23.5743 10.666 23.9616 11.0374C24.2501 11.3659 24.3564 11.6135 24.3616 12.0483C24.3635 12.122 24.3654 12.1957 24.3674 12.2716C24.2977 12.799 24.0005 13.1588 23.6298 13.5203C23.5871 13.5631 23.5444 13.6058 23.5004 13.6499C23.3605 13.7896 23.2197 13.9283 23.0788 14.0671C22.981 14.1643 22.8833 14.2616 22.7857 14.359C22.5296 14.614 22.2727 14.8682 22.0156 15.1223C21.753 15.3821 21.4912 15.6427 21.2293 15.9032C20.7161 16.4134 20.2021 16.9228 19.6875 17.4316C19.7993 17.7177 20.0095 17.9071 20.2245 18.1176C20.2858 18.1785 20.2858 18.1785 20.3485 18.2406C20.4372 18.3287 20.5262 18.4165 20.6152 18.5043C20.7564 18.6433 20.897 18.7829 21.0376 18.9225C21.4373 19.3195 21.8378 19.7156 22.2386 20.1115C22.4839 20.3538 22.7286 20.5967 22.9731 20.8398C23.0661 20.9321 23.1594 21.0243 23.2529 21.1162C23.3839 21.2451 23.5143 21.3746 23.6446 21.5043C23.683 21.5418 23.7214 21.5793 23.761 21.6179C24.0575 21.915 24.3027 22.2185 24.3723 22.6438C24.3671 23.1657 24.3316 23.5699 23.965 23.9616C23.6347 24.2569 23.3199 24.3575 22.8833 24.3701C22.811 24.3736 22.7388 24.3772 22.6643 24.3808C21.9081 24.2409 21.3364 23.4818 20.8194 22.9586C20.7253 22.8641 20.6312 22.7697 20.537 22.6753C20.2908 22.4283 20.0452 22.1807 19.7997 21.9329C19.5485 21.6796 19.2967 21.4268 19.0449 21.174C18.5521 20.6791 18.06 20.1835 17.5684 19.6875C17.2824 19.7991 17.0935 20.0093 16.8835 20.2245C16.843 20.2654 16.8025 20.3063 16.7608 20.3485C16.673 20.4372 16.5853 20.5262 16.4978 20.6152C16.359 20.7564 16.2198 20.8971 16.0804 21.0376C15.6841 21.4372 15.2886 21.8376 14.8937 22.2386C14.6519 22.484 14.4095 22.7287 14.1667 22.9731C14.0745 23.0661 13.9826 23.1593 13.891 23.2529C13.7625 23.3841 13.6331 23.5144 13.5034 23.6446C13.4662 23.683 13.429 23.7214 13.3906 23.761C13.0138 24.1359 12.6082 24.3751 12.0654 24.3744C11.5475 24.3576 11.2619 24.1917 10.9119 23.8232C10.7115 23.515 10.6405 23.2506 10.6299 22.8833C10.6246 22.7749 10.6246 22.7749 10.6192 22.6643C10.7591 21.9081 11.5182 21.3364 12.0414 20.8194C12.1359 20.7253 12.2303 20.6312 12.3247 20.537C12.5717 20.2908 12.8193 20.0452 13.0671 19.7997C13.3204 19.5485 13.5732 19.2967 13.826 19.0449C14.3209 18.5521 14.8165 18.06 15.3125 17.5684C15.2009 17.2824 14.9907 17.0935 14.7755 16.8835C14.7346 16.843 14.6937 16.8025 14.6515 16.7608C14.5628 16.673 14.4738 16.5853 14.3848 16.4978C14.2436 16.359 14.1029 16.2198 13.9624 16.0804C13.5628 15.6841 13.1624 15.2886 12.7614 14.8937C12.516 14.6519 12.2713 14.4095 12.0269 14.1667C11.9339 14.0745 11.8407 13.9826 11.7471 13.891C11.6159 13.7625 11.4856 13.6331 11.3554 13.5034C11.2978 13.4476 11.2978 13.4476 11.239 13.3906C10.8641 13.0138 10.6249 12.6082 10.6256 12.0654C10.639 11.6516 10.7282 11.3814 11.0059 11.0742C11.3388 10.7657 11.5935 10.6438 12.0483 10.6384Z" fill="#F9F8F7"/>
</g>
<defs>
<clipPath id="clip0_7_28">
<rect width="35" height="35" fill="white"/>
</clipPath>
</defs>
</svg>
