<svg width="100" height="100" viewBox="0 0 100 100" fill="none" xmlns="http://www.w3.org/2000/svg">
<g clip-path="url(#clip0_12_904)">
<path d="M49.9268 -0.0610299C50.1162 -0.0606739 50.3056 -0.0603179 50.5008 -0.0599511C53.3038 -0.0510852 56.0311 0.0476156 58.7891 0.585943C59.0519 0.633102 59.0519 0.633102 59.32 0.681215C67.8358 2.22215 75.8721 6.06737 82.4219 11.7188C82.5697 11.8449 82.7174 11.971 82.8697 12.101C85.2424 14.1796 87.552 16.4235 89.4531 18.9453C89.5339 19.0503 89.6148 19.1552 89.698 19.2634C91.1994 21.2161 92.5168 23.2594 93.75 25.3906C93.827 25.5229 93.904 25.6552 93.9834 25.7915C96.6048 30.3491 98.2178 35.385 99.2798 40.5151C99.3086 40.6532 99.3374 40.7912 99.367 40.9335C99.94 43.914 100.074 46.8999 100.061 49.9268C100.061 50.1063 100.06 50.2859 100.06 50.4709C100.049 53.2782 99.9495 56.0257 99.4141 58.7891C99.3558 59.0904 99.3558 59.0904 99.2965 59.3979C96.9545 71.1024 90.6497 82.1615 81.0547 89.4531C80.9492 89.5345 80.8436 89.6159 80.7349 89.6998C78.7828 91.2004 76.7398 92.5173 74.6094 93.75C74.4771 93.827 74.3448 93.904 74.2085 93.9834C66.8415 98.2207 58.4028 100.095 49.9634 100.061C49.687 100.061 49.687 100.061 49.405 100.06C46.6372 100.051 43.9326 99.9597 41.2109 99.4141C41.0345 99.3795 40.8581 99.345 40.6763 99.3094C39.4124 99.0557 38.1618 98.7613 36.9141 98.4375C36.7518 98.3955 36.5896 98.3535 36.4224 98.3103C28.5184 96.214 21.3053 91.9872 15.4297 86.3281C15.3009 86.2047 15.1721 86.0812 15.0394 85.954C13.1858 84.1675 11.4818 82.3507 9.96093 80.2734C9.8003 80.06 9.63957 79.8466 9.47875 79.6333C5.14267 73.8044 2.24355 67.065 0.781242 59.9609C0.740172 59.7654 0.699102 59.5699 0.656787 59.3684C-0.583844 53.1731 -0.524634 46.2161 0.781242 40.0391C0.824137 39.8356 0.867033 39.6321 0.911228 39.4224C2.84719 30.5469 7.10948 22.0977 13.5069 15.6007C13.8867 15.2145 14.2622 14.8244 14.6377 14.4341C16.2331 12.791 17.8801 11.3143 19.7266 9.96094C19.8377 9.87798 19.9489 9.79503 20.0635 9.70955C21.7707 8.43698 23.5373 7.29768 25.3906 6.25001C25.5287 6.17145 25.6669 6.0929 25.8092 6.01197C30.9161 3.13672 36.5843 1.24235 42.3828 0.39063C42.6181 0.355996 42.8534 0.321362 43.0958 0.285678C45.3726 -0.0266207 47.6312 -0.0699958 49.9268 -0.0610299Z" fill="#FF3F5B"/>
<path d="M43.7922 23.6013C43.9374 23.6004 44.0825 23.5994 44.2321 23.5984C44.7135 23.5955 45.195 23.5942 45.6764 23.5931C46.0107 23.592 46.345 23.5909 46.6793 23.5898C47.3808 23.5877 48.0824 23.5866 48.784 23.5859C49.6825 23.5848 50.5809 23.5801 51.4794 23.5746C52.1702 23.5709 52.861 23.5699 53.5518 23.5696C53.883 23.569 54.2142 23.5675 54.5454 23.5649C55.0092 23.5616 55.4729 23.5619 55.9367 23.5632C56.1414 23.5605 56.1414 23.5605 56.3503 23.5577C57.1987 23.565 57.718 23.7111 58.3984 24.2187C58.9669 24.8088 59.0557 25.2064 59.0416 26.0162C59.0397 26.2076 59.0378 26.3989 59.0359 26.5961C59.031 26.7945 59.026 26.9929 59.021 27.1973C59.0183 27.3987 59.0157 27.6001 59.013 27.8076C59.0061 28.3041 58.9965 28.8005 58.9844 29.2969C59.3344 29.2907 59.3344 29.2907 59.6916 29.2845C60.5641 29.2702 61.4365 29.2613 62.3091 29.254C62.6855 29.25 63.0619 29.2447 63.4383 29.2379C63.9818 29.2284 64.5252 29.224 65.0688 29.2206C65.2349 29.2165 65.401 29.2125 65.5721 29.2084C67.206 29.2078 68.6123 29.7795 69.813 30.899C71.0907 32.3732 71.2385 33.9189 71.1914 35.8032C71.1919 36.0284 71.1924 36.2536 71.1929 36.4857C71.1715 38.3336 71.1715 38.3336 70.5078 39.2578C69.7701 39.836 69.277 39.8678 68.3594 39.8437C68.3607 40.0743 68.3607 40.0743 68.3621 40.3094C68.3837 44.0575 68.3998 47.8056 68.41 51.5537C68.415 53.3663 68.4218 55.1789 68.433 56.9914C68.4428 58.5722 68.4491 60.1529 68.4513 61.7337C68.4525 62.5699 68.4555 63.406 68.4626 64.2422C68.4693 65.0311 68.4713 65.8199 68.4698 66.6089C68.4701 66.8966 68.472 67.1844 68.4758 67.4721C68.5067 69.9483 68.017 72.106 66.3841 74.0364C65.0681 75.3851 63.5283 76.2921 61.6139 76.3934C61.4376 76.3942 61.2612 76.3951 61.0795 76.3959C60.774 76.398 60.774 76.398 60.4624 76.4002C60.241 76.4007 60.0196 76.4012 59.7915 76.4018C59.5566 76.403 59.3218 76.4043 59.0799 76.4056C58.3029 76.4095 57.5259 76.4118 56.749 76.4137C56.4805 76.4145 56.212 76.4153 55.9436 76.4161C54.6816 76.4199 53.4197 76.4226 52.1577 76.4243C50.7058 76.4262 49.2538 76.4313 47.8018 76.4392C46.6765 76.4451 45.5512 76.448 44.4259 76.4486C43.7553 76.4491 43.0846 76.4508 42.414 76.4558C41.6642 76.4605 40.9146 76.4603 40.1648 76.459C39.9458 76.4615 39.7268 76.464 39.5011 76.4666C37.2393 76.4517 35.436 75.7851 33.7891 74.2187C31.8619 72.2257 31.4948 69.7074 31.5298 67.0499C31.53 66.7513 31.5299 66.4527 31.5293 66.154C31.529 65.3515 31.5347 64.5491 31.5416 63.7467C31.5477 62.905 31.5483 62.0633 31.5494 61.2216C31.5525 59.6314 31.5605 58.0412 31.5703 56.4511C31.5812 54.6392 31.5866 52.8272 31.5915 51.0153C31.6017 47.2914 31.6188 43.5676 31.6406 39.8437C31.4229 39.8477 31.2052 39.8517 30.981 39.8558C29.9808 39.8388 29.7823 39.5641 29.1016 38.8672C28.7732 37.8823 28.8455 36.859 28.833 35.8276C28.822 35.4928 28.822 35.4928 28.8109 35.1513C28.7933 33.4483 29.0884 32.1058 30.2716 30.8311C31.6422 29.5271 32.9006 29.2074 34.7404 29.2397C34.9206 29.2405 35.1007 29.2413 35.2863 29.2422C35.8574 29.2454 36.4284 29.2528 36.9995 29.2603C37.3885 29.2632 37.7774 29.2659 38.1664 29.2683C39.1162 29.2747 40.0659 29.2848 41.0156 29.2969C41.0105 29.1728 41.0054 29.0488 41.0001 28.921C40.9797 28.3546 40.9671 27.7883 40.9546 27.2217C40.9464 27.0266 40.9382 26.8314 40.9298 26.6304C40.9028 25.0007 40.9028 25.0007 41.4833 24.2874C42.2598 23.5866 42.7881 23.6029 43.7922 23.6013Z" fill="#FF415D"/>
<path d="M43.7922 23.6013C43.9374 23.6004 44.0825 23.5994 44.2321 23.5984C44.7135 23.5955 45.195 23.5942 45.6764 23.5931C46.0107 23.592 46.345 23.5909 46.6793 23.5898C47.3808 23.5877 48.0824 23.5866 48.784 23.5859C49.6825 23.5848 50.5809 23.5801 51.4794 23.5746C52.1702 23.5709 52.861 23.5699 53.5518 23.5696C53.883 23.569 54.2142 23.5675 54.5454 23.5649C55.0092 23.5616 55.4729 23.5619 55.9367 23.5632C56.1414 23.5605 56.1414 23.5605 56.3503 23.5577C57.1987 23.565 57.718 23.7111 58.3984 24.2187C58.9669 24.8088 59.0557 25.2064 59.0416 26.0162C59.0397 26.2076 59.0378 26.3989 59.0359 26.5961C59.031 26.7945 59.026 26.9929 59.021 27.1973C59.0183 27.3987 59.0157 27.6001 59.013 27.8076C59.0061 28.3041 58.9965 28.8005 58.9844 29.2969C59.3344 29.2907 59.3344 29.2907 59.6916 29.2845C60.5641 29.2702 61.4365 29.2613 62.3091 29.254C62.6855 29.25 63.0619 29.2447 63.4383 29.2379C63.9818 29.2284 64.5252 29.224 65.0688 29.2206C65.2349 29.2165 65.401 29.2125 65.5721 29.2084C67.206 29.2078 68.6123 29.7795 69.813 30.899C71.0907 32.3732 71.2385 33.9189 71.1914 35.8032C71.1919 36.0284 71.1924 36.2536 71.1929 36.4857C71.1715 38.3336 71.1715 38.3336 70.5078 39.2578C69.7701 39.836 69.277 39.8678 68.3594 39.8437C68.3607 40.0743 68.3607 40.0743 68.3621 40.3094C68.3837 44.0575 68.3998 47.8056 68.41 51.5537C68.415 53.3663 68.4218 55.1789 68.433 56.9914C68.4428 58.5722 68.4491 60.1529 68.4513 61.7337C68.4525 62.5699 68.4555 63.406 68.4626 64.2422C68.4693 65.0311 68.4713 65.8199 68.4698 66.6089C68.4701 66.8966 68.472 67.1844 68.4758 67.4721C68.5067 69.9483 68.017 72.106 66.3841 74.0364C65.0681 75.3851 63.5283 76.2921 61.6139 76.3934C61.4376 76.3942 61.2612 76.3951 61.0795 76.3959C60.774 76.398 60.774 76.398 60.4624 76.4002C60.241 76.4007 60.0196 76.4012 59.7915 76.4018C59.5566 76.403 59.3218 76.4043 59.0799 76.4056C58.3029 76.4095 57.5259 76.4118 56.749 76.4137C56.4805 76.4145 56.212 76.4153 55.9436 76.4161C54.6816 76.4199 53.4197 76.4226 52.1577 76.4243C50.7058 76.4262 49.2538 76.4313 47.8018 76.4392C46.6765 76.4451 45.5512 76.448 44.4259 76.4486C43.7553 76.4491 43.0846 76.4508 42.414 76.4558C41.6642 76.4605 40.9146 76.4603 40.1648 76.459C39.9458 76.4615 39.7268 76.464 39.5011 76.4666C37.2393 76.4517 35.436 75.7851 33.7891 74.2187C31.8619 72.2257 31.4948 69.7074 31.5298 67.0499C31.53 66.7513 31.5299 66.4527 31.5293 66.154C31.529 65.3515 31.5347 64.5491 31.5416 63.7467C31.5477 62.905 31.5483 62.0633 31.5494 61.2216C31.5525 59.6314 31.5605 58.0412 31.5703 56.4511C31.5812 54.6392 31.5866 52.8272 31.5915 51.0153C31.6017 47.2914 31.6188 43.5676 31.6406 39.8437C31.4229 39.8477 31.2052 39.8517 30.981 39.8558C29.9808 39.8388 29.7823 39.5641 29.1016 38.8672C28.7732 37.8823 28.8455 36.859 28.833 35.8276C28.822 35.4928 28.822 35.4928 28.8109 35.1513C28.7933 33.4483 29.0884 32.1058 30.2716 30.8311C31.6422 29.5271 32.9006 29.2074 34.7404 29.2397C34.9206 29.2405 35.1007 29.2413 35.2863 29.2422C35.8574 29.2454 36.4284 29.2528 36.9995 29.2603C37.3885 29.2632 37.7774 29.2659 38.1664 29.2683C39.1162 29.2747 40.0659 29.2848 41.0156 29.2969C41.0105 29.1728 41.0054 29.0488 41.0001 28.921C40.9797 28.3546 40.9671 27.7883 40.9546 27.2217C40.9464 27.0266 40.9382 26.8314 40.9298 26.6304C40.9028 25.0007 40.9028 25.0007 41.4833 24.2874C42.2598 23.5866 42.7881 23.6029 43.7922 23.6013ZM35.5469 39.6484C35.5241 44.9562 35.5241 44.9562 35.5087 50.264C35.5041 52.4286 35.4986 54.5933 35.4879 56.7579C35.4801 58.3345 35.4751 59.911 35.4734 61.4875C35.4723 62.3221 35.47 63.1565 35.4643 63.991C35.4589 64.7772 35.4573 65.5633 35.4585 66.3495C35.4583 66.6373 35.4567 66.9252 35.4537 67.213C35.3828 69.3995 35.3828 69.3995 36.3281 71.2891C37.5707 72.4888 38.759 72.6299 40.4301 72.6064C40.7725 72.6085 40.7725 72.6085 41.1218 72.6107C41.8721 72.6138 42.6221 72.6086 43.3723 72.6028C43.8959 72.6026 44.4195 72.6028 44.9431 72.6034C46.0387 72.6038 47.1342 72.5995 48.2297 72.5923C49.4931 72.584 50.7563 72.5826 52.0197 72.5851C53.2396 72.5873 54.4594 72.5851 55.6792 72.5807C56.1963 72.5792 56.7134 72.5787 57.2306 72.5794C57.9537 72.5795 58.6767 72.5746 59.3998 72.5682C59.6124 72.5692 59.825 72.5702 60.0441 72.5712C61.5472 72.5502 62.6739 72.303 63.7451 71.2036C64.3309 70.2799 64.5019 69.5607 64.5001 68.4672C64.5006 68.2128 64.5012 67.9584 64.5017 67.6963C64.5003 67.4157 64.4989 67.1352 64.4975 66.8546C64.4974 66.5581 64.4974 66.2617 64.4976 65.9652C64.4978 65.1614 64.4955 64.3577 64.4927 63.5539C64.4903 62.7135 64.4901 61.8731 64.4896 61.0327C64.4884 59.4418 64.4852 57.8509 64.4813 56.26C64.4761 54.1098 64.474 51.9597 64.4717 49.8095C64.468 46.4225 64.4602 43.0355 64.4531 39.6484C54.9141 39.6484 45.375 39.6484 35.5469 39.6484Z" fill="#FFFDFD"/>
<path d="M58.9844 43.3594C59.5581 43.8355 59.5581 43.8355 59.9609 44.3359C60.0254 44.4004 60.0899 44.4648 60.1563 44.5313C60.1762 44.8255 60.1827 45.1207 60.1837 45.4157C60.1854 45.7024 60.1854 45.7024 60.1871 45.9949C60.1873 46.2063 60.1875 46.4178 60.1877 46.6356C60.1887 46.857 60.1897 47.0783 60.1907 47.3064C60.1935 48.0425 60.1949 48.7786 60.1959 49.5148C60.1971 50.0245 60.1982 50.5342 60.1993 51.0439C60.2012 51.9774 60.2023 52.911 60.2029 53.8445C60.2038 55.2184 60.2072 56.5924 60.2129 57.9663C60.2176 59.1559 60.2191 60.3454 60.2195 61.535C60.22 62.0412 60.2216 62.5474 60.2242 63.0535C60.2275 63.7615 60.2271 64.4694 60.2259 65.1773C60.2277 65.3872 60.2295 65.5971 60.2313 65.8133C60.2243 67.0587 60.1185 67.7917 59.2285 68.7134C58.5805 69.0554 58.1434 69.0466 57.4219 68.9453C56.9082 68.521 56.5482 68.1745 56.25 67.5781C56.2303 67.2735 56.2228 66.968 56.2213 66.6628C56.2199 66.4697 56.2185 66.2767 56.217 66.0778C56.2165 65.8652 56.216 65.6527 56.2154 65.4336C56.2142 65.2104 56.2129 64.9871 56.2115 64.757C56.2077 64.0156 56.2054 63.2742 56.2035 62.5328C56.2027 62.2801 56.2019 62.0274 56.2011 61.7671C56.1974 60.5679 56.1946 59.3688 56.1929 58.1696C56.191 56.7854 56.1859 55.4014 56.178 54.0173C56.1714 52.8184 56.1691 51.6196 56.1683 50.4207C56.1673 49.9107 56.165 49.4007 56.1614 48.8908C56.1567 48.1776 56.1569 47.4647 56.1582 46.7516C56.1557 46.5402 56.1532 46.3288 56.1506 46.111C56.1606 44.679 56.1606 44.679 56.622 43.9164C57.3381 43.2836 58.0527 43.1934 58.9844 43.3594Z" fill="#FFFDFD"/>
<path d="M50.7812 43.3594C51.3301 43.7097 51.662 43.949 51.9531 44.5313C51.9724 44.833 51.9795 45.1355 51.9806 45.4379C51.9822 45.7246 51.9822 45.7246 51.9839 46.017C51.9841 46.2275 51.9844 46.4379 51.9846 46.6547C51.9856 46.8758 51.9865 47.0968 51.9875 47.3246C51.9904 48.0587 51.9917 48.7928 51.9928 49.527C51.9939 50.036 51.995 50.5449 51.9962 51.0539C51.998 51.9858 51.9992 52.9176 51.9998 53.8495C52.0007 55.2201 52.0041 56.5907 52.0097 57.9613C52.0145 59.1489 52.016 60.3365 52.0163 61.5241C52.0169 62.029 52.0185 62.5339 52.021 63.0388C52.0244 63.7453 52.024 64.4518 52.0227 65.1583C52.0245 65.3671 52.0263 65.576 52.0282 65.7912C52.0222 66.8575 51.9808 67.639 51.3672 68.5547C50.7513 69.0219 50.1693 69.0224 49.4141 68.9453C48.8002 68.6802 48.5136 68.5151 48.218 67.9101C48.0441 67.3743 47.9968 66.9655 47.9946 66.4044C47.993 66.2122 47.9913 66.02 47.9896 65.822C47.9898 65.6133 47.9899 65.4047 47.9901 65.1897C47.9888 64.9683 47.9875 64.7468 47.9862 64.5187C47.9824 63.7868 47.9817 63.0549 47.9813 62.323C47.98 61.8144 47.9787 61.3058 47.9773 60.7972C47.9748 59.7313 47.9742 58.6654 47.9745 57.5995C47.9747 56.3684 47.9706 55.1372 47.9644 53.9061C47.9587 52.7203 47.9573 51.5345 47.9575 50.3486C47.9571 49.8446 47.9553 49.3407 47.9523 48.8367C47.9485 48.1325 47.9496 47.4285 47.952 46.7243C47.9498 46.5157 47.9476 46.3071 47.9453 46.0921C47.9574 44.6787 47.9574 44.6787 48.419 43.9181C49.1414 43.2764 49.8419 43.2244 50.7812 43.3594Z" fill="#FFFEFE"/>
<path d="M42.5781 43.3594C43.127 43.7097 43.4589 43.949 43.75 44.5312C43.7693 44.8359 43.7764 45.1413 43.7774 45.4466C43.7791 45.7362 43.7791 45.7362 43.7808 46.0316C43.781 46.2442 43.7813 46.4567 43.7815 46.6757C43.7824 46.899 43.7834 47.1223 43.7844 47.3523C43.7873 48.0937 43.7886 48.8351 43.7897 49.5766C43.7908 50.0904 43.7919 50.6042 43.7931 51.118C43.7949 52.0586 43.7961 52.9992 43.7967 53.9398C43.7975 55.3239 43.801 56.708 43.8066 58.0921C43.8114 59.291 43.8129 60.4898 43.8132 61.6887C43.8138 62.1987 43.8154 62.7086 43.8179 63.2186C43.8213 63.9317 43.8209 64.6447 43.8196 65.3578C43.8214 65.5692 43.8232 65.7806 43.8251 65.9984C43.8151 67.7889 43.8151 67.7889 43.1641 68.5547C42.536 69.0095 41.9707 69.0517 41.2109 68.9453C40.5415 68.5415 40.0963 68.1404 39.8438 67.3828C39.8247 67.0728 39.8166 66.762 39.815 66.4514C39.8129 66.1639 39.8129 66.1639 39.8108 65.8706C39.8103 65.6605 39.8097 65.4505 39.8092 65.2341C39.8079 65.0127 39.8066 64.7913 39.8053 64.5632C39.8014 63.8292 39.7992 63.0952 39.7972 62.3611C39.7964 62.1108 39.7956 61.8604 39.7948 61.6025C39.7912 60.4146 39.7883 59.2267 39.7867 58.0388C39.7848 56.6681 39.7796 55.2975 39.7717 53.9269C39.7651 52.7392 39.7628 51.5515 39.762 50.3638C39.7611 49.8588 39.7588 49.3537 39.7552 48.8486C39.7504 48.1425 39.7506 47.4366 39.752 46.7305C39.7495 46.5213 39.747 46.312 39.7444 46.0964C39.7544 44.6787 39.7544 44.6787 40.2157 43.9177C40.9385 43.2766 41.6389 43.2244 42.5781 43.3594Z" fill="#FFFDFD"/>
<path d="M34.9281 33.1039C35.1293 33.1021 35.1293 33.1021 35.3345 33.1002C35.7838 33.0971 36.2329 33.0996 36.6821 33.102C37.0042 33.101 37.3264 33.0996 37.6485 33.0979C38.5234 33.0943 39.3982 33.0957 40.273 33.0982C41.1881 33.1002 42.1032 33.0983 43.0183 33.0971C44.5552 33.0957 46.092 33.0976 47.6288 33.1013C49.4061 33.1055 51.1834 33.1042 52.9608 33.0999C54.4862 33.0963 56.0115 33.0958 57.5369 33.0979C58.4482 33.0991 59.3595 33.0992 60.2708 33.0966C61.1275 33.0944 61.9842 33.096 62.8409 33.1005C63.1555 33.1015 63.4701 33.1012 63.7848 33.0995C64.2139 33.0974 64.6427 33.1 65.0719 33.1039C65.4322 33.1044 65.4322 33.1044 65.7999 33.1048C66.4062 33.2031 66.4062 33.2031 66.8803 33.4779C67.1875 33.9844 67.1875 33.9844 67.1875 35.9375C55.8437 35.9375 44.5 35.9375 32.8125 35.9375C32.8125 33.9844 32.8125 33.9844 33.1197 33.4779C33.7532 33.1107 34.1961 33.1048 34.9281 33.1039Z" fill="#FF445F"/>
<path d="M44.9219 27.5391C48.2734 27.5391 51.625 27.5391 55.0781 27.5391C55.0781 28.1191 55.0781 28.6992 55.0781 29.2969C51.7266 29.2969 48.375 29.2969 44.9219 29.2969C44.9219 28.7168 44.9219 28.1367 44.9219 27.5391Z" fill="#FF425E"/>
</g>
<defs>
<clipPath id="clip0_12_904">
<rect width="100" height="100" fill="white"/>
</clipPath>
</defs>
</svg>
