<svg width="100" height="100" viewBox="0 0 100 100" fill="none" xmlns="http://www.w3.org/2000/svg">
<path d="M47.3384 30.4173C47.8528 30.6647 48.3524 30.9251 48.8502 31.2042C49.0432 31.3122 49.2362 31.4202 49.435 31.5315C49.6416 31.6481 49.8482 31.7647 50.061 31.8848C50.2776 32.0065 50.4941 32.1283 50.7172 32.2537C52.5663 33.2966 54.401 34.3635 56.2324 35.437C57.464 36.1586 58.6998 36.8728 59.9365 37.5855C60.1475 37.7071 60.3585 37.8286 60.5758 37.9539C61.0035 38.2004 61.4312 38.4468 61.8589 38.6932C63.1278 39.4242 64.3961 40.1561 65.6643 40.8884C66.6556 41.4607 67.6474 42.0323 68.6405 42.6016C69.1094 42.8705 69.5782 43.1398 70.047 43.4091C70.3779 43.599 70.7091 43.7884 71.0403 43.9778C71.2407 44.0929 71.4412 44.2081 71.6476 44.3268C71.824 44.4278 72.0003 44.5288 72.182 44.6329C72.3385 44.7283 72.495 44.8236 72.6562 44.9219C72.7927 44.9992 72.9293 45.0766 73.0699 45.1563C73.4375 45.5078 73.4375 45.5078 73.5385 46.0555C73.5401 46.2796 73.5417 46.5037 73.5433 46.7345C73.5469 46.9917 73.5505 47.2488 73.5542 47.5137C73.5543 47.7993 73.5542 48.085 73.5541 48.3706C73.5567 48.6709 73.5597 48.9712 73.563 49.2715C73.5707 50.0879 73.5734 50.9042 73.5746 51.7206C73.5756 52.2307 73.5776 52.7407 73.5801 53.2507C73.5885 55.0301 73.5926 56.8094 73.593 58.5888C73.5935 60.2474 73.6034 61.9057 73.6178 63.5643C73.6297 64.9881 73.6348 66.4119 73.6347 67.8358C73.6347 68.6863 73.6375 69.5366 73.6472 70.387C73.6561 71.1873 73.6566 71.9871 73.6506 72.7874C73.6498 73.0807 73.6521 73.3741 73.6575 73.6674C73.6963 75.8843 73.6963 75.8843 73.0509 76.6015C72.6039 76.9044 72.1748 77.1311 71.6797 77.3438C71.5023 77.4503 71.3249 77.5568 71.1421 77.6665C70.993 77.7493 70.8438 77.8322 70.6901 77.9175C70.431 78.0625 70.431 78.0625 70.1665 78.2104C69.9851 78.3111 69.8036 78.4118 69.6167 78.5156C68.0294 79.4048 66.4503 80.3062 64.8804 81.2256C62.6134 82.5525 60.3391 83.8664 58.0629 85.1775C57.2136 85.6669 56.3646 86.1566 55.5158 86.6468C55.0964 86.8886 54.6767 87.1299 54.2567 87.3706C53.2624 87.9414 52.272 88.517 51.2915 89.1112C50.8276 89.3918 50.3621 89.6696 49.8963 89.9471C49.5678 90.1446 49.2418 90.3462 48.9159 90.548C48.7167 90.6663 48.5176 90.7846 48.3124 90.9065C48.1381 91.0127 47.9638 91.1188 47.7842 91.2282C47.08 91.47 46.7645 91.3162 46.0937 91.0156C45.7396 90.8335 45.3907 90.6409 45.047 90.4396C44.8478 90.3238 44.6487 90.208 44.4435 90.0887C44.2308 89.9635 44.018 89.8384 43.7988 89.7095C43.5728 89.5776 43.3467 89.4459 43.1206 89.3143C42.6512 89.041 42.1822 88.7672 41.7133 88.4931C40.6371 87.8644 39.5566 87.2431 38.4766 86.6211C38.0534 86.377 37.6302 86.1329 37.207 85.8887C36.9975 85.7678 36.7881 85.647 36.5723 85.5225C34.2448 84.1797 31.9173 82.8369 29.5898 81.4942C29.38 81.3731 29.1701 81.252 28.9539 81.1273C28.5346 80.8854 28.1154 80.6435 27.6963 80.4015C26.6992 79.8261 25.7019 79.2511 24.7038 78.6774C24.2292 78.4046 23.7547 78.1316 23.2802 77.8585C22.9428 77.6645 22.6051 77.4707 22.2675 77.277C22.0652 77.1606 21.8629 77.0441 21.6545 76.9241C21.4751 76.8211 21.2957 76.718 21.1109 76.6118C20.7031 76.3672 20.7031 76.3672 20.5078 76.1719C20.4786 75.7828 20.4631 75.3927 20.4528 75.0027C20.4457 74.7483 20.4387 74.494 20.4314 74.232C20.4246 73.9474 20.4179 73.6628 20.4112 73.3782C20.4036 73.0805 20.396 72.7829 20.3883 72.4852C20.3206 69.7582 20.2808 67.0308 20.2489 64.3032C20.2269 62.4698 20.1962 60.6373 20.1435 58.8045C20.0975 57.2052 20.0682 55.6067 20.0588 54.0068C20.0533 53.1603 20.0398 52.3157 20.0062 51.4698C19.8107 46.3375 19.8107 46.3375 20.9682 44.9599C22.084 44.049 23.3075 43.4807 24.6509 42.9827C25.3519 42.7133 25.9489 42.365 26.5854 41.9686C26.9602 41.7525 27.335 41.5366 27.71 41.3208C28.1367 41.0749 28.5634 40.829 28.9902 40.5831C29.2021 40.461 29.414 40.3389 29.6324 40.2131C30.6927 39.6022 31.7526 38.9905 32.8125 38.3789C33.2357 38.1348 33.6588 37.8906 34.082 37.6465C34.2915 37.5257 34.501 37.4048 34.7168 37.2803C35.3516 36.9141 35.9863 36.5479 36.6211 36.1817C36.8309 36.0606 37.0406 35.9396 37.2568 35.8149C37.6769 35.5725 38.0971 35.3301 38.5172 35.0877C39.5038 34.5186 40.4904 33.9494 41.4769 33.38C41.8263 33.1784 42.1757 32.9768 42.5251 32.7751C42.9635 32.5221 43.402 32.2691 43.8404 32.016C44.2279 31.7924 44.6159 31.5697 45.0046 31.3482C45.3141 31.1676 45.6204 30.9811 45.9203 30.7849C46.7661 30.2396 46.7661 30.2396 47.3384 30.4173Z" fill="#F06932"/>
<path d="M50 0.195312C50 2.77344 50 5.35156 50 8.00781C50.576 8.05212 51.1521 8.09644 51.7456 8.14209C62.0578 9.08911 71.6113 13.5287 79.2297 20.4842C79.6483 20.863 80.0749 21.2292 80.5054 21.5942C81.1324 22.1427 81.6832 22.7228 82.2205 23.3589C82.5252 23.7194 82.8341 24.0733 83.1482 24.4255C90.3799 32.5935 94.3024 43.4408 94.2261 54.3213C94.2252 54.5936 94.2252 54.5936 94.2243 54.8714C94.2022 59.4612 93.5683 63.7783 92.1875 68.1641C92.1364 68.3283 92.0853 68.4925 92.0327 68.6617C88.5292 79.745 80.5293 89.2465 70.3125 94.7266C70.1839 94.7972 70.0553 94.8677 69.9227 94.9405C66.3986 96.8655 62.5314 98.2493 58.5937 99.0234C58.3106 99.0805 58.3106 99.0805 58.0216 99.1386C55.0224 99.7172 52.0692 99.8808 49.0234 99.8901C48.8579 99.8913 48.6924 99.8925 48.5219 99.8938C45.3625 99.9086 42.257 99.5413 39.1846 98.7915C39.0179 98.751 38.8513 98.7106 38.6796 98.6689C29.5909 96.3607 21.1874 90.7953 15.4297 83.3984C15.2759 83.2089 15.122 83.0193 14.9635 82.8239C13.5849 81.0947 12.4349 79.2565 11.3281 77.3438C11.2508 77.2119 11.1735 77.0801 11.0939 76.9444C9.21277 73.7053 7.86494 70.154 6.9458 66.5283C6.90232 66.3572 6.85884 66.1861 6.81405 66.0099C6.06219 62.8301 5.74963 59.6701 5.77392 56.4087C5.77458 56.2352 5.77524 56.0616 5.77592 55.8828C5.79159 53.0192 5.96876 50.255 6.64062 47.4609C6.68673 47.2683 6.73283 47.0757 6.78034 46.8772C7.59149 43.6143 8.7046 40.1459 10.5469 37.3047C10.7422 37.6953 10.7422 37.6953 10.6395 38.0332C10.5805 38.1687 10.5215 38.3042 10.4607 38.4438C10.3955 38.5977 10.3303 38.7515 10.2632 38.9101C10.1559 39.1608 10.1559 39.1608 10.0464 39.4165C8.36638 43.481 7.22608 47.8346 7.18002 52.2522C7.1781 52.4056 7.17618 52.5589 7.1742 52.7169C7.0839 61.8013 9.18999 70.6855 14.6484 78.125C14.7613 78.2788 14.7613 78.2788 14.8764 78.4357C15.9586 79.9007 17.1023 81.2977 18.3594 82.6172C18.4654 82.7285 18.5714 82.8399 18.6807 82.9546C20.2899 84.6334 21.9234 86.1612 23.8281 87.5C23.9408 87.5802 24.0535 87.6604 24.1695 87.743C32.5812 93.6887 43.2535 96.123 53.4271 94.5259C61.2636 93.1756 68.4313 89.8668 74.2187 84.375C74.4056 84.1985 74.5924 84.022 74.7849 83.8402C79.4698 79.3325 82.7705 73.5413 84.436 67.2729C84.481 67.105 84.526 66.9371 84.5723 66.7641C85.3503 63.6681 85.6502 60.6191 85.6201 57.4341C85.6193 57.2634 85.6184 57.0927 85.6176 56.9168C85.6032 54.4385 85.5154 52.0336 84.9609 49.6094C84.9285 49.456 84.896 49.3026 84.8625 49.1446C84.0521 45.346 82.7369 41.6828 80.8594 38.2812C80.7854 38.1456 80.7114 38.01 80.6352 37.8703C76.5295 30.4109 69.581 24.2329 61.3525 21.7773C59.3899 21.214 57.4034 20.7645 55.4077 20.3369C55.2023 20.2926 55.2023 20.2926 54.9927 20.2473C54.595 20.1621 54.197 20.079 53.7987 19.9966C53.5697 19.9491 53.3408 19.9015 53.1049 19.8525C52.1423 19.6932 51.1671 19.6196 50.1953 19.5312C50.1309 21.916 50.0664 24.3008 50 26.7578C49.2084 26.4412 48.6337 26.1412 47.934 25.6783C47.725 25.5407 47.516 25.4031 47.3007 25.2614C47.0774 25.1132 46.8541 24.9651 46.6309 24.8169C46.4007 24.6651 46.1704 24.5133 45.9401 24.3617C45.4834 24.061 45.0269 23.76 44.5706 23.4588C43.7749 22.9347 42.976 22.4159 42.1753 21.8994C42.0453 21.8155 41.9153 21.7315 41.7814 21.645C41.5249 21.4793 41.2683 21.3137 41.0117 21.1481C40.3291 20.7074 39.647 20.2657 38.9648 19.8242C38.6881 19.6452 38.4115 19.4661 38.1348 19.2871C37.5814 18.929 37.028 18.571 36.4746 18.2129C36.3375 18.1242 36.2003 18.0354 36.059 17.944C35.7841 17.7661 35.5091 17.5882 35.2342 17.4102C34.5159 16.9454 33.7974 16.4807 33.0788 16.0164C32.93 15.9202 32.7812 15.824 32.6279 15.7249C32.3449 15.542 32.0618 15.3592 31.7787 15.1764C31.0124 14.681 30.2502 14.18 29.4922 13.6719C29.7367 12.9384 29.9699 12.8519 30.6168 12.4481C30.8134 12.324 31.01 12.2 31.2126 12.0721C31.5332 11.873 31.5332 11.873 31.8603 11.6699C32.1948 11.4596 32.529 11.2487 32.8631 11.0378C33.0922 10.8933 33.3214 10.7489 33.5507 10.6048C34.6802 9.89429 35.7979 9.16628 36.9141 8.43506C37.2848 8.19266 37.6556 7.9503 38.0264 7.70798C38.2017 7.59339 38.377 7.4788 38.5576 7.36074C39.6982 6.61636 40.8426 5.87779 41.9867 5.13878C42.6723 4.69575 43.3576 4.25214 44.043 3.80859C44.905 3.25074 45.7671 2.69299 46.6293 2.13547C46.7808 2.03753 46.9322 1.93959 47.0882 1.83868C47.3789 1.65071 47.6696 1.46277 47.9603 1.27487C48.0911 1.19028 48.2219 1.10568 48.3566 1.01852C48.4715 0.944236 48.5864 0.869948 48.7048 0.793409C49.6233 0.195312 49.6233 0.195312 50 0.195312Z" fill="#FF7FB4"/>
<path d="M64.3497 40.1569C64.5127 40.2469 64.6758 40.3369 64.8438 40.4297C65.0307 40.5298 65.2176 40.6299 65.4101 40.733C65.6155 40.8507 65.8208 40.9684 66.0324 41.0896C66.1446 41.1538 66.2569 41.2179 66.3725 41.284C66.7341 41.4909 67.0951 41.6988 67.4561 41.9067C67.7036 42.0488 67.9511 42.1908 68.1986 42.3329C73.051 45.1213 73.051 45.1213 73.4375 45.5078C73.4603 45.9006 73.4691 46.2941 73.4728 46.6875C73.4756 46.9441 73.4784 47.2007 73.4813 47.4651C73.4834 47.7521 73.4855 48.0392 73.4876 48.3262C73.4904 48.6265 73.4933 48.9267 73.4962 49.2269C73.5217 51.9704 73.5345 54.7139 73.5446 57.4574C73.5522 59.4862 73.5656 61.5147 73.5865 63.5434C73.6007 64.9689 73.6083 66.3943 73.6108 67.8199C73.6126 68.6717 73.6173 69.5233 73.6293 70.3751C73.6405 71.1769 73.6434 71.9783 73.6399 72.7802C73.6401 73.0742 73.6432 73.3682 73.6497 73.6622C73.6957 75.8842 73.6957 75.8842 73.0515 76.6019C72.6043 76.9049 72.1752 77.1313 71.6797 77.3437C71.5023 77.4502 71.3249 77.5567 71.1421 77.6665C70.993 77.7493 70.8438 77.8321 70.6902 77.9175C70.431 78.0624 70.431 78.0624 70.1665 78.2103C69.9851 78.3111 69.8036 78.4118 69.6167 78.5156C68.0294 79.4048 66.4503 80.3061 64.8804 81.2256C63.2517 82.1789 61.6204 83.1274 59.9854 84.0698C59.7747 84.1912 59.564 84.3127 59.347 84.4378C58.4911 84.931 57.6351 85.4241 56.7791 85.9171C56.1388 86.2859 55.4986 86.6549 54.8584 87.0239C54.6513 87.1431 54.4443 87.2623 54.231 87.3852C53.15 88.0083 52.0715 88.6353 50.9964 89.2685C50.7799 89.3957 50.5634 89.523 50.3404 89.6541C49.9261 89.8979 49.5122 90.1424 49.0989 90.3878C48.9149 90.496 48.7308 90.6043 48.5413 90.7158C48.3792 90.8117 48.2172 90.9076 48.0503 91.0064C47.6562 91.2109 47.6562 91.2109 47.2656 91.2109C47.2687 90.9781 47.2687 90.9781 47.2718 90.7405C47.3207 86.9585 47.3512 83.1766 47.3613 79.3942C47.3666 77.565 47.3781 75.7362 47.4042 73.9072C47.4271 72.3124 47.4381 70.718 47.4353 69.123C47.4342 68.2788 47.4388 67.4355 47.4575 66.5914C47.6861 63.2984 47.6861 63.2984 46.7502 60.2761C45.9891 59.5735 45.1564 59.2159 44.1724 58.9266C43.4914 58.7049 42.916 58.3474 42.2997 57.9849C41.7357 57.6765 41.1717 57.3683 40.6062 57.0627C40.2667 56.879 39.9282 56.6934 39.5897 56.5079C39.394 56.4016 39.1983 56.2954 38.9966 56.186C38.484 55.8641 38.1031 55.5228 37.6953 55.0781C40.0587 53.6873 42.4279 52.31 44.8242 50.9766C46.4301 50.0829 48.0246 49.1727 49.6094 48.2422C51.1942 47.3117 52.7887 46.4015 54.3945 45.5078C56.4249 44.3775 58.4365 43.2176 60.4408 42.0418C60.6165 41.9398 60.7921 41.8379 60.9731 41.7329C61.3683 41.4983 61.7589 41.2559 62.1463 41.0087C62.3524 40.8798 62.5585 40.7509 62.7708 40.6181C62.9573 40.4983 63.1438 40.3784 63.3359 40.2549C63.8672 40.0391 63.8672 40.0391 64.3497 40.1569Z" fill="#F88D27"/>
<path d="M47.3367 30.4164C47.8607 30.6685 48.3701 30.9342 48.8777 31.2179C49.1738 31.3833 49.1738 31.3833 49.4759 31.5519C49.7897 31.7288 49.7897 31.7288 50.1099 31.9092C50.3247 32.0301 50.5396 32.151 50.761 32.2756C52.1788 33.0769 53.5911 33.8873 54.9927 34.7168C55.1599 34.8146 55.3271 34.9123 55.4993 35.0131C55.6506 35.1036 55.8019 35.1942 55.9578 35.2875C56.0904 35.3662 56.2229 35.4449 56.3595 35.5261C56.4987 35.633 56.4987 35.633 56.6406 35.7422C56.6406 35.8711 56.6406 36 56.6406 36.1328C56.4995 36.2131 56.3584 36.2935 56.213 36.3763C55.5416 36.7587 54.8703 37.1415 54.1992 37.5244C54.0757 37.5949 53.9521 37.6654 53.8248 37.738C52.1414 38.699 50.4635 39.6686 48.7915 40.6494C47.0168 41.6898 45.227 42.7003 43.4295 43.7008C42.0212 44.4866 40.6245 45.2902 39.2334 46.1059C37.6654 47.0255 36.0919 47.934 34.5093 48.8281C34.3311 48.9288 34.153 49.0296 33.9694 49.1333C33.6266 49.3265 33.2825 49.5173 32.937 49.7056C32.4095 49.998 32.4095 49.998 31.8847 50.3664C30.564 51.2223 30.564 51.2223 29.7739 51.0852C29.2358 50.8422 28.7643 50.5569 28.2715 50.2319C27.8984 50.0068 27.5254 49.7817 27.1523 49.5567C26.9608 49.437 26.7694 49.3172 26.5721 49.1939C25.5752 48.5817 24.5468 48.0264 23.5229 47.4609C21.3646 46.2614 21.3646 46.2614 20.5078 45.5078C23.5434 43.7325 26.5852 41.9684 29.6324 40.2131C30.6927 39.6022 31.7526 38.9905 32.8125 38.3789C33.2357 38.1348 33.6589 37.8906 34.082 37.6465C34.2915 37.5256 34.501 37.4048 34.7168 37.2803C35.3516 36.9141 35.9863 36.5478 36.6211 36.1816C36.8309 36.0606 37.0406 35.9396 37.2568 35.8149C37.6769 35.5725 38.0971 35.3301 38.5172 35.0877C39.5038 34.5185 40.4904 33.9493 41.4769 33.38C41.8263 33.1784 42.1757 32.9767 42.5251 32.7751C42.9636 32.5221 43.402 32.269 43.8404 32.016C44.2279 31.7924 44.6159 31.5697 45.0046 31.3481C45.3141 31.1676 45.6204 30.981 45.9203 30.7849C46.766 30.2397 46.766 30.2397 47.3367 30.4164Z" fill="#FDC133"/>
<path d="M64.3379 40.1626C64.9081 40.4637 65.4729 40.769 66.0324 41.0896C66.1446 41.1538 66.2569 41.2179 66.3725 41.2839C66.7341 41.4908 67.0951 41.6987 67.4561 41.9067C67.5784 41.9771 67.7007 42.0475 67.8267 42.12C68.4358 42.4705 69.0445 42.8216 69.6527 43.1736C70.2088 43.4948 70.7662 43.8136 71.3242 44.1315C71.5893 44.2849 71.8543 44.4385 72.1191 44.5923C72.453 44.7845 72.453 44.7845 72.7936 44.9806C72.9416 45.0902 73.0897 45.1997 73.2422 45.3125C73.2422 45.5059 73.2422 45.6992 73.2422 45.8984C72.8894 46.1726 72.8894 46.1726 72.3885 46.4577C72.2021 46.5651 72.0158 46.6724 71.8239 46.7831C71.6192 46.898 71.4145 47.0129 71.2036 47.1314C70.9926 47.2521 70.7816 47.3728 70.5643 47.4972C69.8959 47.8785 69.2257 48.2562 68.5547 48.6328C68.245 48.8067 68.245 48.8067 67.929 48.9841C67.12 49.4375 66.3106 49.8902 65.5003 50.3413C64.0996 51.1224 62.7111 51.9223 61.3281 52.7344C59.5435 53.7823 57.7441 54.8004 55.9357 55.8067C54.2736 56.7339 52.6276 57.6869 50.9869 58.6514C50.6303 58.8608 50.2731 59.0693 49.9153 59.2767C49.5844 59.4705 49.2562 59.669 48.9311 59.8724C48.7049 60.0095 48.7049 60.0095 48.4741 60.1494C48.2789 60.2717 48.2789 60.2717 48.0797 60.3965C47.3113 60.6693 46.6812 60.4416 45.962 60.1125C45.7872 60.0126 45.6124 59.9128 45.4323 59.8099C45.1356 59.6421 45.1356 59.6421 44.8329 59.471C44.6246 59.3507 44.4163 59.2304 44.2017 59.1065C43.9872 58.984 43.7727 58.8616 43.5517 58.7354C43.1133 58.4849 42.6753 58.2336 42.2377 57.9816C41.6461 57.6427 41.0517 57.3096 40.4556 56.9786C40.1173 56.7887 39.7791 56.5988 39.4409 56.4087C39.283 56.3219 39.1251 56.235 38.9624 56.1456C38.5952 55.9365 38.2411 55.7048 37.8906 55.4688C37.8906 55.2754 37.8906 55.082 37.8906 54.8828C38.0258 54.8084 38.161 54.734 38.3003 54.6573C40.9211 53.2127 43.5287 51.7515 46.1086 50.2349C47.4937 49.4225 48.8899 48.6323 50.293 47.8516C52.1024 46.8445 53.8958 45.8132 55.6817 44.7651C57.2396 43.8522 58.8084 42.9601 60.3837 42.0776C60.5559 41.9809 60.7281 41.8843 60.9055 41.7847C61.1557 41.6453 61.1557 41.6453 61.4111 41.5032C61.761 41.2999 62.1047 41.0858 62.443 40.8638C62.6134 40.7528 62.7837 40.6417 62.9593 40.5274C63.1105 40.4246 63.2617 40.3219 63.4175 40.2161C63.8672 40.0391 63.8672 40.0391 64.3379 40.1626Z" fill="#FDC133"/>
<path d="M57.8125 36.3281C58.1818 36.5211 58.5458 36.7246 58.9043 36.937C59.1058 37.0555 59.3074 37.1741 59.515 37.2963C59.8264 37.4817 59.8264 37.4817 60.144 37.6709C60.5568 37.9146 60.9695 38.1582 61.3823 38.4018C61.5751 38.516 61.7679 38.6303 61.9666 38.748C62.5967 39.1195 63.2307 39.4834 63.8672 39.8438C63.6417 40.5203 63.5642 40.546 62.9631 40.8608C62.7361 40.9821 62.7361 40.9821 62.5044 41.1059C62.3378 41.1929 62.1712 41.28 61.9995 41.3696C61.6396 41.5624 61.28 41.7557 60.9207 41.9495C60.7312 42.0517 60.5417 42.1539 60.3464 42.2592C59.3805 42.7896 58.4322 43.3494 57.4829 43.9087C55.8779 44.8518 54.2634 45.7746 52.6367 46.6797C50.8354 47.6821 49.0508 48.7097 47.2733 49.7537C45.655 50.7017 44.0216 51.6209 42.3801 52.528C41.9998 52.7391 41.6224 52.9554 41.2479 53.1767C40.7719 53.4357 40.3392 53.6311 39.8377 53.823C38.9992 54.1762 38.2491 54.529 37.6953 55.2734C37.1911 56.7678 37.3575 58.4212 37.4146 59.9732C37.4198 60.4074 37.4238 60.8416 37.4264 61.2759C37.4356 62.3357 37.4613 63.394 37.5 64.4531C35.1217 63.211 32.7928 61.8874 30.4688 60.5469C29.7159 52.3142 29.7159 52.3142 30.8501 50.299C31.8787 49.3124 33.1448 48.8918 34.4855 48.4738C35.6042 48.0875 36.5826 47.4752 37.5977 46.875C38.0055 46.6464 38.414 46.4188 38.8229 46.1922C40.2234 45.4079 41.608 44.5973 42.9924 43.7851C44.3122 43.0119 45.6394 42.2534 46.9727 41.5039C48.5475 40.6184 50.1126 39.7179 51.6724 38.8062C51.869 38.6919 52.0656 38.5776 52.2681 38.4598C53.1073 37.9713 53.9435 37.4804 54.7676 36.9667C54.8927 36.8904 55.0178 36.814 55.1467 36.7354C55.4638 36.5414 55.7785 36.3434 56.0928 36.145C56.8213 35.8691 57.0978 36.0441 57.8125 36.3281Z" fill="#816CB4"/>
<path d="M30.4688 51.3672C31.3201 51.651 31.9337 51.8907 32.6897 52.3239C32.8824 52.4337 33.0751 52.5435 33.2737 52.6566C33.472 52.7709 33.6702 52.8852 33.8745 53.0029C34.072 53.1157 34.2695 53.2285 34.473 53.3447C34.8436 53.5565 35.2139 53.7686 35.5838 53.9813C36.2219 54.3481 36.861 54.713 37.5 55.0781C37.5 58.1719 37.5 61.2656 37.5 64.4531C35.7638 63.5272 34.0392 62.6033 32.3364 61.6211C31.7201 61.2666 31.1038 60.9121 30.4688 60.5469C30.4688 57.5176 30.4688 54.4883 30.4688 51.3672Z" fill="#6A478C"/>
</svg>
