<svg width="100" height="100" viewBox="0 0 100 100" fill="none" xmlns="http://www.w3.org/2000/svg">
<g clip-path="url(#clip0_12_914)">
<path d="M54.9927 3.44239C55.9154 4.3415 56.293 4.88198 56.3387 6.17934C56.3386 6.61948 56.3342 7.05963 56.3263 7.4997C56.3252 7.73214 56.3241 7.96458 56.3229 8.20407C56.3186 8.9444 56.3088 9.68454 56.2988 10.4248C56.2949 10.9276 56.2913 11.4304 56.2881 11.9331C56.2795 13.1638 56.2665 14.3944 56.25 15.625C56.4643 15.6243 56.6787 15.6236 56.8995 15.6228C62.1124 15.6055 67.3253 15.5926 72.5382 15.5845C75.0591 15.5805 77.58 15.575 80.1009 15.5661C82.2979 15.5583 84.4949 15.5532 86.6919 15.5515C87.8554 15.5505 89.0189 15.5481 90.1824 15.5424C91.2773 15.5371 92.3721 15.5355 93.4671 15.5366C93.8691 15.5364 94.2711 15.5349 94.6731 15.5319C95.2219 15.528 95.7704 15.5289 96.3192 15.5311C96.4784 15.5288 96.6376 15.5265 96.8017 15.5242C97.8258 15.5349 98.4191 15.711 99.2188 16.4063C100.27 17.4916 100.109 18.752 100.099 20.1729C100.1 20.4405 100.101 20.7082 100.103 20.9758C100.106 21.7103 100.105 22.4446 100.102 23.1791C100.1 23.9715 100.103 24.7639 100.105 25.5564C100.109 27.1084 100.108 28.6603 100.106 30.2123C100.104 31.4736 100.104 32.7348 100.105 33.9961C100.105 34.1756 100.105 34.355 100.105 34.54C100.105 34.9045 100.105 35.2691 100.106 35.6337C100.108 39.0528 100.105 42.472 100.101 45.8911C100.098 48.8253 100.098 51.7594 100.102 54.6936C100.106 58.1005 100.108 61.5073 100.105 64.9142C100.105 65.2774 100.105 65.6407 100.105 66.0039C100.104 66.1826 100.104 66.3613 100.104 66.5455C100.103 67.8053 100.105 69.0652 100.106 70.325C100.109 71.8602 100.108 73.3954 100.104 74.9306C100.102 75.7139 100.101 76.4973 100.104 77.2806C100.106 77.9977 100.105 78.7147 100.101 79.4318C100.099 79.8142 100.102 80.1965 100.104 80.5789C100.085 82.6987 100.086 82.6987 99.2188 83.5938C98.2648 84.4231 97.525 84.4862 96.3192 84.469C96.1475 84.4696 95.9758 84.4703 95.7989 84.471C95.2249 84.4723 94.651 84.468 94.077 84.4637C93.6651 84.4635 93.2531 84.4636 92.8411 84.464C91.7234 84.4643 90.6058 84.4597 89.488 84.4542C88.3197 84.4493 87.1514 84.4489 85.9831 84.4479C83.771 84.4455 81.559 84.4391 79.3469 84.4313C76.8284 84.4225 74.3099 84.4182 71.7914 84.4143C66.6109 84.4062 61.4305 84.3924 56.25 84.375C56.2517 84.5045 56.2535 84.6341 56.2553 84.7675C56.2726 86.1172 56.2843 87.4669 56.2929 88.8167C56.2968 89.3203 56.3022 89.8238 56.3089 90.3274C56.3184 91.0517 56.3228 91.7759 56.3263 92.5003C56.3303 92.725 56.3344 92.9496 56.3385 93.1811C56.3389 94.4122 56.3037 95.1624 55.4688 96.0938C54.7758 96.769 54.2201 96.9274 53.2818 96.9469C51.1551 96.9163 49.0736 96.4373 46.9911 96.0416C46.51 95.952 46.0288 95.8625 45.5476 95.7732C44.3815 95.5562 43.2158 95.3371 42.0502 95.1169C40.6912 94.8604 39.3318 94.6061 37.9724 94.3519C35.5467 93.8983 33.1214 93.4424 30.6963 92.9852C28.3456 92.5421 25.9945 92.1008 23.6431 91.6615C21.0781 91.1823 18.5132 90.7021 15.9487 90.2201C15.6751 90.1687 15.4016 90.1173 15.128 90.0659C14.9935 90.0406 14.8589 90.0153 14.7203 89.9892C13.7737 89.8114 12.827 89.6342 11.8803 89.4573C10.6061 89.2192 9.33232 88.9793 8.05873 88.7383C7.59138 88.6501 7.12394 88.5625 6.65639 88.4754C6.01824 88.3565 5.3805 88.2357 4.74282 88.1143C4.46527 88.0633 4.46527 88.0633 4.18211 88.0112C2.63488 87.7129 1.46428 87.3599 0.390623 86.1328C-0.0655825 85.4485 -0.049363 85.1775 -0.0507971 84.3683C-0.0521771 84.1203 -0.0535536 83.8724 -0.0549754 83.6169C-0.0545357 83.3401 -0.0540567 83.0634 -0.0535449 82.7866C-0.0544141 82.4938 -0.0554519 82.2011 -0.0566443 81.9083C-0.0594214 81.1017 -0.0597402 80.2951 -0.0596544 79.4884C-0.0599756 78.6193 -0.0625248 77.7501 -0.0647685 76.881C-0.0692364 74.9795 -0.0707791 73.0781 -0.071766 71.1766C-0.0724016 69.9897 -0.0736806 68.8028 -0.075092 67.616C-0.0789142 64.331 -0.0821123 61.0461 -0.0826797 57.7612C-0.0827163 57.5509 -0.0827552 57.3405 -0.0827929 57.1238C-0.0828644 56.6974 -0.0829369 56.2711 -0.0830075 55.8447C-0.0830432 55.633 -0.083078 55.4213 -0.0831148 55.2033C-0.08315 54.9913 -0.0831857 54.7794 -0.0832221 54.5611C-0.0839139 51.1267 -0.0891941 47.6923 -0.096496 44.2579C-0.10393 40.7334 -0.107714 37.209 -0.107773 33.6845C-0.107887 31.705 -0.109552 29.7255 -0.115194 27.746C-0.119976 26.0605 -0.121409 24.375 -0.118466 22.6895C-0.117064 21.8293 -0.117246 20.9693 -0.121673 20.1091C-0.125688 19.3216 -0.125188 18.5343 -0.121107 17.7468C-0.120423 17.462 -0.121391 17.1771 -0.124176 16.8923C-0.146045 14.502 -0.146045 14.502 0.434748 13.6274C1.23376 12.8289 1.87735 12.4637 2.98271 12.2572C3.18821 12.2178 3.39371 12.1784 3.60544 12.1378C3.83073 12.0966 4.05603 12.0555 4.28815 12.0131C4.65032 11.9445 4.65032 11.9445 5.0198 11.8746C5.69348 11.747 6.36759 11.6219 7.04178 11.4972C7.77453 11.3611 8.50685 11.2229 9.23922 11.0848C10.3646 10.8729 11.4901 10.6617 12.6158 10.4513C14.9812 10.0093 17.3456 9.56166 19.7097 9.11284C23.2987 8.43168 26.8883 7.75394 30.4785 7.07878C32.5497 6.68922 34.6207 6.29875 36.6913 5.90616C38.5382 5.55598 40.3855 5.20742 42.2331 4.86083C43.1994 4.67951 44.1655 4.49743 45.1313 4.31339C46.0296 4.14222 46.9284 3.97325 47.8274 3.80591C48.1544 3.74467 48.4812 3.68265 48.8079 3.61977C53.4325 2.73073 53.4325 2.73073 54.9927 3.44239Z" fill="#2E7D32"/>
<path d="M56.25 15.625C61.6794 15.6074 67.1088 15.593 72.5382 15.5845C75.0591 15.5805 77.58 15.575 80.1009 15.5661C82.2979 15.5583 84.4949 15.5532 86.6919 15.5515C87.8554 15.5505 89.0189 15.5481 90.1824 15.5424C91.2773 15.5371 92.3722 15.5355 93.4671 15.5366C93.8691 15.5364 94.2711 15.5349 94.6731 15.5319C95.2219 15.528 95.7704 15.5289 96.3192 15.5311C96.4784 15.5288 96.6376 15.5265 96.8017 15.5242C97.8259 15.5349 98.4191 15.711 99.2188 16.4062C100.27 17.4916 100.109 18.7519 100.099 20.1729C100.1 20.4405 100.101 20.7082 100.103 20.9758C100.106 21.7102 100.105 22.4446 100.102 23.179C100.1 23.9715 100.103 24.7639 100.105 25.5564C100.109 27.1084 100.108 28.6603 100.106 30.2123C100.104 31.4736 100.104 32.7348 100.105 33.9961C100.105 34.1756 100.105 34.355 100.105 34.5399C100.105 34.9045 100.105 35.2691 100.106 35.6337C100.108 39.0528 100.105 42.472 100.101 45.8911C100.098 48.8253 100.098 51.7594 100.102 54.6936C100.106 58.1005 100.108 61.5073 100.105 64.9142C100.105 65.2774 100.105 65.6407 100.105 66.0039C100.104 66.272 100.104 66.272 100.104 66.5455C100.104 67.8053 100.105 69.0652 100.106 70.325C100.109 71.8602 100.108 73.3954 100.104 74.9306C100.102 75.7139 100.101 76.4973 100.104 77.2806C100.106 77.9977 100.105 78.7147 100.101 79.4318C100.099 79.8142 100.102 80.1965 100.104 80.5789C100.086 82.6987 100.086 82.6987 99.2188 83.5937C98.2648 84.4231 97.525 84.4862 96.3192 84.4689C96.1475 84.4696 95.9758 84.4703 95.7989 84.471C95.2249 84.4723 94.651 84.468 94.077 84.4637C93.6651 84.4635 93.2531 84.4636 92.8411 84.464C91.7234 84.4643 90.6058 84.4597 89.4881 84.4542C88.3197 84.4493 87.1514 84.4489 85.9831 84.4479C83.771 84.4455 81.559 84.4391 79.3469 84.4313C76.8284 84.4225 74.3099 84.4182 71.7914 84.4143C66.6109 84.4061 61.4305 84.3918 56.25 84.375C56.25 80.25 56.25 76.125 56.25 71.875C61.2549 71.814 61.2549 71.814 62.8293 71.7992C63.2429 71.7929 63.6565 71.7864 64.0701 71.7796C64.3901 71.7778 64.3901 71.7778 64.7165 71.7759C65.809 71.7553 66.644 71.7268 67.5781 71.0937C68.3842 70.2223 68.6164 69.5649 68.5967 68.3708C68.5042 67.4846 68.1206 66.9373 67.4805 66.3452C66.7743 65.8686 66.2394 65.7943 65.4074 65.7802C65.2041 65.7763 65.0008 65.7724 64.7914 65.7684C64.5723 65.7651 64.3531 65.7619 64.1274 65.7585C63.7905 65.7524 63.7905 65.7524 63.4467 65.7462C62.7283 65.7334 62.0099 65.7219 61.2915 65.7104C60.8049 65.702 60.3182 65.6935 59.8316 65.6849C58.6378 65.6638 57.4439 65.6444 56.25 65.625C56.25 63.5625 56.25 61.5 56.25 59.375C56.9696 59.3677 57.6891 59.3604 58.4305 59.3529C59.1286 59.3438 59.8267 59.3338 60.5248 59.3237C61.0094 59.3173 61.494 59.3118 61.9786 59.3073C62.6759 59.3008 63.373 59.2906 64.0701 59.2796C64.2862 59.2784 64.5023 59.2771 64.725 59.2759C65.8145 59.2551 66.6466 59.225 67.5781 58.5937C68.3842 57.7223 68.6164 57.0649 68.5967 55.8708C68.5042 54.9846 68.1206 54.4373 67.4805 53.8452C66.7743 53.3686 66.2394 53.2943 65.4074 53.2802C65.2041 53.2763 65.0008 53.2724 64.7914 53.2684C64.5723 53.2651 64.3531 53.2619 64.1274 53.2585C63.7905 53.2524 63.7905 53.2524 63.4467 53.2462C62.7283 53.2334 62.0099 53.2219 61.2915 53.2104C60.8049 53.202 60.3182 53.1935 59.8316 53.1849C58.6378 53.1638 57.4439 53.1444 56.25 53.125C56.25 51.0625 56.25 49 56.25 46.875C56.9696 46.8677 57.6891 46.8604 58.4305 46.8529C59.1286 46.8438 59.8267 46.8338 60.5248 46.8237C61.0094 46.8173 61.494 46.8118 61.9786 46.8073C62.6759 46.8008 63.373 46.7906 64.0701 46.7796C64.2862 46.7784 64.5023 46.7771 64.725 46.7759C65.8145 46.7551 66.6466 46.725 67.5781 46.0937C68.3842 45.2223 68.6164 44.5649 68.5967 43.3708C68.5042 42.4846 68.1206 41.9373 67.4805 41.3452C66.7743 40.8686 66.2394 40.7943 65.4074 40.7802C65.2041 40.7763 65.0008 40.7724 64.7914 40.7684C64.5723 40.7651 64.3531 40.7619 64.1274 40.7585C63.7905 40.7524 63.7905 40.7524 63.4467 40.7462C62.7283 40.7334 62.0099 40.7219 61.2915 40.7104C60.8049 40.702 60.3182 40.6935 59.8316 40.6849C58.6378 40.6638 57.4439 40.6444 56.25 40.625C56.25 38.5625 56.25 36.5 56.25 34.375C56.9696 34.3677 57.6891 34.3604 58.4305 34.3529C59.1286 34.3438 59.8267 34.3338 60.5248 34.3237C61.0094 34.3173 61.494 34.3118 61.9786 34.3073C62.6759 34.3008 63.373 34.2906 64.0701 34.2796C64.2862 34.2784 64.5023 34.2771 64.725 34.2759C65.8145 34.2551 66.6466 34.225 67.5781 33.5937C68.3842 32.7223 68.6164 32.0649 68.5967 30.8708C68.5042 29.9846 68.1206 29.4373 67.4805 28.8452C66.7743 28.3686 66.2394 28.2943 65.4074 28.2802C65.2013 28.2763 64.9952 28.2723 64.7828 28.2683C64.5665 28.265 64.3502 28.2618 64.1274 28.2585C63.8288 28.253 63.8288 28.253 63.5241 28.2475C62.7799 28.2341 62.0357 28.2224 61.2915 28.2104C59.6278 28.1823 57.9641 28.1541 56.25 28.125C56.25 24 56.25 19.875 56.25 15.625Z" fill="#EBEEF0"/>
<path d="M41.4062 31.25C42.419 31.6974 43.2739 32.2931 43.689 33.3496C43.8527 34.5282 43.9242 35.205 43.2373 36.2061C42.9566 36.5754 42.671 36.9411 42.3828 37.3047C42.1813 37.5654 41.9802 37.8263 41.7793 38.0875C41.1938 38.8463 40.6036 39.6014 40.0123 40.3557C39.4333 41.095 38.8574 41.8366 38.2812 42.5781C38.0559 42.8678 37.8306 43.1575 37.6053 43.4471C37.1239 44.066 36.6428 44.685 36.1618 45.3041C36.0384 45.4629 35.9151 45.6216 35.788 45.7851C35.5524 46.0882 35.3169 46.3914 35.0815 46.6946C34.9747 46.8319 34.868 46.9692 34.758 47.1108C34.6091 47.304 34.6091 47.304 34.4572 47.5011C34.2153 47.8066 33.9583 48.1 33.699 48.391C33.363 48.7933 33.363 48.7933 33.3923 49.218C33.6741 49.7655 34.0476 50.1528 34.4727 50.5981C35.1453 51.3141 35.7874 52.0396 36.4014 52.8076C37.0633 53.6285 37.7563 54.4067 38.4766 55.1758C39.3539 56.1128 40.1796 57.0766 40.9828 58.0788C41.557 58.7771 42.1675 59.4389 42.7841 60.0998C43.556 61.0081 43.8619 61.6545 43.8187 62.8365C43.669 63.8059 43.1852 64.4478 42.4683 65.1123C41.6582 65.6523 40.7975 65.7994 39.8438 65.625C38.7969 65.1196 38.0919 64.5261 37.3291 63.6597C37.1775 63.4916 37.1775 63.4916 37.0228 63.3202C36.2636 62.4719 35.5451 61.5934 34.8328 60.7056C34.2163 59.9658 33.5601 59.2671 32.9013 58.5651C32.1175 57.7249 31.3955 56.8523 30.69 55.9448C30.202 55.3871 29.6805 54.954 29.1016 54.4922C28.0236 55.7514 26.9885 57.0305 26.001 58.3618C25.0287 59.6723 24.0261 60.9538 22.9988 62.2215C22.6628 62.6364 22.337 63.0544 22.0146 63.4804C21.1822 64.5758 20.5186 65.4247 19.1101 65.7105C18.2262 65.7831 17.6518 65.6261 16.9189 65.1245C15.989 64.3335 15.6987 63.5353 15.5029 62.3413C15.5637 61.1984 16.3073 60.4344 16.9922 59.5703C17.1937 59.3096 17.3948 59.0487 17.5957 58.7875C18.1803 58.0298 18.7697 57.2759 19.3602 56.5228C19.7198 56.0633 20.0782 55.603 20.4361 55.1422C20.5514 54.9938 20.6666 54.8454 20.7854 54.6926C21.0139 54.3981 21.2422 54.1036 21.4704 53.8089C22.0103 53.1129 22.5541 52.4211 23.1102 51.738C23.211 51.6132 23.3118 51.4883 23.4156 51.3598C23.6037 51.1274 23.7933 50.8963 23.9847 50.6666C24.4861 50.0448 24.6094 49.8556 24.6094 49.0234C24.299 48.6331 23.9934 48.29 23.645 47.937C23.4452 47.7274 23.2458 47.5173 23.0469 47.3068C22.9472 47.2015 22.8475 47.0962 22.7448 46.9877C22.3396 46.548 21.967 46.085 21.5942 45.6177C20.9368 44.8003 20.2476 44.0268 19.5312 43.2617C15.5218 38.9721 15.5218 38.9721 15.5441 36.9522C15.7345 35.9429 16.497 35.2203 17.2485 34.5703C18.0115 34.2864 18.7308 34.2147 19.5312 34.375C20.5788 34.8796 21.2829 35.4737 22.0459 36.3403C22.147 36.4524 22.2481 36.5644 22.3522 36.6798C23.1108 37.5275 23.8286 38.4053 24.5407 39.2921C25.0728 39.9311 25.6299 40.5414 26.1963 41.1499C26.2961 41.2571 26.3958 41.3643 26.4986 41.4748C26.6915 41.6819 26.8844 41.8889 27.0773 42.096C27.4465 42.4935 27.812 42.894 28.1738 43.2983C28.2796 43.4159 28.3853 43.5335 28.4943 43.6546C28.7109 43.9453 28.7109 43.9453 28.7109 44.3359C28.8398 44.3359 28.9688 44.3359 29.1016 44.3359C29.1564 44.2206 29.2111 44.1052 29.2676 43.9864C29.4736 43.5903 29.6932 43.254 29.9606 42.8978C30.0531 42.7744 30.1455 42.651 30.2407 42.5238C30.3401 42.3927 30.4396 42.2616 30.542 42.1265C30.6975 41.9202 30.6975 41.9202 30.8562 41.7097C31.6622 40.6461 32.4898 39.601 33.3273 38.5622C33.951 37.7883 34.5643 37.0076 35.1685 36.2183C35.3251 36.0146 35.4817 35.8109 35.643 35.601C35.8981 35.2687 36.1519 34.9356 36.4038 34.6009C36.6821 34.2313 36.9627 33.8637 37.2437 33.4961C37.3271 33.3837 37.4106 33.2712 37.4966 33.1554C38.5278 31.8156 39.6484 30.8701 41.4062 31.25Z" fill="#F8F8F8"/>
<path d="M56.25 65.625C57.6715 65.607 59.0926 65.5915 60.5141 65.5821C60.9974 65.5782 61.4807 65.5728 61.9639 65.5661C62.6596 65.5566 63.3553 65.5521 64.0511 65.5487C64.2662 65.5447 64.4813 65.5406 64.7029 65.5365C65.9711 65.5361 66.7441 65.6468 67.7734 66.4062C68.5807 67.2772 68.8131 67.9345 68.7912 69.1299C68.6963 70.0543 68.2583 70.6602 67.5781 71.2524C66.8168 71.8076 66.3239 71.8994 65.4074 71.8972C65.2041 71.8972 65.0008 71.8971 64.7914 71.8971C64.5723 71.8961 64.3531 71.8951 64.1273 71.8941C63.7905 71.8937 63.7905 71.8937 63.4467 71.8932C62.7283 71.8921 62.0099 71.8897 61.2915 71.8872C60.8049 71.8862 60.3182 71.8853 59.8316 71.8845C58.6377 71.8825 57.4439 71.8787 56.25 71.875C56.25 69.8125 56.25 67.75 56.25 65.625Z" fill="#388E3C"/>
<path d="M56.25 53.125C57.6715 53.107 59.0926 53.0915 60.5141 53.0821C60.9974 53.0782 61.4807 53.0728 61.9639 53.0661C62.6596 53.0566 63.3553 53.0521 64.0511 53.0487C64.2662 53.0447 64.4813 53.0406 64.7029 53.0365C65.9711 53.0361 66.7441 53.1468 67.7734 53.9062C68.5807 54.7772 68.8131 55.4345 68.7912 56.6299C68.6963 57.5543 68.2583 58.1602 67.5781 58.7524C66.8168 59.3076 66.3239 59.3994 65.4074 59.3972C65.2041 59.3972 65.0008 59.3971 64.7914 59.3971C64.5723 59.3961 64.3531 59.3951 64.1273 59.3941C63.7905 59.3937 63.7905 59.3937 63.4467 59.3932C62.7283 59.3921 62.0099 59.3897 61.2915 59.3872C60.8049 59.3862 60.3182 59.3853 59.8316 59.3845C58.6377 59.3825 57.4439 59.3787 56.25 59.375C56.25 57.3125 56.25 55.25 56.25 53.125Z" fill="#388E3C"/>
<path d="M56.25 40.625C57.6715 40.607 59.0926 40.5915 60.5141 40.5821C60.9974 40.5782 61.4807 40.5728 61.9639 40.5661C62.6596 40.5566 63.3553 40.5521 64.0511 40.5487C64.2662 40.5447 64.4813 40.5406 64.7029 40.5365C65.9711 40.5361 66.7441 40.6468 67.7734 41.4062C68.5807 42.2772 68.8131 42.9345 68.7912 44.1299C68.6963 45.0543 68.2583 45.6602 67.5781 46.2524C66.8168 46.8076 66.3239 46.8994 65.4074 46.8972C65.2041 46.8972 65.0008 46.8971 64.7914 46.8971C64.5723 46.8961 64.3531 46.8951 64.1273 46.8941C63.7905 46.8937 63.7905 46.8937 63.4467 46.8932C62.7283 46.8921 62.0099 46.8897 61.2915 46.8872C60.8049 46.8862 60.3182 46.8853 59.8316 46.8845C58.6377 46.8825 57.4439 46.8787 56.25 46.875C56.25 44.8125 56.25 42.75 56.25 40.625Z" fill="#388E3C"/>
<path d="M56.25 28.125C57.6715 28.107 59.0926 28.0915 60.5141 28.0821C60.9974 28.0782 61.4807 28.0728 61.9639 28.0661C62.6596 28.0566 63.3553 28.0521 64.0511 28.0487C64.2662 28.0447 64.4813 28.0406 64.7029 28.0365C65.9711 28.0361 66.7441 28.1468 67.7734 28.9062C68.5807 29.7772 68.8131 30.4345 68.7912 31.6299C68.6963 32.5543 68.2583 33.1602 67.5781 33.7524C66.8168 34.3076 66.3239 34.3994 65.4074 34.3972C65.2041 34.3972 65.0008 34.3971 64.7914 34.3971C64.5723 34.3961 64.3531 34.3951 64.1273 34.3941C63.7905 34.3937 63.7905 34.3937 63.4467 34.3932C62.7283 34.3921 62.0099 34.3897 61.2915 34.3872C60.8049 34.3862 60.3182 34.3853 59.8316 34.3845C58.6377 34.3825 57.4439 34.3787 56.25 34.375C56.25 32.3125 56.25 30.25 56.25 28.125Z" fill="#388E3C"/>
<path d="M79.0619 65.5785C79.2312 65.5769 79.4006 65.5753 79.575 65.5737C79.9336 65.571 80.2922 65.5689 80.6507 65.5674C81.1964 65.564 81.7419 65.5554 82.2876 65.5468C82.6365 65.5448 82.9854 65.5432 83.3344 65.5418C83.5773 65.5367 83.5773 65.5367 83.8252 65.5315C84.9516 65.5356 85.5958 65.7606 86.5234 66.4063C87.3307 67.2772 87.5631 67.9345 87.5412 69.1299C87.4463 70.0543 87.0083 70.6602 86.3281 71.2524C85.3817 71.9425 84.5604 71.909 83.4313 71.9147C83.1766 71.9163 83.1766 71.9163 82.9167 71.918C82.5573 71.9199 82.1979 71.9212 81.8386 71.9219C81.2907 71.9238 80.743 71.9299 80.1952 71.936C79.8457 71.9373 79.4961 71.9383 79.1466 71.9391C78.9021 71.9427 78.9021 71.9427 78.6526 71.9464C77.5444 71.9422 76.7012 71.7719 75.8507 70.9961C75.0776 70.0032 74.8717 69.2184 75 67.9688C75.363 66.9402 75.8991 66.4465 76.7578 65.8203C77.5249 65.5646 78.2618 65.5855 79.0619 65.5785Z" fill="#398E3D"/>
<path d="M79.0619 53.0785C79.2312 53.0769 79.4006 53.0753 79.575 53.0737C79.9336 53.071 80.2922 53.0689 80.6507 53.0674C81.1964 53.064 81.7419 53.0554 82.2876 53.0468C82.6365 53.0448 82.9854 53.0432 83.3344 53.0418C83.5773 53.0367 83.5773 53.0367 83.8252 53.0315C84.9516 53.0356 85.5958 53.2606 86.5234 53.9063C87.3307 54.7772 87.5631 55.4345 87.5412 56.6299C87.4463 57.5543 87.0083 58.1602 86.3281 58.7524C85.3817 59.4425 84.5604 59.409 83.4313 59.4147C83.1766 59.4163 83.1766 59.4163 82.9167 59.418C82.5573 59.4199 82.1979 59.4212 81.8386 59.4219C81.2907 59.4238 80.743 59.4299 80.1952 59.436C79.8457 59.4373 79.4961 59.4383 79.1466 59.4391C78.9021 59.4427 78.9021 59.4427 78.6526 59.4464C77.5444 59.4422 76.7012 59.2719 75.8507 58.4961C75.0776 57.5032 74.8717 56.7184 75 55.4688C75.363 54.4402 75.8991 53.9465 76.7578 53.3203C77.5249 53.0646 78.2618 53.0855 79.0619 53.0785Z" fill="#398E3D"/>
<path d="M79.0619 40.5785C79.2312 40.5769 79.4006 40.5753 79.575 40.5737C79.9336 40.571 80.2922 40.5689 80.6507 40.5674C81.1964 40.564 81.7419 40.5554 82.2876 40.5468C82.6365 40.5448 82.9854 40.5432 83.3344 40.5418C83.5773 40.5367 83.5773 40.5367 83.8252 40.5315C84.9516 40.5356 85.5958 40.7606 86.5234 41.4063C87.3307 42.2772 87.5631 42.9345 87.5412 44.1299C87.4463 45.0543 87.0083 45.6602 86.3281 46.2524C85.3817 46.9425 84.5604 46.909 83.4313 46.9147C83.1766 46.9163 83.1766 46.9163 82.9167 46.918C82.5573 46.9199 82.1979 46.9212 81.8386 46.9219C81.2907 46.9238 80.743 46.9299 80.1952 46.936C79.8457 46.9373 79.4961 46.9383 79.1466 46.9391C78.9021 46.9427 78.9021 46.9427 78.6526 46.9464C77.5444 46.9422 76.7012 46.7719 75.8507 45.9961C75.0776 45.0032 74.8717 44.2184 75 42.9688C75.363 41.9402 75.8991 41.4465 76.7578 40.8203C77.5249 40.5646 78.2618 40.5855 79.0619 40.5785Z" fill="#398E3D"/>
<path d="M79.0619 28.0785C79.2312 28.0769 79.4006 28.0753 79.575 28.0737C79.9336 28.071 80.2922 28.0689 80.6507 28.0674C81.1964 28.064 81.7419 28.0554 82.2876 28.0468C82.6365 28.0448 82.9854 28.0432 83.3344 28.0418C83.5773 28.0367 83.5773 28.0367 83.8252 28.0315C84.9516 28.0356 85.5958 28.2606 86.5234 28.9063C87.3307 29.7772 87.5631 30.4345 87.5412 31.6299C87.4463 32.5543 87.0083 33.1602 86.3281 33.7524C85.3817 34.4425 84.5604 34.409 83.4313 34.4147C83.1766 34.4163 83.1766 34.4163 82.9167 34.418C82.5573 34.4199 82.1979 34.4212 81.8386 34.4219C81.2907 34.4238 80.743 34.4299 80.1952 34.436C79.8457 34.4373 79.4961 34.4383 79.1466 34.4391C78.9021 34.4427 78.9021 34.4427 78.6526 34.4464C77.5444 34.4422 76.7012 34.2719 75.8507 33.4961C75.0776 32.5032 74.8717 31.7184 75 30.4688C75.363 29.4402 75.8991 28.9465 76.7578 28.3203C77.5249 28.0646 78.2618 28.0855 79.0619 28.0785Z" fill="#398E3D"/>
</g>
<defs>
<clipPath id="clip0_12_914">
<rect width="100" height="100" fill="white"/>
</clipPath>
</defs>
</svg>
