<svg width="30" height="30" viewBox="0 0 30 30" fill="none" xmlns="http://www.w3.org/2000/svg">
<path d="M11.7407 4.1455C12.3293 4.56678 12.7121 5.10946 12.9126 5.81176C12.9415 5.98806 12.9531 6.13616 12.9515 6.31278C12.9512 6.35971 12.9508 6.40664 12.9505 6.45499C12.9501 6.49046 12.9497 6.52594 12.9492 6.56249C13.0201 6.56126 13.0909 6.56004 13.164 6.55877C13.43 6.55449 13.696 6.55183 13.962 6.54962C14.0766 6.54845 14.1911 6.54685 14.3057 6.54481C15.2062 6.52916 15.8995 6.58989 16.6406 7.14843C16.6914 7.18227 16.7421 7.2161 16.7944 7.25097C17.2716 7.70307 17.6149 8.34618 17.6438 9.00967C17.6436 9.06835 17.6435 9.12703 17.6434 9.18749C17.6434 9.25527 17.6434 9.32304 17.6433 9.39287C17.643 9.46348 17.6427 9.53409 17.6424 9.60685C17.6424 9.67221 17.6423 9.73757 17.6423 9.80491C17.6419 10.0486 17.6411 10.2922 17.6404 10.5359C17.6392 11.0809 17.638 11.6259 17.6367 12.1875C18.8549 12.1875 20.073 12.1875 21.3281 12.1875C21.3189 11.283 21.3189 11.283 21.307 10.3785C21.3063 10.2644 21.3057 10.1502 21.3052 10.036C21.304 9.97767 21.3028 9.91934 21.3016 9.85925C21.3014 9.49155 21.349 9.21192 21.5625 8.90624C21.7995 8.6808 21.9895 8.60441 22.3132 8.59496C22.3619 8.59277 22.4107 8.59058 22.4609 8.58832C22.8328 8.64769 23.0932 8.95507 23.3459 9.21386C23.3961 9.26457 23.3961 9.26457 23.4473 9.31631C23.6564 9.52931 23.8571 9.74754 24.0504 9.97512C24.1744 10.1167 24.3086 10.2468 24.4428 10.3785C24.5469 10.4844 24.6442 10.5934 24.741 10.7059C24.9559 10.9531 25.1787 11.1918 25.404 11.4294C25.4868 11.5171 25.5696 11.6047 25.6524 11.6924C25.6936 11.736 25.7348 11.7797 25.7773 11.8246C26.241 12.3164 26.7021 12.8109 27.1589 13.3092C27.3136 13.4778 27.47 13.6444 27.6288 13.8091C27.6633 13.8453 27.6978 13.8815 27.7334 13.9187C27.7995 13.988 27.866 14.0568 27.9331 14.1251C28.1687 14.3731 28.3409 14.6149 28.372 14.9673C28.3666 15.0083 28.3612 15.0493 28.3557 15.0915C28.3514 15.1327 28.3471 15.1739 28.3427 15.2163C28.2271 15.5894 27.9274 15.8637 27.6636 16.1389C27.5846 16.2222 27.5056 16.3055 27.4267 16.3888C27.3868 16.4308 27.3469 16.4728 27.3057 16.516C27.1248 16.7067 26.9455 16.8988 26.7664 17.0911C26.7324 17.1274 26.6985 17.1637 26.6636 17.2011C26.4194 17.4629 26.1766 17.7259 25.9341 17.9892C25.6616 18.2847 25.3865 18.5776 25.1113 18.8706C24.8842 19.1125 24.6583 19.3554 24.4336 19.5996C24.165 19.8912 23.8951 20.1816 23.6243 20.4712C23.5706 20.5287 23.5706 20.5287 23.5159 20.5873C23.4122 20.6981 23.3079 20.8082 23.2031 20.918C23.1664 20.9566 23.1296 20.9952 23.0918 21.035C23.0558 21.072 23.0198 21.1091 22.9827 21.1473C22.9505 21.1807 22.9182 21.214 22.885 21.2484C22.6802 21.4258 22.4341 21.4027 22.178 21.3993C21.8996 21.3754 21.7367 21.2711 21.5478 21.0718C21.3857 20.8286 21.3133 20.626 21.3148 20.3336C21.3148 20.2765 21.3148 20.2194 21.3149 20.1606C21.3155 20.1014 21.3161 20.0422 21.3167 19.9811C21.3168 19.9262 21.3169 19.8712 21.317 19.8145C21.3176 19.6098 21.3193 19.4051 21.3208 19.2004C21.3232 18.7424 21.3256 18.2844 21.3281 17.8125C20.11 17.8125 18.8918 17.8125 17.6367 17.8125C17.646 18.8773 17.646 18.8773 17.6578 19.9422C17.6585 20.0772 17.6591 20.2123 17.6596 20.3474C17.6608 20.4156 17.662 20.4838 17.6632 20.5541C17.6635 21.2712 17.4885 21.8713 17.0508 22.4414C17.0169 22.4922 16.9831 22.5429 16.9482 22.5952C16.5339 23.0325 15.9038 23.4089 15.2885 23.4445C15.2237 23.4443 15.2237 23.4443 15.1576 23.4441C15.1084 23.4441 15.0591 23.4441 15.0084 23.4441C14.9295 23.4437 14.9295 23.4437 14.8489 23.4432C14.7946 23.4431 14.7403 23.443 14.6844 23.443C14.5113 23.4426 14.3382 23.4419 14.165 23.4412C14.0475 23.4409 13.93 23.4406 13.8126 23.4404C13.5248 23.4397 13.237 23.4387 12.9492 23.4375C12.9496 23.4775 12.9501 23.5174 12.9505 23.5586C12.9508 23.6112 12.9512 23.6637 12.9515 23.7179C12.9522 23.796 12.9522 23.796 12.9528 23.8756C12.9361 24.5618 12.5439 25.2189 12.0593 25.6824C11.4023 26.2274 10.6491 26.4414 9.80393 26.3865C9.04466 26.2785 8.31631 25.9331 7.611 25.648C7.49287 25.6006 7.37473 25.5532 7.25657 25.5057C7.01029 25.4068 6.76413 25.3076 6.51805 25.2082C6.20426 25.0814 5.89018 24.9554 5.57601 24.8296C5.33244 24.7319 5.08902 24.6339 4.84565 24.5358C4.72996 24.4892 4.61421 24.4427 4.49842 24.3963C2.36408 23.5409 2.36408 23.5409 1.85806 22.3862C1.6856 21.9303 1.63189 21.5149 1.63278 21.0307C1.63265 20.9778 1.63252 20.9248 1.63238 20.8702C1.63201 20.6931 1.63206 20.5159 1.63211 20.3387C1.63193 20.2116 1.63173 20.0844 1.63151 19.9573C1.63099 19.612 1.63086 19.2667 1.63082 18.9214C1.63078 18.7056 1.63065 18.4897 1.6305 18.2739C1.62995 17.5205 1.62972 16.7672 1.62976 16.0138C1.6298 15.3122 1.62918 14.6106 1.62825 13.909C1.62749 13.3062 1.62717 12.7034 1.62721 12.1006C1.62722 11.7407 1.62706 11.3809 1.62644 11.0211C1.62587 10.6824 1.62587 10.3438 1.62629 10.0052C1.62635 9.88122 1.62622 9.75724 1.62586 9.63326C1.62263 8.4253 1.73122 7.48481 2.61726 6.59179C3.22777 6.09209 4.1005 5.85052 4.82391 5.56365C4.95053 5.51322 5.07714 5.46277 5.20375 5.4123C5.46783 5.30711 5.732 5.20214 5.99624 5.09733C6.33422 4.96325 6.67198 4.82863 7.00967 4.69384C7.27057 4.58977 7.53159 4.48599 7.79264 4.38229C7.91723 4.33276 8.04179 4.28314 8.16631 4.23343C8.3403 4.16402 8.51445 4.095 8.68863 4.02608C8.73954 4.00569 8.79044 3.98529 8.84289 3.96428C9.83986 3.57167 10.8132 3.56021 11.7407 4.1455Z" fill="#F44336"/>
<path d="M22.3132 8.59496C22.3619 8.59277 22.4107 8.59057 22.4609 8.58832C22.8328 8.64768 23.0932 8.95506 23.3459 9.21385C23.3794 9.24766 23.4128 9.28147 23.4473 9.31631C23.6564 9.5293 23.8571 9.74753 24.0504 9.97511C24.1744 10.1167 24.3086 10.2468 24.4428 10.3785C24.5469 10.4844 24.6442 10.5934 24.741 10.7059C24.9559 10.9531 25.1787 11.1918 25.404 11.4294C25.4868 11.5171 25.5696 11.6047 25.6524 11.6924C25.6936 11.736 25.7348 11.7797 25.7773 11.8246C26.241 12.3164 26.7021 12.8109 27.1589 13.3092C27.3136 13.4778 27.47 13.6444 27.6288 13.8091C27.6633 13.8453 27.6978 13.8815 27.7334 13.9187C27.7995 13.988 27.866 14.0568 27.9331 14.1251C28.1687 14.3731 28.3409 14.6149 28.372 14.9673C28.3666 15.0083 28.3612 15.0493 28.3557 15.0915C28.3514 15.1327 28.3471 15.1739 28.3427 15.2163C28.2271 15.5894 27.9274 15.8637 27.6636 16.1389C27.5846 16.2222 27.5056 16.3055 27.4267 16.3888C27.3868 16.4308 27.3469 16.4728 27.3057 16.516C27.1248 16.7066 26.9455 16.8988 26.7664 17.091C26.7324 17.1274 26.6985 17.1637 26.6636 17.2011C26.4194 17.4629 26.1766 17.7259 25.9341 17.9892C25.6616 18.2847 25.3865 18.5776 25.1113 18.8706C24.8842 19.1125 24.6583 19.3554 24.4336 19.5996C24.165 19.8912 23.8951 20.1816 23.6243 20.4712C23.5885 20.5095 23.5527 20.5478 23.5159 20.5873C23.4122 20.6981 23.3079 20.8082 23.2031 20.918C23.1664 20.9566 23.1296 20.9952 23.0918 21.035C23.0558 21.072 23.0198 21.1091 22.9827 21.1473C22.9505 21.1806 22.9182 21.214 22.885 21.2484C22.6802 21.4258 22.4341 21.4026 22.178 21.3993C21.8996 21.3754 21.7367 21.2711 21.5478 21.0718C21.3857 20.8286 21.3133 20.626 21.3148 20.3335C21.3148 20.2773 21.3148 20.221 21.3148 20.163C21.3154 20.103 21.3161 20.043 21.3167 19.9811C21.3168 19.9191 21.317 19.8571 21.3172 19.7932C21.3178 19.5956 21.3193 19.398 21.3208 19.2004C21.3214 19.0663 21.3219 18.9321 21.3224 18.7979C21.3237 18.4694 21.3256 18.141 21.3281 17.8125C21.2544 17.813 21.1807 17.8135 21.1048 17.8141C20.4091 17.8188 19.7134 17.8223 19.0177 17.8246C18.6601 17.8258 18.3024 17.8275 17.9448 17.8302C17.5995 17.8327 17.2541 17.8341 16.9088 17.8347C16.7772 17.8352 16.6457 17.836 16.5141 17.8373C16.3294 17.839 16.1448 17.8392 15.9601 17.8391C15.9061 17.8399 15.8521 17.8408 15.7964 17.8416C15.2378 17.8381 14.759 17.6114 14.3555 17.2265C13.9728 16.754 13.8682 16.3338 13.8629 15.7356C13.8622 15.6767 13.8616 15.6177 13.8609 15.5569C13.8598 15.4323 13.859 15.3077 13.8586 15.1831C13.8574 14.9945 13.8538 14.8059 13.8501 14.6173C13.8427 13.8985 13.8464 13.3188 14.3561 12.7619C14.687 12.4419 15.1312 12.1799 15.5996 12.1804C15.6501 12.1804 15.7006 12.1803 15.7527 12.1802C15.808 12.1804 15.8632 12.1806 15.9201 12.1808C15.9785 12.1808 16.0368 12.1808 16.0969 12.1808C16.2899 12.1808 16.483 12.1813 16.6761 12.1818C16.8098 12.1819 16.9436 12.182 17.0773 12.182C17.4296 12.1822 17.7819 12.1828 18.1341 12.1835C18.4935 12.1841 18.8529 12.1843 19.2122 12.1846C19.9175 12.1853 20.6228 12.1863 21.3281 12.1875C21.3276 12.1533 21.3271 12.1191 21.3265 12.0839C21.3213 11.7265 21.3178 11.369 21.3152 11.0116C21.3141 10.8784 21.3125 10.7452 21.3104 10.612C21.3076 10.42 21.3063 10.228 21.3052 10.036C21.304 9.97689 21.3028 9.91779 21.3016 9.8569C21.3014 9.49013 21.3496 9.2111 21.5625 8.90623C21.7995 8.68079 21.9895 8.6044 22.3132 8.59496Z" fill="#757575"/>
<path d="M12.9492 6.5625C15.8631 6.5625 15.8631 6.5625 16.6406 7.14844C16.6914 7.18228 16.7421 7.21611 16.7944 7.25098C17.2717 7.70308 17.6149 8.34619 17.6438 9.00968C17.6436 9.06836 17.6435 9.12704 17.6434 9.1875C17.6434 9.28777 17.6434 9.28777 17.6434 9.39006C17.6431 9.4616 17.6428 9.53315 17.6424 9.60686C17.6424 9.68057 17.6423 9.75429 17.6422 9.83024C17.6419 10.0255 17.6414 10.2207 17.6407 10.416C17.6401 10.6155 17.6399 10.8151 17.6396 11.0146C17.6389 11.4056 17.638 11.7965 17.6367 12.1875C17.5703 12.188 17.5038 12.1886 17.4353 12.1892C17.1866 12.1915 16.938 12.1954 16.6894 12.1997C16.5821 12.2013 16.4749 12.2026 16.3677 12.2034C16.2127 12.2046 16.0579 12.2074 15.9029 12.2104C15.832 12.2105 15.832 12.2105 15.7597 12.2106C15.2281 12.224 14.7329 12.457 14.3555 12.832C14.1248 13.1535 13.9399 13.455 13.9349 13.8572C13.9342 13.9104 13.9334 13.9637 13.9327 14.0185C13.9322 14.076 13.9318 14.1335 13.9314 14.1927C13.9309 14.2522 13.9304 14.3117 13.9299 14.373C13.9291 14.4991 13.9285 14.6253 13.928 14.7514C13.927 14.9429 13.9244 15.1343 13.9219 15.3258C13.9213 15.4486 13.9208 15.5714 13.9204 15.6942C13.9193 15.7509 13.9183 15.8075 13.9173 15.8659C13.9189 16.3965 14.0645 16.8611 14.4315 17.254C14.8647 17.6435 15.3142 17.7701 15.8858 17.7782C15.936 17.7793 15.9862 17.7804 16.038 17.7816C16.1973 17.7851 16.3567 17.7878 16.5161 17.7905C16.6246 17.7928 16.7331 17.7951 16.8416 17.7974C17.1066 17.803 17.3717 17.8079 17.6367 17.8125C17.6422 18.2348 17.6463 18.6571 17.6489 19.0794C17.6501 19.2756 17.6518 19.4718 17.6544 19.6679C17.6573 19.8944 17.6586 20.1209 17.6596 20.3474C17.6608 20.4165 17.662 20.4856 17.6633 20.5568C17.6635 21.2729 17.4878 21.8723 17.0508 22.4414C17.0169 22.4922 16.9831 22.5429 16.9482 22.5952C16.5279 23.0389 15.9959 23.2911 15.4102 23.4375C14.598 23.4375 13.7859 23.4375 12.9492 23.4375C12.9492 17.8687 12.9492 12.3 12.9492 6.5625Z" fill="#EDEDED"/>
<path d="M8.61167 14.0984C8.90251 14.2435 9.07314 14.4694 9.19921 14.7656C9.25425 15.1081 9.1543 15.3634 8.96483 15.6445C8.69344 15.9027 8.46666 15.9587 8.1024 15.954C7.82371 15.9196 7.66266 15.7535 7.48168 15.553C7.29744 15.2868 7.28551 15.0209 7.32421 14.707C7.59016 14.185 8.03811 13.9201 8.61167 14.0984Z" fill="#C2185A"/>
</svg>
