<svg width="100" height="100" viewBox="0 0 100 100" fill="none" xmlns="http://www.w3.org/2000/svg">
<g clip-path="url(#clip0_12_861)">
<path d="M49.8657 2.0874C50.1107 2.08413 50.3557 2.08086 50.6081 2.07748C52.2661 2.23246 53.3663 2.98139 54.6631 3.97949C54.992 4.22736 55.3211 4.47506 55.6503 4.7226C55.8157 4.84766 55.981 4.97273 56.1514 5.10159C56.8927 5.65793 57.6452 6.19822 58.3984 6.73828C59.7662 7.72239 61.1242 8.71917 62.4794 9.72061C63.5231 10.491 64.5721 11.2538 65.625 12.0117C66.9926 12.9961 68.3508 13.9926 69.706 14.9941C70.7497 15.7645 71.7986 16.5273 72.8516 17.2852C74.2192 18.2695 75.5774 19.266 76.9325 20.2675C77.9763 21.0379 79.0252 21.8007 80.0781 22.5586C81.4457 23.543 82.8039 24.5395 84.1591 25.5409C85.2028 26.3114 86.2518 27.0742 87.3047 27.832C88.6714 28.8158 90.029 29.8115 91.3831 30.8126C92.3029 31.4919 93.227 32.1648 94.1558 32.8319C94.8685 33.344 95.5793 33.8587 96.2891 34.375C96.4805 34.5141 96.4805 34.5141 96.6759 34.6561C97.0288 34.9141 97.3795 35.175 97.7295 35.437C98.0218 35.6542 98.0218 35.6542 98.32 35.8757C99.4031 36.8401 99.9214 37.9276 100.072 39.3585C100.077 39.5992 100.081 39.8399 100.085 40.0879C100.093 40.3266 100.101 40.5652 100.109 40.8112C99.9868 42.5221 98.7578 43.9997 97.7539 45.3125C97.5113 45.6351 97.269 45.9578 97.0268 46.2807C96.9044 46.4432 96.782 46.6058 96.6559 46.7732C95.9666 47.6984 95.2997 48.6399 94.6342 49.5823C92.3522 52.7753 92.3522 52.7753 90.4297 53.3203C87.5863 53.6725 86.0642 52.8782 83.7891 51.1719C83.7891 52.5898 83.7891 54.0078 83.7891 55.4688C84.1758 55.5332 84.5625 55.5977 84.9609 55.6641C85.7564 56.487 85.7671 57.2965 85.7696 58.3984C85.7705 58.6084 85.7705 58.6084 85.7714 58.8227C85.7731 59.2931 85.7734 59.7636 85.7736 60.234C85.7746 60.5709 85.7755 60.9078 85.7766 61.2446C85.7792 62.1612 85.7804 63.0777 85.7813 63.9942C85.7818 64.5674 85.7826 65.1405 85.7835 65.7136C85.7862 67.5081 85.7881 69.3027 85.7888 71.0972C85.7897 73.1659 85.7931 75.2346 85.7988 77.3033C85.803 78.9036 85.805 80.504 85.8052 82.1043C85.8055 83.0594 85.8066 84.0144 85.8101 84.9694C85.8133 85.8692 85.8137 86.769 85.812 87.6689C85.8119 87.9976 85.8127 88.3264 85.8146 88.6552C85.8304 91.4858 85.6251 93.9248 83.6296 96.0877C81.9583 97.6813 80.1751 97.9678 77.9336 97.9508C77.5599 97.9526 77.5599 97.9526 77.1786 97.9545C76.492 97.9577 75.8055 97.9561 75.1188 97.9537C74.3765 97.9519 73.6341 97.9547 72.8917 97.9568C71.4393 97.9603 69.9869 97.9595 68.5345 97.9573C67.3537 97.9555 66.1729 97.9553 64.9921 97.9561C64.7397 97.9563 64.7397 97.9563 64.4822 97.9565C64.1402 97.9567 63.7983 97.957 63.4564 97.9572C60.2529 97.9595 57.0495 97.9569 53.846 97.9527C51.0995 97.9492 48.3531 97.9498 45.6066 97.9534C42.4143 97.9576 39.2221 97.9592 36.0298 97.9568C35.6891 97.9566 35.3485 97.9564 35.0078 97.9561C34.7565 97.9559 34.7565 97.9559 34.5 97.9557C33.3211 97.9551 32.1423 97.9562 30.9634 97.958C29.5261 97.9602 28.0887 97.9596 26.6513 97.9555C25.9185 97.9534 25.1857 97.9526 24.4528 97.9552C23.6573 97.958 22.8619 97.9547 22.0664 97.9508C21.7213 97.9534 21.7213 97.9534 21.3692 97.9561C19.1621 97.9351 17.6457 97.3143 16.0545 95.7855C13.9949 93.5174 14.1987 90.6872 14.1955 87.812C14.1937 87.4287 14.1917 87.0455 14.1896 86.6623C14.1843 85.6266 14.1813 84.5909 14.1788 83.5551C14.1757 82.471 14.1705 81.3869 14.1655 80.3028C14.1563 78.2519 14.1492 76.201 14.1427 74.1501C14.1352 71.8144 14.1256 69.4787 14.1157 67.143C14.0956 62.3401 14.0781 57.5373 14.0625 52.7344C13.8523 52.8292 13.6422 52.924 13.4257 53.0216C12.0943 53.6222 10.3806 53.5401 8.98818 53.1624C6.99725 52.2703 5.85502 50.3531 4.64553 48.6252C3.93335 47.6078 3.20049 46.6053 2.4691 45.6017C1.94462 44.8784 1.42822 44.1501 0.924676 43.412C0.784849 43.2073 0.78485 43.2073 0.642198 42.9984C-0.178256 41.6279 -0.13239 40.2185 -6.28144e-06 38.6719C0.502783 36.811 1.73333 35.7528 3.24706 34.668C3.41133 34.5486 3.57559 34.4293 3.74483 34.3064C4.25346 33.9374 4.76337 33.5702 5.27343 33.2031C5.57436 32.9853 5.87522 32.7674 6.17599 32.5493C7.19067 31.8144 8.20759 31.0825 9.2245 30.3507C11.0335 29.0484 12.8351 27.737 14.6278 26.4123C15.8155 25.5355 17.0109 24.6699 18.2091 23.8075C19.2736 23.0403 20.3314 22.2642 21.3867 21.4844C22.7299 20.4918 24.0801 19.5098 25.4356 18.5341C26.5002 17.7668 27.5579 16.9908 28.6133 16.2109C29.9564 15.2184 31.3067 14.2363 32.6622 13.2607C33.7267 12.4934 34.7845 11.7174 35.8398 10.9375C37.1823 9.94546 38.5316 8.96371 39.8866 7.98893C40.9732 7.20609 42.0511 6.41204 43.1274 5.61523C44.1988 4.82409 45.2717 4.03598 46.3623 3.27148C46.5531 3.13754 46.744 3.0036 46.9406 2.8656C47.9383 2.23946 48.6843 2.09102 49.8657 2.0874Z" fill="#100F10"/>
<path d="M50.1789 26.415C50.6394 26.5819 50.9596 26.7954 51.3504 27.0905C51.5706 27.2549 51.5706 27.2549 51.7952 27.4227C51.9521 27.5417 52.1089 27.6606 52.2705 27.7832C52.6066 28.0346 52.9428 28.2859 53.2791 28.537C53.5345 28.7283 53.5345 28.7283 53.7951 28.9234C54.5423 29.4795 55.2981 30.0233 56.0547 30.5664C57.4224 31.5506 58.7805 32.5473 60.1357 33.5487C61.1794 34.3192 62.2284 35.082 63.2813 35.8399C64.6489 36.8242 66.0071 37.8207 67.3622 38.8222C68.406 39.5926 69.4549 40.3554 70.5078 41.1133C71.8754 42.0977 73.2336 43.0942 74.5888 44.0956C75.7744 44.9707 76.9675 45.8349 78.1636 46.6956C79.4533 47.625 80.7333 48.5674 82.011 49.5133C82.2322 49.6768 82.2322 49.6768 82.4577 49.8436C82.6528 49.9881 82.6528 49.9881 82.8518 50.1356C83.1588 50.3584 83.4734 50.5708 83.7891 50.7813C83.8556 51.2559 83.8556 51.2559 83.8463 51.8448C83.8444 52.055 83.8425 52.2653 83.8406 52.4819C83.8357 52.7022 83.8308 52.9224 83.8257 53.1494C83.8231 53.3712 83.8204 53.593 83.8177 53.8216C83.8108 54.3707 83.8011 54.9197 83.7891 55.4688C83.4521 55.5959 83.1151 55.7231 82.7782 55.8502C82.3027 56.1231 82.1163 56.3607 81.836 56.8359C81.7477 57.4997 81.7477 57.4997 81.762 58.258C81.7607 58.4733 81.7607 58.4733 81.7593 58.693C81.7571 59.1741 81.7589 59.6552 81.7608 60.1364C81.76 60.4813 81.7589 60.8262 81.7576 61.1711C81.7553 61.9139 81.7548 62.6567 81.7557 63.3995C81.7571 64.5739 81.754 65.7482 81.7502 66.9226C81.7428 69.4157 81.7403 71.9088 81.7383 74.4019C81.7361 77.0926 81.7331 79.7832 81.7245 82.4739C81.7209 83.6415 81.7201 84.8091 81.7215 85.9767C81.7218 86.7029 81.7197 87.4291 81.717 88.1554C81.7162 88.4923 81.7164 88.8292 81.7177 89.1661C81.7193 89.6259 81.7174 90.0855 81.7146 90.5454C81.7144 90.9314 81.7144 90.9314 81.7141 91.3252C81.6042 92.3224 81.2156 92.8025 80.5301 93.5112C79.7652 94.0242 79.205 94.0782 78.3155 94.0562C78.0866 94.0564 78.0866 94.0564 77.8531 94.0566C77.3521 94.0559 76.8514 94.0484 76.3504 94.0407C76.0018 94.0389 75.6531 94.0375 75.3045 94.0365C74.3893 94.0328 73.4743 94.0232 72.5592 94.0124C71.6244 94.0024 70.6896 93.9979 69.7548 93.993C67.9224 93.9826 66.0901 93.9659 64.2578 93.9453C64.2579 93.7311 64.2579 93.7311 64.258 93.5126C64.2594 90.0303 64.2544 86.548 64.2421 83.0656C64.2364 81.3815 64.2328 79.6975 64.2344 78.0134C64.2357 76.5447 64.2329 75.0761 64.2253 73.6074C64.2214 72.8305 64.2195 72.0537 64.2226 71.2768C64.2254 70.5437 64.2227 69.8109 64.2158 69.078C64.2136 68.6842 64.217 68.2905 64.2207 67.8968C64.196 66.0785 63.8198 64.4105 62.4953 63.0791C61.0886 61.918 59.5844 61.631 57.8146 61.6336C57.5313 61.6307 57.5313 61.6307 57.2423 61.6277C56.6216 61.6221 56.001 61.621 55.3803 61.6203C54.9458 61.6185 54.5114 61.6165 54.077 61.6144C53.1675 61.6109 52.258 61.6098 51.3484 61.6102C50.1878 61.6102 49.0273 61.6022 47.8667 61.5922C46.9695 61.5856 46.0724 61.5845 45.1753 61.5848C44.7476 61.5841 44.32 61.5815 43.8924 61.5769C40.6015 61.499 40.6015 61.499 37.6953 62.8906C37.2172 63.3812 36.8455 63.8484 36.5235 64.4531C36.4237 64.6312 36.324 64.8093 36.2213 64.9928C35.7459 66.1225 35.8515 67.3532 35.8531 68.5573C35.8513 68.8346 35.8493 69.1119 35.847 69.3892C35.8417 70.1389 35.8398 70.8885 35.8387 71.6382C35.8368 72.4228 35.8317 73.2074 35.8269 73.992C35.8184 75.4764 35.8128 76.9608 35.8083 78.4452C35.803 80.1357 35.7945 81.8262 35.7856 83.5167C35.7675 86.9929 35.7535 90.4691 35.7422 93.9453C33.732 93.9771 31.7218 94.0013 29.7114 94.0162C28.7778 94.0233 27.8443 94.0329 26.9108 94.0485C26.0091 94.0634 25.1076 94.0715 24.2058 94.075C23.8625 94.0776 23.5193 94.0825 23.1761 94.0899C20.1507 94.1525 20.1507 94.1525 19.125 93.29C18.2901 92.392 18.3254 91.4869 18.3122 90.315C18.3083 90.0549 18.3083 90.0549 18.3042 89.7896C18.2956 89.2062 18.2885 88.6229 18.2814 88.0395C18.2757 87.6221 18.27 87.2048 18.2642 86.7874C18.2135 82.9733 18.1844 79.159 18.1612 75.3447C18.1452 72.7806 18.1226 70.2168 18.0834 67.6529C18.0493 65.4157 18.0275 63.1788 18.0207 60.9413C18.0166 59.7574 18.0066 58.5744 17.9817 57.3908C17.9585 56.2757 17.9521 55.1617 17.9582 54.0464C17.9575 53.6386 17.9509 53.2307 17.9377 52.8232C17.8455 49.8285 17.8455 49.8285 18.7071 48.8062C19.5494 48.0456 20.4794 47.4618 21.4684 46.9112C21.979 46.6205 22.442 46.2818 22.9065 45.9229C23.0445 45.8208 23.1824 45.7187 23.3246 45.6135C23.4585 45.5142 23.5925 45.4148 23.7305 45.3125C25.0735 44.3197 26.4239 43.3379 27.7794 42.3622C28.8439 41.5949 29.9017 40.8189 30.957 40.0391C32.3002 39.0465 33.6505 38.0645 35.006 37.0888C36.0705 36.3215 37.1283 35.5455 38.1836 34.7656C39.526 33.7736 40.8754 32.7918 42.2304 31.8171C43.156 31.1502 44.076 30.4763 44.9928 29.7974C45.6078 29.3423 46.2243 28.8891 46.8413 28.4366C47.1154 28.2353 47.3892 28.0335 47.6626 27.831C48.0127 27.5725 48.365 27.3172 48.7183 27.063C49.0079 26.8519 49.0079 26.8519 49.3034 26.6365C49.8047 26.3672 49.8047 26.3672 50.1789 26.415Z" fill="#EEE7E7"/>
<path d="M50.5859 6.05467C51.1322 6.34993 51.1322 6.34993 51.709 6.77489C51.8166 6.85289 51.9242 6.93089 52.035 7.01126C52.2724 7.18361 52.5088 7.35716 52.7445 7.53172C53.1409 7.82424 53.5406 8.1118 53.9413 8.39842C55.6265 9.60528 57.2965 10.8323 58.9635 12.0641C60.0073 12.8347 61.0564 13.5975 62.1094 14.3555C63.477 15.3398 64.8352 16.3363 66.1903 17.3378C67.2341 18.1082 68.283 18.871 69.3359 19.6289C70.7035 20.6133 72.0617 21.6098 73.4169 22.6112C74.4607 23.3817 75.5096 24.1445 76.5625 24.9023C77.9301 25.8867 79.2883 26.8832 80.6435 27.8847C81.6872 28.6551 82.7362 29.4179 83.7891 30.1758C85.1563 31.1599 86.5141 32.1559 87.8687 33.1572C88.9246 33.9368 89.9867 34.7074 91.0522 35.4736C92.2218 36.3162 93.3867 37.1647 94.5435 38.0249C94.7443 38.173 94.7443 38.173 94.9491 38.3241C96.0489 39.1464 96.0489 39.1464 96.1815 40.0535C96.0583 41.1303 95.5466 41.7083 94.8853 42.5415C94.6343 42.8689 94.3835 43.1964 94.133 43.5242C94.0045 43.6903 93.8761 43.8565 93.7437 44.0277C93.03 44.9627 92.353 45.9242 91.6705 46.8821C90.0774 49.1019 90.0774 49.1019 89.4531 49.414C88.5718 49.5327 88.0508 49.4558 87.3428 48.941C87.0754 48.7274 86.8105 48.5105 86.5479 48.291C86.2533 48.0552 85.9583 47.82 85.6628 47.5853C85.5135 47.4658 85.3642 47.3463 85.2104 47.2232C84.5349 46.6944 83.8346 46.2041 83.1299 45.7153C81.7812 44.7741 80.454 43.8069 79.1322 42.8284C78.0855 42.0541 77.0334 41.2878 75.9766 40.5273C74.6089 39.543 73.2508 38.5464 71.8956 37.545C70.8518 36.7746 69.8029 36.0118 68.75 35.2539C67.3824 34.2695 66.0242 33.273 64.669 32.2716C63.6253 31.5011 62.5763 30.7383 61.5234 29.9805C60.3132 29.1093 59.1094 28.2299 57.9102 27.3437C56.6688 26.4271 55.4246 25.5145 54.1748 24.6094C54.0362 24.5087 53.8976 24.4079 53.7548 24.3042C53.3513 24.0127 52.946 23.7241 52.5391 23.4375C52.3861 23.3297 52.2332 23.222 52.0756 23.1109C51.9219 23.0052 51.7682 22.8995 51.6098 22.7905C51.471 22.6946 51.3323 22.5987 51.1893 22.4998C50.6221 22.1743 50.1597 22.0545 49.5087 22.1039C48.4722 22.4493 47.6748 23.239 46.8462 23.9281C46.2195 24.4315 45.5579 24.8841 44.8975 25.3418C43.2186 26.5156 41.57 27.7284 39.9241 28.9479C37.227 30.946 34.5156 32.923 31.7911 34.8837C29.9821 36.186 28.1805 37.4974 26.3878 38.8221C25.2001 39.6988 24.0047 40.5644 22.8066 41.4268C21.742 42.1941 20.6843 42.9702 19.6289 43.75C17.98 44.9676 16.3246 46.1755 14.6573 47.3678C14.2758 47.6433 13.8983 47.9236 13.5216 48.2056C13.2991 48.3684 13.0766 48.5311 12.854 48.6938C12.6659 48.8341 12.4779 48.9743 12.2841 49.1188C11.582 49.4855 11.1334 49.5136 10.3516 49.414C9.98764 49.1684 9.98764 49.1684 9.70459 48.8037C9.59104 48.6597 9.4775 48.5157 9.36051 48.3673C9.23638 48.1971 9.11226 48.0269 8.98438 47.8515C8.84213 47.6572 8.69988 47.4628 8.55332 47.2626C8.2269 46.8112 7.90469 46.3572 7.58438 45.9015C6.95608 45.0078 6.31636 44.1225 5.67627 43.2373C5.56773 43.0869 5.45918 42.9365 5.34735 42.7815C4.77397 41.9827 4.77397 41.9827 4.17133 41.2061C3.75615 40.6019 3.80624 40.1657 3.90625 39.4531C4.60853 38.6507 5.43271 38.0315 6.28662 37.4023C6.42263 37.3012 6.55863 37.2001 6.69875 37.0959C7.8487 36.2437 9.00884 35.4056 10.1709 34.5699C11.2459 33.7964 12.3139 33.0138 13.3789 32.2265C14.7221 31.2339 16.0723 30.2519 17.4278 29.2763C18.4924 28.509 19.5501 27.733 20.6055 26.9531C22.5301 25.5313 24.4699 24.1312 26.412 22.7335C28.221 21.4312 30.0226 20.1198 31.8153 18.795C33.003 17.9183 34.1984 17.0527 35.3966 16.1903C36.4611 15.423 37.5189 14.647 38.5742 13.8672C39.9161 12.8756 41.2648 11.8941 42.6193 10.9199C43.8749 10.0154 45.1203 9.09722 46.3612 8.17259C46.7907 7.85413 47.2229 7.53983 47.6563 7.22655C47.8075 7.11423 47.9588 7.00191 48.1147 6.88618C49.5838 5.83772 49.5838 5.83772 50.5859 6.05467Z" fill="#EE3939"/>
<path d="M42.375 65.392C42.5564 65.3904 42.7378 65.3888 42.9246 65.3872C43.5266 65.3823 44.1285 65.3791 44.7304 65.3763C44.9357 65.3752 45.1409 65.3742 45.3525 65.3731C46.4389 65.3679 47.5253 65.3641 48.6117 65.3613C49.7348 65.3581 50.8579 65.3493 51.9809 65.3394C52.8437 65.3328 53.7064 65.3305 54.5691 65.3294C54.9832 65.3281 55.3972 65.3251 55.8113 65.3205C56.3907 65.3143 56.9697 65.3143 57.5491 65.3157C57.7203 65.3125 57.8916 65.3093 58.0679 65.306C58.9324 65.3149 59.267 65.3435 59.9652 65.9007C60.5205 66.6272 60.5712 66.9704 60.5704 67.8745C60.5708 68.218 60.5708 68.218 60.5712 68.5684C60.5701 68.947 60.5701 68.947 60.5691 69.3334C60.569 69.6009 60.569 69.8684 60.5691 70.1359C60.5692 70.8635 60.568 71.591 60.5667 72.3185C60.5655 73.0784 60.5653 73.8382 60.5651 74.5981C60.5645 76.0375 60.5629 77.477 60.5609 78.9164C60.5584 80.8612 60.5573 82.8059 60.5562 84.7506C60.5543 87.8155 60.5504 90.8804 60.5469 93.9453C53.5859 93.9453 46.625 93.9453 39.4531 93.9453C39.4216 87.1844 39.4216 87.1844 39.415 84.3521C39.4103 82.3962 39.4049 80.4403 39.3942 78.4843C39.3864 77.0599 39.3814 75.6354 39.3796 74.211C39.3786 73.4568 39.3762 72.7027 39.3705 71.9486C39.3652 71.2384 39.3636 70.5283 39.3648 69.8181C39.3644 69.4339 39.3602 69.0497 39.3559 68.6656C39.3658 66.5457 39.3658 66.5457 40.2344 65.625C40.8956 65.2944 41.6474 65.3955 42.375 65.392Z" fill="#ED3939"/>
</g>
<defs>
<clipPath id="clip0_12_861">
<rect width="100" height="100" fill="white"/>
</clipPath>
</defs>
</svg>
