<svg width="100" height="100" viewBox="0 0 100 100" fill="none" xmlns="http://www.w3.org/2000/svg">
<path d="M22.2546 0.096097C22.4447 0.0948782 22.6347 0.0936595 22.8305 0.0924038C23.4645 0.089299 24.0983 0.0917518 24.7322 0.0942135C25.1879 0.0931544 25.6435 0.0917631 26.0992 0.090065C27.3348 0.0865064 28.5704 0.0878831 29.806 0.0903611C30.9686 0.0921398 32.1311 0.0907814 33.2937 0.0896368C35.7365 0.0874113 38.1793 0.0899669 40.6222 0.0941683C42.7163 0.0976586 44.8104 0.0970522 46.9046 0.0934505C49.3389 0.0892657 51.7732 0.0876258 54.2076 0.0900226C55.4953 0.09124 56.783 0.0914047 58.0707 0.0888222C59.2814 0.0865638 60.492 0.0881341 61.7027 0.0926459C62.1468 0.093678 62.5908 0.0933837 63.0349 0.0916594C63.6416 0.0895209 64.2481 0.0922066 64.8548 0.096097C65.03 0.0943542 65.2053 0.0926115 65.3858 0.0908159C66.7435 0.107674 67.7691 0.459313 68.7973 1.36031C68.9025 1.48746 69.0078 1.6146 69.1162 1.7456C69.2245 1.87224 69.3327 1.99888 69.4443 2.12935C69.974 2.89816 70.1667 3.57934 70.1553 4.5082C70.1541 4.6901 70.1528 4.87201 70.1515 5.05942C70.1482 5.24687 70.145 5.43431 70.1416 5.62743C70.1398 5.81865 70.1381 6.00987 70.1363 6.20688C70.1317 6.67703 70.1253 7.14708 70.1172 7.61718C70.3624 7.60811 70.6076 7.59905 70.8603 7.58971C74.7275 7.48774 74.7275 7.48774 76.1803 8.74328C77.7106 10.3461 77.8185 11.9368 77.771 14.0625C77.7684 14.2883 77.7657 14.5142 77.763 14.7468C77.7561 15.3001 77.7465 15.8531 77.7344 16.4062C78.0184 16.4315 78.0184 16.4315 78.3081 16.4574C83.4353 16.9704 87.6692 19.1379 91.4063 22.6562C91.5263 22.7637 91.6464 22.8713 91.7702 22.982C95.4155 26.376 97.5012 31.8122 97.7188 36.6928C97.8844 42.8907 96.0192 48.3597 91.7969 52.9297C91.669 53.0734 91.5411 53.2172 91.4093 53.3653C87.9885 57.0273 83.1832 58.8997 78.3203 59.5703C78.127 59.5703 77.9336 59.5703 77.7344 59.5703C77.7351 59.7569 77.7358 59.9435 77.7366 60.1358C77.7539 64.679 77.7667 69.2222 77.7749 73.7654C77.7789 75.9625 77.7844 78.1596 77.7933 80.3566C77.8011 82.2719 77.8061 84.1871 77.8079 86.1023C77.8089 87.1162 77.8113 88.13 77.817 89.1439C77.8223 90.0989 77.8239 91.0538 77.8227 92.0088C77.823 92.3586 77.8245 92.7084 77.8275 93.0582C77.8551 96.4354 77.8551 96.4354 76.9531 97.8516C76.8484 98.0288 76.7437 98.206 76.6357 98.3887C75.1862 99.7619 73.6035 99.9467 71.681 99.9274C71.4316 99.9288 71.1822 99.9301 70.9252 99.9316C70.2378 99.9352 69.5505 99.9329 68.8631 99.9295C68.1199 99.9269 67.3768 99.9299 66.6336 99.9322C65.1798 99.9358 63.726 99.9341 62.2721 99.9306C61.0904 99.9278 59.9087 99.9271 58.7269 99.9277C58.4743 99.9279 58.4743 99.9279 58.2166 99.928C57.8745 99.9282 57.5323 99.9284 57.1902 99.9287C54.1674 99.9303 51.1447 99.9271 48.1219 99.9213C45.1903 99.9156 42.2588 99.9142 39.3271 99.9173C36.1324 99.9205 32.9377 99.9213 29.743 99.9179C29.4023 99.9175 29.0615 99.9172 28.7208 99.9168C28.5531 99.9166 28.3855 99.9165 28.2128 99.9163C27.0326 99.9152 25.8524 99.9158 24.6721 99.9171C23.2337 99.9186 21.7954 99.9173 20.357 99.9124C19.6234 99.91 18.8899 99.9088 18.1563 99.911C17.3606 99.9133 16.5651 99.9095 15.7694 99.9052C15.5382 99.9068 15.307 99.9084 15.0688 99.9101C13.53 99.8946 12.5083 99.6634 11.2877 98.674C9.62662 96.7745 9.68537 94.7786 9.76563 92.3828C9.5345 92.3919 9.30338 92.4009 9.06525 92.4103C5.31985 92.5153 5.31985 92.5153 3.84674 91.1995C2.74825 90.0404 2.2956 89.0492 2.2935 87.4345C2.29224 87.1883 2.29098 86.9421 2.28969 86.6885C2.29026 86.4168 2.29087 86.1451 2.29152 85.8734C2.29079 85.5837 2.28989 85.2939 2.28884 85.0041C2.28645 84.2085 2.2865 83.4128 2.28696 82.6172C2.28704 81.7588 2.28488 80.9005 2.28303 80.0421C2.27979 78.3607 2.27871 76.6793 2.2785 74.9978C2.27831 73.6311 2.27751 72.2643 2.27627 70.8976C2.27283 67.0225 2.27103 63.1474 2.27132 59.2723C2.27134 59.0634 2.27135 58.8545 2.27137 58.6393C2.27138 58.4301 2.2714 58.221 2.27141 58.0055C2.27157 54.6156 2.26784 51.2257 2.26233 47.8359C2.25672 44.3551 2.25402 40.8743 2.25436 37.3935C2.25449 35.4393 2.25341 33.4852 2.24921 31.531C2.24565 29.8672 2.2448 28.2035 2.24746 26.5397C2.24873 25.691 2.24875 24.8423 2.24536 23.9936C2.24229 23.2161 2.24285 22.4387 2.24626 21.6613C2.24686 21.3805 2.24615 21.0998 2.24397 20.8191C2.2308 19.0006 2.37125 17.6299 3.46079 16.1434C3.57326 16.0308 3.68574 15.9182 3.80162 15.8022C3.93191 15.6695 4.0622 15.5367 4.19643 15.3999C4.40769 15.1921 4.40769 15.1921 4.62322 14.9801C4.77323 14.8287 4.92323 14.6773 5.07778 14.5213C5.57091 14.0249 6.06747 13.5321 6.56433 13.0394C6.90995 12.6936 7.2554 12.3477 7.6007 12.0016C8.41588 11.1858 9.23347 10.3725 10.052 9.56003C10.703 8.91347 11.3518 8.26473 11.9993 7.61465C12.895 6.71544 13.7925 5.81817 14.6918 4.92257C15.0334 4.58198 15.3745 4.24083 15.715 3.89911C16.1917 3.42136 16.6708 2.94622 17.1507 2.47168C17.2899 2.33114 17.4292 2.19061 17.5727 2.04581C17.7052 1.91581 17.8377 1.7858 17.9742 1.65186C18.0869 1.53964 18.1997 1.42742 18.3159 1.3118C19.5818 0.334178 20.6735 0.080374 22.2546 0.096097Z" fill="#CE9655"/>
<path d="M22.2546 0.096097C22.4447 0.0948782 22.6347 0.0936595 22.8305 0.0924038C23.4645 0.089299 24.0983 0.0917518 24.7322 0.0942135C25.1879 0.0931544 25.6435 0.0917631 26.0992 0.090065C27.3348 0.0865064 28.5704 0.0878831 29.806 0.0903611C30.9686 0.0921398 32.1311 0.0907814 33.2937 0.0896368C35.7365 0.0874113 38.1793 0.0899669 40.6222 0.0941683C42.7163 0.0976586 44.8104 0.0970522 46.9046 0.0934505C49.3389 0.0892657 51.7732 0.0876258 54.2076 0.0900226C55.4953 0.09124 56.783 0.0914047 58.0707 0.0888222C59.2814 0.0865638 60.492 0.0881341 61.7027 0.0926459C62.1468 0.093678 62.5908 0.0933837 63.0349 0.0916594C63.6416 0.0895209 64.2481 0.0922066 64.8548 0.096097C65.03 0.0943542 65.2053 0.0926115 65.3858 0.0908159C66.7435 0.107674 67.7691 0.459313 68.7973 1.36031C68.9025 1.48746 69.0078 1.6146 69.1162 1.7456C69.2245 1.87224 69.3327 1.99888 69.4443 2.12935C69.974 2.89816 70.1667 3.57934 70.1553 4.5082C70.1541 4.6901 70.1528 4.87201 70.1515 5.05942C70.1482 5.24687 70.145 5.43431 70.1416 5.62743C70.1398 5.81865 70.1381 6.00987 70.1363 6.20688C70.1317 6.67703 70.1253 7.14708 70.1172 7.61718C70.3624 7.60811 70.6076 7.59905 70.8603 7.58971C74.7275 7.48774 74.7275 7.48774 76.1803 8.74328C77.7106 10.3461 77.8185 11.9368 77.771 14.0625C77.7684 14.2883 77.7657 14.5142 77.763 14.7468C77.7561 15.3001 77.7465 15.8531 77.7344 16.4062C78.0184 16.4315 78.0184 16.4315 78.3081 16.4574C83.4353 16.9704 87.6692 19.1379 91.4063 22.6562C91.5263 22.7637 91.6464 22.8713 91.7702 22.982C95.4155 26.376 97.5012 31.8122 97.7188 36.6928C97.8844 42.8907 96.0192 48.3597 91.7969 52.9297C91.669 53.0734 91.5411 53.2172 91.4093 53.3653C87.9885 57.0273 83.1832 58.8997 78.3203 59.5703C78.127 59.5703 77.9336 59.5703 77.7344 59.5703C77.7351 59.7569 77.7358 59.9435 77.7366 60.1358C77.7539 64.679 77.7667 69.2222 77.7749 73.7654C77.7789 75.9625 77.7844 78.1596 77.7933 80.3566C77.8011 82.2719 77.8061 84.1871 77.8079 86.1023C77.8089 87.1162 77.8113 88.13 77.817 89.1439C77.8223 90.0989 77.8239 91.0538 77.8227 92.0088C77.823 92.3586 77.8245 92.7084 77.8275 93.0582C77.8551 96.4354 77.8551 96.4354 76.9531 97.8516C76.8484 98.0288 76.7437 98.206 76.6357 98.3887C75.1862 99.7619 73.6035 99.9467 71.681 99.9274C71.4316 99.9288 71.1822 99.9301 70.9252 99.9316C70.2378 99.9352 69.5505 99.9329 68.8631 99.9295C68.1199 99.9269 67.3768 99.9299 66.6336 99.9322C65.1798 99.9358 63.726 99.9341 62.2721 99.9306C61.0904 99.9278 59.9087 99.9271 58.7269 99.9277C58.4743 99.9279 58.4743 99.9279 58.2166 99.928C57.8745 99.9282 57.5323 99.9284 57.1902 99.9287C54.1674 99.9303 51.1447 99.9271 48.1219 99.9213C45.1903 99.9156 42.2588 99.9142 39.3271 99.9173C36.1324 99.9205 32.9377 99.9213 29.743 99.9179C29.4023 99.9175 29.0615 99.9172 28.7208 99.9168C28.5531 99.9166 28.3855 99.9165 28.2128 99.9163C27.0326 99.9152 25.8524 99.9158 24.6721 99.9171C23.2337 99.9186 21.7954 99.9173 20.357 99.9124C19.6234 99.91 18.8899 99.9088 18.1563 99.911C17.3606 99.9133 16.5651 99.9095 15.7694 99.9052C15.5382 99.9068 15.307 99.9084 15.0688 99.9101C13.53 99.8946 12.5083 99.6634 11.2877 98.674C9.62662 96.7745 9.68537 94.7786 9.76563 92.3828C9.5345 92.3919 9.30338 92.4009 9.06525 92.4103C5.31985 92.5153 5.31985 92.5153 3.84674 91.1995C2.74825 90.0404 2.2956 89.0492 2.2935 87.4345C2.29224 87.1883 2.29098 86.9421 2.28969 86.6885C2.29026 86.4168 2.29087 86.1451 2.29152 85.8734C2.29079 85.5837 2.28989 85.2939 2.28884 85.0041C2.28645 84.2085 2.2865 83.4128 2.28696 82.6172C2.28704 81.7588 2.28488 80.9005 2.28303 80.0421C2.27979 78.3607 2.27871 76.6793 2.2785 74.9978C2.27831 73.6311 2.27751 72.2643 2.27627 70.8976C2.27283 67.0225 2.27103 63.1474 2.27132 59.2723C2.27134 59.0634 2.27135 58.8545 2.27137 58.6393C2.27138 58.4301 2.2714 58.221 2.27141 58.0055C2.27157 54.6156 2.26784 51.2257 2.26233 47.8359C2.25672 44.3551 2.25402 40.8743 2.25436 37.3935C2.25449 35.4393 2.25341 33.4852 2.24921 31.531C2.24565 29.8672 2.2448 28.2035 2.24746 26.5397C2.24873 25.691 2.24875 24.8423 2.24536 23.9936C2.24229 23.2161 2.24285 22.4387 2.24626 21.6613C2.24686 21.3805 2.24615 21.0998 2.24397 20.8191C2.2308 19.0006 2.37125 17.6299 3.46079 16.1434C3.57326 16.0308 3.68574 15.9182 3.80162 15.8022C3.93191 15.6695 4.0622 15.5367 4.19643 15.3999C4.40769 15.1921 4.40769 15.1921 4.62322 14.9801C4.77323 14.8287 4.92323 14.6773 5.07778 14.5213C5.57091 14.0249 6.06747 13.5321 6.56433 13.0394C6.90995 12.6936 7.2554 12.3477 7.6007 12.0016C8.41588 11.1858 9.23347 10.3725 10.052 9.56003C10.703 8.91347 11.3518 8.26473 11.9993 7.61465C12.895 6.71544 13.7925 5.81817 14.6918 4.92257C15.0334 4.58198 15.3745 4.24083 15.715 3.89911C16.1917 3.42136 16.6708 2.94622 17.1507 2.47168C17.2899 2.33114 17.4292 2.19061 17.5727 2.04581C17.7052 1.91581 17.8377 1.7858 17.9742 1.65186C18.0869 1.53964 18.1997 1.42742 18.3159 1.3118C19.5818 0.334178 20.6735 0.080374 22.2546 0.096097ZM22.0703 3.3203C22.0696 3.47501 22.0689 3.62972 22.0682 3.78912C22.0607 5.25443 22.0496 6.71965 22.0344 8.1849C22.0267 8.93802 22.0204 9.69109 22.0174 10.4442C22.0144 11.1725 22.0076 11.9006 21.9984 12.6288C21.9955 12.9052 21.9939 13.1816 21.9938 13.458C21.9917 15.2003 21.9761 16.9774 20.7578 18.3462C19.7236 19.3257 18.6287 19.5776 17.2204 19.5935C17.0926 19.5955 16.9648 19.5974 16.8331 19.5995C16.4146 19.6054 15.9962 19.6088 15.5777 19.6121C15.286 19.6158 14.9943 19.6196 14.7026 19.6236C13.9377 19.6336 13.1729 19.6413 12.4081 19.6486C11.6264 19.6564 10.8448 19.6664 10.0632 19.6762C8.53172 19.6951 7.00025 19.7116 5.46875 19.7266C5.45535 28.3936 5.44502 37.0607 5.43883 45.7278C5.4381 46.7504 5.43734 47.7731 5.43656 48.7957C5.43641 48.9993 5.43626 49.2029 5.4361 49.4127C5.43355 52.7116 5.42893 56.0105 5.42354 59.3094C5.41807 62.6931 5.41481 66.0767 5.41362 69.4604C5.41282 71.5491 5.41027 73.6379 5.40552 75.7267C5.40243 77.158 5.40148 78.5893 5.40225 80.0206C5.40262 80.8471 5.40204 81.6735 5.39891 82.5C5.39606 83.2562 5.39591 84.0124 5.39791 84.7687C5.39816 85.0426 5.39741 85.3166 5.39558 85.5905C5.39323 85.9623 5.39484 86.3341 5.39665 86.7059C5.39643 86.9126 5.39621 87.1193 5.39598 87.3323C5.48004 87.9772 5.67202 88.3456 6.05469 88.8672C6.54376 89.1117 6.87402 89.0874 7.42153 89.0882C7.73323 89.0893 7.73323 89.0893 8.05123 89.0904C8.39641 89.0902 8.39641 89.0902 8.74855 89.0899C8.99159 89.0905 9.23463 89.0911 9.48504 89.0917C10.1618 89.0931 10.8386 89.0936 11.5155 89.0937C12.2445 89.0941 12.9736 89.0956 13.7027 89.0969C15.2978 89.0996 16.893 89.1007 18.4882 89.1016C19.4836 89.1021 20.4791 89.103 21.4745 89.1038C24.229 89.1062 26.9835 89.1082 29.7379 89.1089C29.9143 89.1089 30.0907 89.109 30.2724 89.109C30.5376 89.1091 30.5376 89.1091 30.8082 89.1091C31.1665 89.1092 31.5248 89.1093 31.8831 89.1094C32.1496 89.1095 32.1496 89.1095 32.4216 89.1095C35.3026 89.1103 38.1835 89.1137 41.0645 89.1183C44.0202 89.1229 46.9759 89.1253 49.9316 89.1256C51.592 89.1257 53.2524 89.1269 54.9128 89.1304C56.3264 89.1334 57.74 89.1344 59.1537 89.1328C59.8753 89.132 60.5969 89.1322 61.3185 89.135C62.0999 89.1379 62.8813 89.1363 63.6628 89.1343C63.892 89.1358 64.1213 89.1374 64.3575 89.139C64.6707 89.1371 64.6707 89.1371 64.9903 89.1351C65.1707 89.1353 65.3512 89.1354 65.5371 89.1355C66.1139 89.0475 66.3783 88.8782 66.7969 88.4766C67.0132 87.8275 67.0162 87.3473 67.0157 86.6634C67.0159 86.4063 67.0162 86.1491 67.0165 85.8841C67.0158 85.5985 67.0151 85.3128 67.0144 85.0272C67.0143 84.7269 67.0143 84.4266 67.0144 84.1264C67.0145 83.3105 67.0134 82.4946 67.012 81.6787C67.0108 80.8263 67.0107 79.9739 67.0104 79.1215C67.0098 77.5071 67.0082 75.8926 67.0063 74.2782C67.0041 72.4403 67.003 70.6025 67.002 68.7646C67 64.9837 66.9965 61.2028 66.9922 57.4219C66.7092 57.2616 66.7092 57.2616 66.4205 57.098C66.1711 56.9562 65.9216 56.8144 65.6721 56.6726C65.548 56.6023 65.4239 56.5321 65.2961 56.4597C60.9614 53.9921 57.6108 50.0541 56.0074 45.3201C55.9549 45.1683 55.9024 45.0164 55.8484 44.8599C55.7208 44.4903 55.5946 44.1202 55.4688 43.75C55.2984 43.7497 55.1279 43.7494 54.9524 43.7491C50.8088 43.7419 46.6653 43.7304 42.5218 43.7141C40.518 43.7063 38.5143 43.7 36.5105 43.6971C34.7643 43.6945 33.0181 43.6893 31.2719 43.6807C30.347 43.6763 29.4222 43.6732 28.4973 43.6734C27.6271 43.6736 26.757 43.6701 25.8869 43.6638C25.5672 43.6622 25.2475 43.6618 24.9279 43.6629C24.4918 43.6642 24.0561 43.6607 23.6201 43.656C23.376 43.6553 23.1318 43.6546 22.8803 43.6539C22.152 43.5363 21.9192 43.3598 21.4844 42.7734C21.3867 42.1875 21.3867 42.1875 21.4844 41.6016C21.916 41.0228 22.1483 40.8396 22.8681 40.7211C23.1065 40.7204 23.3448 40.7197 23.5904 40.7189C23.79 40.7167 23.79 40.7167 23.9937 40.7145C24.4393 40.7105 24.8848 40.7121 25.3305 40.7137C25.6501 40.712 25.9696 40.7099 26.2892 40.7076C27.1567 40.7021 28.0242 40.7015 28.8918 40.7017C29.7984 40.701 30.705 40.696 31.6116 40.6915C33.3284 40.6836 35.0452 40.6796 36.762 40.677C38.7166 40.674 40.6711 40.6664 42.6256 40.6586C46.6462 40.6425 50.6669 40.6321 54.6875 40.625C54.6875 38.9492 54.6875 37.2734 54.6875 35.5469C54.2826 35.5453 53.8777 35.5437 53.4606 35.5421C49.6524 35.527 45.8442 35.5099 42.036 35.4907C40.078 35.4809 38.12 35.4718 36.1619 35.4645C34.4557 35.458 32.7495 35.4503 31.0433 35.4409C30.1395 35.4359 29.2358 35.4317 28.332 35.429C27.4818 35.4265 26.6317 35.4222 25.7816 35.4165C25.4691 35.4147 25.1566 35.4136 24.8441 35.4132C24.4184 35.4126 23.9927 35.4096 23.5669 35.4059C23.3284 35.4049 23.0898 35.4038 22.8441 35.4027C22.2656 35.3516 22.2656 35.3516 21.6797 34.9609C21.4193 33.8845 21.4193 33.8845 21.4844 33.3984C21.9208 32.8214 22.1546 32.6352 22.8773 32.518C23.1199 32.5173 23.3626 32.5166 23.6127 32.5158C23.8159 32.5136 23.8159 32.5136 24.0232 32.5114C24.4769 32.5074 24.9305 32.509 25.3843 32.5106C25.7096 32.5089 26.035 32.5068 26.3603 32.5044C27.2435 32.499 28.1268 32.4983 29.0101 32.4985C29.9331 32.4979 30.8561 32.4929 31.7792 32.4884C33.5271 32.4804 35.275 32.4765 37.023 32.4739C39.013 32.4708 41.0029 32.4633 42.9928 32.4554C47.0864 32.4393 51.1799 32.4288 55.2734 32.4219C55.5263 31.7955 55.7783 31.1688 56.0303 30.542C56.1015 30.3655 56.1728 30.189 56.2462 30.0072C56.3154 29.8347 56.3847 29.6622 56.456 29.4845C56.5194 29.327 56.5828 29.1695 56.6482 29.0072C56.858 28.4579 57.044 27.9027 57.2266 27.3437C57.0483 27.3436 56.87 27.3435 56.6863 27.3434C52.3504 27.3405 48.0145 27.3322 43.6785 27.3179C41.5817 27.3112 39.4849 27.3062 37.3881 27.3055C35.5607 27.305 33.7333 27.301 31.9059 27.2929C30.9381 27.2887 29.9704 27.2862 29.0026 27.2879C28.0919 27.2893 27.1812 27.2862 26.2705 27.2797C25.9361 27.2781 25.6017 27.2781 25.2674 27.28C24.8108 27.2822 24.3547 27.2785 23.8982 27.2733C23.515 27.2725 23.515 27.2725 23.1241 27.2716C22.2906 27.1168 21.9997 26.8324 21.4844 26.1719C21.3865 25.5602 21.3538 25.2047 21.6912 24.6756C22.2726 24.2745 22.8652 24.3411 23.546 24.3546C23.7736 24.3555 23.7736 24.3555 24.0057 24.3565C24.5158 24.3593 25.0258 24.3662 25.5358 24.373C25.9009 24.3757 26.266 24.3781 26.6311 24.3803C27.4186 24.3853 28.2061 24.3919 28.9935 24.3995C30.2406 24.4111 31.4876 24.4159 32.7346 24.4193C33.1618 24.4205 33.5889 24.4217 34.016 24.4229C34.23 24.4235 34.4439 24.4241 34.6644 24.4247C37.5678 24.4333 40.4712 24.447 43.3745 24.4763C45.3324 24.496 47.2901 24.5059 49.2481 24.5047C50.2837 24.5045 51.3188 24.5093 52.3543 24.5261C53.3303 24.5419 54.3056 24.5448 55.2817 24.5381C55.6381 24.5379 55.9944 24.5423 56.3507 24.5519C58.5091 24.6088 58.5091 24.6088 60.3634 23.6229C60.9563 23.057 61.4798 22.4444 62.0031 21.8147C63.0772 20.6383 64.5765 19.8668 65.9598 19.1154C66.2498 18.9577 66.2498 18.9577 66.5457 18.7969C66.6931 18.7169 66.8404 18.637 66.9922 18.5547C67.0103 16.7092 67.0242 14.8637 67.0327 13.0182C67.0367 12.1612 67.0423 11.3043 67.0511 10.4474C67.0596 9.62044 67.0643 8.79355 67.0663 7.96655C67.0678 7.65101 67.0706 7.33547 67.0748 7.01996C67.0805 6.57803 67.0812 6.13634 67.0809 5.69438C67.0826 5.44283 67.0844 5.19127 67.0861 4.9321C66.9761 4.188 66.798 3.96788 66.2109 3.51562C65.5597 3.18999 64.8284 3.29441 64.1124 3.29682C63.8439 3.29657 63.8439 3.29657 63.57 3.29631C62.9666 3.29599 62.3632 3.29707 61.7599 3.29813C61.3288 3.29819 60.8977 3.29815 60.4666 3.29804C59.2932 3.29799 58.1197 3.29914 56.9463 3.3005C55.7212 3.30172 54.496 3.30184 53.2709 3.30207C51.2135 3.30261 49.1562 3.30383 47.0988 3.30557C44.9795 3.30736 42.8602 3.30874 40.7409 3.30957C40.6103 3.30963 40.4797 3.30968 40.3452 3.30973C39.6901 3.30998 39.0351 3.31023 38.38 3.31047C32.9434 3.31252 27.5069 3.31596 22.0703 3.3203Z" fill="#5F372A"/>
<path d="M87.1178 23.1827C90.4654 25.7918 92.797 29.1022 93.9453 33.2031C93.9869 33.3429 94.0284 33.4826 94.0712 33.6266C95.3256 38.148 94.4024 43.0204 92.1875 47.0703C91.6604 47.9626 91.0661 48.791 90.4297 49.6094C90.3176 49.7549 90.2056 49.9004 90.0902 50.0504C87.2507 53.5065 83.0536 55.5514 78.7109 56.25C78.5191 56.286 78.3272 56.322 78.1296 56.3591C73.5361 57.0297 68.7868 55.5305 65.0599 52.8601C61.1476 49.8888 58.629 45.5886 57.7515 40.7593C57.0933 35.532 58.3896 30.8094 61.5478 26.5945C67.775 18.7025 79.0257 17.2558 87.1178 23.1827Z" fill="#CD9555"/>
<path d="M20.2864 52.3203C20.5252 52.3209 20.5252 52.3209 20.7688 52.3216C20.9486 52.3216 21.1285 52.3216 21.3138 52.3216C21.5093 52.3226 21.7048 52.3236 21.9063 52.3247C22.1054 52.3249 22.3046 52.3252 22.5097 52.3255C23.1486 52.3266 23.7874 52.3291 24.4263 52.3315C24.8582 52.3325 25.2902 52.3334 25.7221 52.3342C26.7835 52.3364 27.8449 52.3396 28.9062 52.3437C28.9091 52.5516 28.9119 52.7595 28.9149 52.9737C28.9262 53.7472 28.9413 54.5207 28.9575 55.2942C28.964 55.6285 28.9695 55.9629 28.9739 56.2972C28.9805 56.7788 28.9907 57.2601 29.0016 57.7415C29.0029 57.8903 29.0041 58.0391 29.0054 58.1923C29.0296 59.0728 29.1383 59.6542 29.6875 60.3516C30.2876 60.7516 30.4437 60.7997 31.1279 60.8032C31.2745 60.8065 31.421 60.8098 31.572 60.8131C32.7699 60.6281 33.7245 59.5981 34.6313 58.8501C34.8483 58.6724 34.8483 58.6724 35.0697 58.4911C35.4245 58.2004 35.7789 57.909 36.1328 57.6172C36.7962 58.037 37.4055 58.472 37.9982 58.9874C38.1187 59.0906 38.2391 59.1939 38.3633 59.3002C38.6099 59.513 38.8541 59.7287 39.0957 59.9472C39.9334 60.6535 40.5072 60.8613 41.6056 60.8031C42.1887 60.7112 42.526 60.5469 42.9688 60.1562C43.5252 59.247 43.6453 58.4622 43.6546 57.4173C43.6599 57.1987 43.6599 57.1987 43.6653 56.9757C43.6758 56.5141 43.6824 56.0525 43.689 55.5908C43.6954 55.2762 43.7022 54.9616 43.7092 54.6471C43.7257 53.8793 43.7388 53.1116 43.75 52.3437C44.9981 52.3388 46.2462 52.3354 47.4944 52.333C47.9193 52.332 48.3443 52.3307 48.7692 52.329C49.3786 52.3266 49.988 52.3255 50.5974 52.3247C50.8842 52.3232 50.8842 52.3232 51.1769 52.3216C51.3529 52.3216 51.5288 52.3216 51.7101 52.3216C51.9436 52.3209 51.9436 52.3209 52.1819 52.3203C52.5391 52.3437 52.5391 52.3437 52.7344 52.5391C52.7532 52.8999 52.7582 53.2615 52.7579 53.6229C52.7583 53.975 52.7583 53.975 52.7587 54.3343C52.758 54.5979 52.7573 54.8615 52.7565 55.1251C52.7565 55.4047 52.7565 55.6844 52.7566 55.9641C52.7567 56.7155 52.7555 57.467 52.7542 58.2184C52.753 58.9226 52.753 59.6268 52.7529 60.3309C52.7518 62.3927 52.7491 64.4544 52.7466 66.5161C52.7426 71.1205 52.7385 75.7248 52.7344 80.4687C41.8418 80.4687 30.9492 80.4687 19.7266 80.4687C19.7225 75.8644 19.7185 71.26 19.7144 66.5161C19.7126 65.0598 19.7108 63.6034 19.709 62.1029C19.7081 60.3309 19.7081 60.3309 19.7079 59.5026C19.7077 58.9214 19.707 58.3402 19.7059 57.759C19.7046 57.019 19.7042 56.279 19.7045 55.539C19.7044 55.2666 19.704 54.9942 19.7033 54.7217C19.7023 54.3554 19.7027 53.9891 19.7031 53.6229C19.7029 53.4171 19.7027 53.2113 19.7025 52.9993C19.7361 52.3557 19.7361 52.3557 20.2864 52.3203Z" fill="#CE9655"/>
<path d="M20.6712 49.1913C20.8078 49.1907 20.9444 49.1902 21.0851 49.1896C21.5439 49.1879 22.0027 49.1876 22.4615 49.1873C22.79 49.1864 23.1185 49.1854 23.447 49.1843C24.3405 49.1818 25.234 49.1805 26.1274 49.1796C26.6858 49.1791 27.2441 49.1783 27.8024 49.1774C29.5496 49.1747 31.2968 49.1728 33.044 49.1721C35.0602 49.1712 37.0764 49.1678 39.0926 49.1621C40.6513 49.1579 42.21 49.1559 43.7687 49.1557C44.6995 49.1555 45.6302 49.1543 46.561 49.1508C47.4371 49.1476 48.3131 49.1472 49.1893 49.1489C49.5102 49.149 49.8311 49.1482 50.152 49.1463C53.6628 49.1264 53.6628 49.1264 54.8943 50.1335C54.9831 50.2466 55.072 50.3596 55.1636 50.4761C55.256 50.5886 55.3484 50.7012 55.4436 50.8171C55.9003 51.552 55.8848 52.293 55.8881 53.1414C55.8902 53.5069 55.8902 53.5069 55.8924 53.8798C55.8929 54.1493 55.8934 54.4189 55.8939 54.6884C55.8952 54.9727 55.8965 55.257 55.8978 55.5413C55.9019 56.4744 55.904 57.4074 55.9059 58.3404C55.9067 58.6621 55.9075 58.9837 55.9083 59.3053C55.912 60.8164 55.9148 62.3274 55.9165 63.8385C55.9184 65.581 55.9235 67.3235 55.9314 69.066C55.9373 70.414 55.9402 71.7621 55.9408 73.1102C55.9413 73.9148 55.943 74.7193 55.948 75.5239C55.9525 76.2812 55.9533 77.0384 55.9513 77.7958C55.9512 78.0729 55.9524 78.3501 55.9551 78.6272C55.9692 80.1656 55.9447 81.3167 55.0781 82.6172C54.0289 83.4523 53.2709 83.6181 51.9527 83.6225C51.8127 83.6232 51.6726 83.6239 51.5283 83.6247C51.0579 83.6268 50.5874 83.6276 50.1169 83.6283C49.78 83.6295 49.4432 83.6308 49.1063 83.6322C48.1903 83.6356 47.2742 83.6377 46.3582 83.6393C45.786 83.6403 45.2138 83.6415 44.6416 83.6427C42.8517 83.6464 41.0617 83.6492 39.2718 83.6508C37.2049 83.6527 35.1381 83.6579 33.0713 83.6658C31.4741 83.6717 29.8769 83.6745 28.2797 83.6752C27.3256 83.6757 26.3715 83.6774 25.4174 83.6823C24.5198 83.6869 23.6223 83.6877 22.7247 83.6857C22.3954 83.6856 22.0662 83.6868 21.7369 83.6895C21.2869 83.693 20.8373 83.6916 20.3873 83.689C20.1356 83.6895 19.884 83.6899 19.6247 83.6904C18.5136 83.5323 17.7075 82.8743 16.9922 82.0312C16.6249 81.2784 16.5516 80.6689 16.548 79.8355C16.5461 79.5899 16.5441 79.3444 16.5421 79.0913C16.5419 78.8206 16.5418 78.5499 16.5417 78.2793C16.5402 77.993 16.5386 77.7068 16.5368 77.4205C16.5325 76.6441 16.5308 75.8677 16.5298 75.0912C16.5291 74.6057 16.5279 74.1202 16.5265 73.6347C16.5217 71.9398 16.5191 70.2448 16.5184 68.5499C16.5177 66.9719 16.5119 65.394 16.5037 63.816C16.4969 62.4596 16.4939 61.1033 16.4938 59.7469C16.4936 58.9375 16.4919 58.1282 16.4864 57.3188C16.4812 56.5571 16.4808 55.7956 16.484 55.0339C16.4843 54.7552 16.483 54.4765 16.4799 54.1978C16.4636 52.6433 16.4737 51.3774 17.5781 50.1953C18.6266 49.3775 19.3607 49.1944 20.6712 49.1913ZM19.7266 52.5391C19.7077 52.8999 19.7028 53.2615 19.7031 53.6229C19.7028 53.8576 19.7025 54.0924 19.7023 54.3343C19.703 54.5979 19.7037 54.8615 19.7044 55.1251C19.7044 55.4048 19.7044 55.6844 19.7043 55.9641C19.7043 56.7155 19.7054 57.467 19.7068 58.2184C19.7079 58.9226 19.7079 59.6268 19.7081 60.3309C19.7091 62.3927 19.7118 64.4544 19.7144 66.5161C19.7184 71.1205 19.7224 75.7248 19.7266 80.4687C30.6191 80.4687 41.5117 80.4687 52.7344 80.4687C52.7384 75.8644 52.7424 71.26 52.7466 66.5161C52.7484 65.0598 52.7501 63.6034 52.752 62.1029C52.7526 60.8028 52.7526 60.8028 52.753 59.5026C52.7532 58.9214 52.7539 58.3402 52.755 57.759C52.7563 57.019 52.7567 56.279 52.7565 55.5391C52.7565 55.2666 52.7569 54.9942 52.7577 54.7217C52.7586 54.3554 52.7583 53.9892 52.7579 53.6229C52.758 53.4171 52.7582 53.2113 52.7584 52.9993C52.7863 52.5474 52.7863 52.5474 52.5391 52.3437C52.2632 52.3256 51.9865 52.3208 51.7101 52.3216C51.5341 52.3216 51.3582 52.3216 51.1769 52.3216C50.89 52.3231 50.89 52.3231 50.5974 52.3247C50.4026 52.3249 50.2078 52.3252 50.0071 52.3255C49.3821 52.3266 48.7572 52.3291 48.1323 52.3315C47.7098 52.3325 47.2872 52.3334 46.8647 52.3342C45.8265 52.3364 44.7882 52.3396 43.75 52.3437C43.7472 52.5388 43.7443 52.7338 43.7414 52.9347C43.73 53.6621 43.7149 54.3893 43.6987 55.1166C43.6923 55.4306 43.6868 55.7447 43.6823 56.0588C43.6757 56.5117 43.6655 56.9644 43.6546 57.4173C43.6534 57.5565 43.6521 57.6957 43.6509 57.8391C43.6244 58.7492 43.4436 59.3803 42.9688 60.1562C42.268 60.7746 41.6082 60.8387 40.7071 60.8267C39.829 60.6697 39.2657 60.0952 38.623 59.5093C38.358 59.2776 38.0925 59.0464 37.8265 58.8158C37.7038 58.7081 37.5811 58.6004 37.4546 58.4895C37.0407 58.1462 36.6063 57.8713 36.1328 57.6172C35.8749 57.8362 35.8749 57.8362 35.6117 58.0597C35.3826 58.254 35.1535 58.4483 34.9243 58.6426C34.8114 58.7385 34.6985 58.8344 34.5821 58.9333C34.2535 59.2117 33.9239 59.4889 33.5938 59.7656C33.4173 59.9137 33.2408 60.0617 33.0589 60.2142C32.3115 60.777 31.6136 60.8183 30.7083 60.8124C30.0123 60.7 29.7103 60.3083 29.2969 59.7656C28.9878 59.1475 29.0544 58.4784 29.0398 57.7988C29.0357 57.6432 29.0316 57.4877 29.0275 57.3275C29.0147 56.83 29.0032 56.3325 28.9917 55.835C28.9833 55.498 28.9747 55.161 28.9661 54.8241C28.9452 53.9973 28.9254 53.1705 28.9062 52.3437C27.6303 52.3388 26.3544 52.3354 25.0784 52.333C24.644 52.332 24.2096 52.3307 23.7751 52.329C23.1522 52.3267 22.5292 52.3255 21.9063 52.3247C21.7108 52.3237 21.5153 52.3227 21.3138 52.3216C21.134 52.3216 20.9541 52.3216 20.7688 52.3216C20.6096 52.3211 20.4504 52.3207 20.2864 52.3203C19.919 52.3036 19.919 52.3036 19.7266 52.5391Z" fill="#5F372A"/>
<path d="M70.1172 58.7891C71.5639 58.9107 72.9848 59.122 74.4141 59.375C74.4277 64.0981 74.4381 68.8212 74.4444 73.5443C74.4475 75.7373 74.4516 77.9302 74.4583 80.1231C74.4641 82.0341 74.4679 83.9451 74.4692 85.8562C74.47 86.8683 74.4718 87.8805 74.476 88.8927C74.48 89.8449 74.4812 90.7971 74.4803 91.7494C74.4805 92.0993 74.4817 92.4492 74.4839 92.7991C74.4868 93.2761 74.4861 93.753 74.4845 94.23C74.4862 94.3691 74.4879 94.5082 74.4897 94.6515C74.4843 95.245 74.4434 95.6501 74.1533 96.1736C73.5783 96.7231 73.0042 96.7045 72.2486 96.7064C72.0419 96.7074 71.8352 96.7084 71.6222 96.7094C71.3943 96.7095 71.1664 96.7096 70.9316 96.7097C70.6901 96.7106 70.4487 96.7115 70.1999 96.7123C69.5283 96.7145 68.8568 96.7158 68.1853 96.7167C67.4615 96.7178 66.7378 96.7201 66.014 96.7222C64.2658 96.727 62.5175 96.7298 60.7693 96.7324C60.2757 96.7331 59.7821 96.7339 59.2885 96.7347C56.2245 96.7396 53.1605 96.7439 50.0964 96.7463C49.3867 96.7469 48.677 96.7475 47.9673 96.7481C47.7909 96.7482 47.6146 96.7484 47.4328 96.7485C44.5734 96.751 41.7141 96.7575 38.8548 96.7656C35.9205 96.7739 32.9862 96.7785 30.0518 96.7795C28.4038 96.7802 26.7557 96.7825 25.1077 96.7889C23.7046 96.7944 22.3015 96.7965 20.8983 96.7943C20.1822 96.7933 19.4662 96.7939 18.7501 96.7987C17.9742 96.8039 17.1985 96.8016 16.4227 96.7984C16.1957 96.8011 15.9686 96.8039 15.7347 96.8067C14.8093 96.7975 14.2324 96.7824 13.4305 96.2977C12.9524 95.4727 12.977 94.8189 13.0249 93.8843C13.0315 93.6394 13.0315 93.6394 13.0383 93.3895C13.0497 92.9887 13.0672 92.588 13.0859 92.1875C13.1988 92.1875 13.3118 92.1876 13.4281 92.1876C20.1233 92.1893 26.8184 92.185 33.5136 92.1727C34.3179 92.1712 35.1222 92.1698 35.9264 92.1684C36.1666 92.168 36.1666 92.168 36.4116 92.1676C39.0026 92.1632 41.5936 92.163 44.1846 92.1643C46.8441 92.1655 49.5036 92.1623 52.1631 92.155C53.8036 92.1506 55.4439 92.1497 57.0844 92.1532C58.21 92.1553 59.3356 92.153 60.4613 92.1474C61.1103 92.1443 61.7591 92.1437 62.4082 92.147C63.1132 92.1502 63.8179 92.1463 64.5229 92.1405C64.8279 92.1445 64.8279 92.1445 65.139 92.1486C66.5964 92.1256 67.599 91.7189 68.75 90.8203C69.6614 89.7267 69.9693 88.6166 69.9763 87.2086C69.9784 86.9572 69.9806 86.7058 69.9829 86.4467C69.9833 86.1706 69.9838 85.8945 69.9842 85.6183C69.986 85.3256 69.988 85.033 69.9901 84.7403C69.9954 83.9479 69.9984 83.1554 70.0009 82.363C70.004 81.534 70.0092 80.7051 70.0142 79.8762C70.0233 78.3074 70.0305 76.7387 70.037 75.1699C70.0445 73.3835 70.0541 71.5971 70.064 69.8107C70.0841 66.1368 70.1016 62.463 70.1172 58.7891Z" fill="#FCD76C"/>
<path d="M87.1178 23.1827C90.4654 25.7918 92.797 29.1022 93.9453 33.2031C93.9869 33.3429 94.0284 33.4826 94.0712 33.6266C95.3256 38.148 94.4024 43.0204 92.1875 47.0703C91.6604 47.9626 91.0661 48.791 90.4297 49.6094C90.3176 49.7549 90.2056 49.9004 90.0902 50.0504C87.2507 53.5065 83.0536 55.5514 78.7109 56.25C78.5191 56.286 78.3272 56.322 78.1296 56.3591C73.5361 57.0297 68.7868 55.5305 65.0599 52.8601C61.1476 49.8888 58.629 45.5886 57.7515 40.7593C57.0933 35.532 58.3896 30.8094 61.5478 26.5945C67.775 18.7025 79.0257 17.2558 87.1178 23.1827ZM66.2109 25.9766C66.0569 26.0989 65.9028 26.2213 65.744 26.3474C62.8583 28.7521 60.8719 32.5984 60.5073 36.3442C60.2301 40.5984 61.3498 44.542 64.0625 47.8516C64.1682 47.989 64.274 48.1265 64.3829 48.2681C66.7356 51.1804 70.5372 53.0536 74.2187 53.5156C76.3036 53.7 78.2664 53.5471 80.2734 52.9297C80.4937 52.8655 80.714 52.8013 80.941 52.7351C84.7259 51.5211 87.7964 48.9311 89.7636 45.4788C91.6499 41.6645 92.2056 37.538 91.0156 33.3984C90.3398 31.4319 89.4075 29.7374 88.0859 28.125C87.9802 27.9875 87.8744 27.8501 87.7655 27.7084C85.3856 24.7625 81.4443 22.8473 77.6981 22.4113C73.4836 22.1049 69.474 23.285 66.2109 25.9766Z" fill="#FAD56B"/>
<path d="M85.3394 25.5005C85.6052 25.7227 85.8698 25.9464 86.1328 26.1719C86.2479 26.259 86.3629 26.3461 86.4815 26.4359C89.2213 28.5703 90.9652 32.2552 91.5138 35.6209C92.0654 40.0673 90.9368 44.0581 88.2812 47.6563C88.1873 47.7842 88.0934 47.9121 87.9967 48.0438C85.7188 50.906 81.9431 52.9466 78.3234 53.4668C73.9573 53.8288 69.8078 53.0184 66.3811 50.1228C66.2605 50.0179 66.1399 49.9129 66.0156 49.8047C65.8438 49.6744 65.8438 49.6744 65.6685 49.5415C62.8106 47.3187 61.0944 43.4796 60.6163 39.9697C60.1784 35.4799 61.2816 31.5584 64.1062 28.0042C69.3195 21.7134 78.8357 20.5406 85.3394 25.5005ZM66.4635 30.0507C64.1999 32.8458 63.389 36.1004 63.7268 39.6378C64.1985 42.749 65.7325 45.6477 68.1641 47.6563C69.5667 48.6453 71.0199 49.4722 72.6562 50C72.7864 50.0438 72.9166 50.0876 73.0507 50.1328C76.1623 51.0014 79.5165 50.3071 82.2998 48.7915C85.5367 46.7281 87.2817 44.0621 88.2812 40.4297C88.3203 40.3023 88.3593 40.1749 88.3995 40.0437C88.9889 37.0211 88.1848 33.8457 86.5616 31.2866C84.8482 28.7989 82.7228 27.1853 79.8828 26.1719C79.6947 26.1029 79.5067 26.0339 79.3129 25.9628C74.4984 24.5106 69.7503 26.4705 66.4635 30.0507Z" fill="#60382A"/>
<path d="M28.7522 7.49581C28.8919 7.49457 29.0316 7.49332 29.1756 7.49203C29.6427 7.48906 30.1096 7.49305 30.5767 7.49703C30.912 7.49635 31.2473 7.49524 31.5826 7.49375C32.4926 7.49096 33.4025 7.4943 34.3125 7.49888C35.2648 7.50281 36.217 7.50166 37.1693 7.5012C38.7685 7.50121 40.3677 7.50507 41.9669 7.51133C43.8158 7.51854 45.6647 7.52026 47.5136 7.51889C49.2922 7.51766 51.0707 7.51976 52.8493 7.52357C53.6062 7.52517 54.3632 7.5257 55.1201 7.52539C56.0114 7.52522 56.9027 7.528 57.7941 7.53305C58.1212 7.53445 58.4484 7.53486 58.7755 7.5342C59.2221 7.53348 59.6684 7.53636 60.115 7.54016C60.3649 7.54089 60.6147 7.54162 60.8722 7.54237C61.572 7.62278 61.9424 7.78055 62.5 8.20313C62.7743 8.75179 62.7439 9.15784 62.6953 9.76563C62.3477 10.3781 62.2025 10.5158 61.5234 10.7422C61.0699 10.7623 60.6159 10.7703 60.162 10.7723C60.0226 10.7731 59.8832 10.774 59.7396 10.7748C59.2713 10.7775 58.8031 10.7787 58.3348 10.7799C57.9996 10.7814 57.6643 10.783 57.3291 10.7847C56.2273 10.7898 55.1255 10.7928 54.0237 10.7956C53.6446 10.7966 53.2655 10.7977 52.8864 10.7987C51.3097 10.803 49.7331 10.8066 48.1565 10.8088C45.8958 10.812 43.6351 10.8185 41.3744 10.8296C39.7854 10.8372 38.1963 10.841 36.6073 10.842C35.6578 10.8427 34.7085 10.8451 33.759 10.8514C32.8661 10.8573 31.9732 10.8585 31.0803 10.8562C30.7525 10.8562 30.4247 10.8578 30.0969 10.8612C29.6494 10.8657 29.2023 10.8641 28.7548 10.8609C28.3792 10.8619 28.3792 10.8619 27.9961 10.8629C27.1696 10.71 26.8809 10.4177 26.3672 9.76563C26.2451 9.17969 26.2451 9.17969 26.3672 8.59376C27.1029 7.66064 27.5793 7.49516 28.7522 7.49581Z" fill="#5E362A"/>
<path d="M28.8683 15.7903C29.0066 15.7894 29.1449 15.7885 29.2874 15.7877C29.7531 15.785 30.2188 15.7838 30.6845 15.7826C31.0174 15.7811 31.3504 15.7795 31.6834 15.7778C32.779 15.7727 33.8745 15.7697 34.9701 15.7669C35.347 15.7659 35.7239 15.7648 36.1007 15.7638C37.6683 15.7595 39.2359 15.7559 40.8035 15.7537C43.0513 15.7505 45.2991 15.744 47.5469 15.7329C49.1266 15.7253 50.7064 15.7215 52.2861 15.7205C53.23 15.7198 54.1738 15.7174 55.1177 15.7111C56.0059 15.7052 56.8939 15.704 57.782 15.7063C58.1079 15.7063 58.4337 15.7047 58.7594 15.7013C59.2048 15.6968 59.6497 15.6985 60.095 15.7016C60.344 15.7009 60.593 15.7003 60.8496 15.6996C61.7458 15.8602 62.0634 16.1494 62.6953 16.7969C62.8296 17.3828 62.8296 17.3828 62.6953 17.9687C62.1794 18.6233 61.8903 18.9133 61.0609 19.0682C60.6813 19.0688 60.6813 19.0688 60.2941 19.0693C60.1527 19.0708 60.0112 19.0724 59.8655 19.0739C59.3925 19.0778 58.9198 19.0747 58.4468 19.0717C58.1074 19.073 57.7679 19.0747 57.4284 19.0769C56.5072 19.0813 55.586 19.0796 54.6647 19.0765C53.7009 19.074 52.737 19.0763 51.7732 19.0778C50.1547 19.0796 48.5364 19.0773 46.918 19.0726C45.0462 19.0673 43.1745 19.069 41.3027 19.0744C39.6961 19.0788 38.0894 19.0795 36.4828 19.0769C35.523 19.0754 34.5633 19.0752 33.6035 19.0784C32.7014 19.0812 31.7994 19.0793 30.8973 19.0736C30.566 19.0723 30.2346 19.0727 29.9033 19.0749C29.4515 19.0775 29.0001 19.0742 28.5482 19.0693C28.2953 19.069 28.0423 19.0686 27.7817 19.0682C27.1484 18.9453 27.1484 18.9453 26.6764 18.4867C26.2982 17.8532 26.2436 17.5227 26.3672 16.7969C27.1392 15.8447 27.6765 15.7955 28.8683 15.7903Z" fill="#60382A"/>
<path d="M75.9766 28.0029C76.729 28.1597 77.0369 28.318 77.5391 28.9062C77.5742 29.3152 77.5742 29.3152 77.5757 29.7729C77.5785 30.2393 77.5785 30.2393 77.7344 30.6641C78.2043 30.9988 78.6768 31.2022 79.2076 31.4262C79.8511 31.7137 80.1475 31.9892 80.4688 32.6172C80.5906 33.2088 80.5577 33.5568 80.4688 34.1797C80.0659 34.6802 80.0659 34.6802 79.4922 34.9609C78.6882 34.9609 78.2789 34.9029 77.6733 34.3628C76.9807 33.8635 76.4793 33.8984 75.6454 33.8997C75.107 34.001 74.9205 34.1221 74.6094 34.5703C74.6193 35.419 74.6193 35.419 75 36.1328C75.3859 36.1864 75.7727 36.2341 76.1597 36.2793C77.5913 36.4975 78.8892 36.7998 79.866 37.9341C80.7431 39.2123 81.0139 40.2535 80.8594 41.7969C80.5103 43.1689 79.7142 44.1719 78.5156 44.9219C77.9778 45.0562 77.9778 45.0562 77.5391 45.1172C77.5504 45.2491 77.5617 45.381 77.5734 45.517C77.645 46.9323 77.645 46.9323 77.1362 47.5952C76.3897 47.9288 75.9768 47.8733 75.1953 47.6562C74.8619 47.4052 74.8619 47.4052 74.6094 47.0703C74.5781 46.6629 74.5781 46.6629 74.5972 46.2158C74.584 45.7428 74.584 45.7428 74.4141 45.3125C73.9439 44.9779 73.4718 44.7744 72.9408 44.5503C72.2973 44.2629 72.001 43.9874 71.6797 43.3594C71.5342 42.5856 71.5566 41.9863 71.9971 41.3086C72.6139 40.919 72.9138 40.8862 73.6328 41.0156C73.9037 41.2676 74.1745 41.5196 74.4446 41.7725C75.1822 42.2226 76.1266 42.1479 76.9531 41.9922C77.3253 41.7585 77.3253 41.7585 77.5391 41.4062C77.5392 40.7075 77.5392 40.7075 77.3438 40.0391C76.6837 39.599 76.4324 39.6064 75.6592 39.5874C74.3175 39.4917 73.2863 39.139 72.345 38.1493C71.3799 36.8841 71.0993 35.5537 71.2891 33.9844C71.6542 32.6971 72.5392 31.7916 73.6328 31.0547C74.0723 30.9196 74.0723 30.9196 74.4141 30.8594C74.3939 30.6257 74.3738 30.3921 74.353 30.1514C74.3542 29.5085 74.4419 29.1304 74.8291 28.6133C75.3906 28.125 75.3906 28.125 75.9766 28.0029Z" fill="#5F372A"/>
<path d="M25.6775 69.5969C25.8949 69.5959 26.1123 69.595 26.3363 69.594C26.7953 69.5934 27.2543 69.5952 27.7133 69.5993C28.4156 69.6045 29.1172 69.5993 29.8195 69.5931C30.2658 69.5937 30.7121 69.595 31.1584 69.5969C31.3682 69.5949 31.578 69.5929 31.7941 69.5909C32.7136 69.6053 33.241 69.622 34.0195 70.139C34.4537 70.8281 34.4958 71.2345 34.491 72.0459C34.4905 72.3027 34.49 72.5595 34.4894 72.8241C34.4866 72.9569 34.4838 73.0897 34.4809 73.2266C34.4727 73.6317 34.4728 74.0363 34.4742 74.4415C34.4525 76.6523 34.4525 76.6523 33.7891 77.5391C33.3096 77.7788 32.9883 77.763 32.4521 77.769C32.1568 77.7727 32.1568 77.7727 31.8555 77.7766C31.6421 77.778 31.4287 77.7794 31.2088 77.7809C30.9901 77.7825 30.7714 77.7841 30.5461 77.7857C30.0828 77.7884 29.6194 77.7905 29.1561 77.792C28.4466 77.7954 27.7373 77.804 27.0279 77.8126C26.5783 77.8146 26.1286 77.8162 25.679 77.8176C25.4664 77.821 25.2538 77.8244 25.0347 77.8279C24.8366 77.8273 24.6385 77.8268 24.4344 77.8262C24.2603 77.8273 24.0863 77.8285 23.907 77.8297C23.2862 77.7037 23.0554 77.4329 22.6563 76.9531C22.2375 76.1156 22.4006 75.0126 22.3926 74.0833C22.3893 73.8084 22.384 73.5335 22.3765 73.2587C22.3658 72.8613 22.3616 72.4641 22.3587 72.0665C22.3548 71.8286 22.351 71.5908 22.347 71.3457C22.4609 70.7031 22.4609 70.7031 22.8156 70.1378C23.7458 69.5227 24.5847 69.5866 25.6775 69.5969Z" fill="#5F372A"/>
<path d="M18.9453 5.66406C18.9651 7.06475 18.9788 8.4654 18.9882 9.86619C18.9922 10.3427 18.9975 10.8191 19.0042 11.2956C19.0137 11.9806 19.0182 12.6656 19.0216 13.3507C19.0256 13.5635 19.0297 13.7764 19.0338 13.9957C19.0341 14.8267 19.0057 15.4735 18.6962 16.2495C17.8036 16.84 16.8673 16.7206 15.8234 16.6969C15.5947 16.6955 15.366 16.6942 15.1305 16.6927C14.4 16.6873 13.6698 16.675 12.9395 16.6626C12.4443 16.6577 11.9492 16.6532 11.454 16.6492C10.2401 16.6385 9.02631 16.6221 7.8125 16.6016C8.86054 15.3303 10.0151 14.1716 11.1786 13.0074C11.3906 12.7948 11.6025 12.5821 11.8145 12.3695C12.256 11.9268 12.698 11.4844 13.1402 11.0424C13.7078 10.4748 14.274 9.9059 14.8399 9.33667C15.2758 8.89854 15.7127 8.46129 16.1498 8.02429C16.3591 7.81473 16.5681 7.60485 16.7768 7.39466C17.0671 7.10247 17.3586 6.81154 17.6504 6.52089C17.816 6.355 17.9816 6.18911 18.1523 6.01819C18.5547 5.66406 18.5547 5.66406 18.9453 5.66406Z" fill="#F9D46B"/>
<path d="M32.0312 52.3438C34.8672 52.3438 37.7031 52.3438 40.625 52.3438C40.625 53.8906 40.625 55.4375 40.625 57.0312C39.8924 56.665 39.381 56.2844 38.7573 55.7617C37.5225 54.6799 37.5225 54.6799 35.9436 54.4334C35.2881 54.5305 34.8682 54.8614 34.375 55.2734C34.1061 55.4929 34.1061 55.4929 33.8318 55.7167C33.4443 56.0338 33.0584 56.3529 32.6744 56.6742C32.2266 57.0312 32.2266 57.0312 32.0312 57.0312C32.0312 55.4844 32.0312 53.9375 32.0312 52.3438Z" fill="#F8D36A"/>
<path d="M70.1172 10.9375C70.9631 10.9133 70.9631 10.9133 71.8262 10.8887C72.0026 10.8816 72.179 10.8745 72.3608 10.8671C72.5016 10.8652 72.6424 10.8632 72.7875 10.8612C72.9307 10.8571 73.0739 10.853 73.2214 10.8488C73.8245 10.9788 74.0478 11.2297 74.4141 11.7188C74.5028 12.2557 74.5028 12.2557 74.4904 12.8632C74.4866 13.1898 74.4866 13.1898 74.4827 13.5231C74.4762 13.7495 74.4696 13.9758 74.4629 14.209C74.4594 14.4384 74.4558 14.6677 74.4522 14.904C74.443 15.47 74.4302 16.0357 74.4141 16.6016C73.8812 16.7003 73.3482 16.7977 72.8149 16.8945C72.6648 16.9225 72.5146 16.9504 72.3598 16.9792C72.2132 17.0057 72.0665 17.0321 71.9154 17.0593C71.7814 17.0839 71.6475 17.1084 71.5094 17.1337C71.0938 17.1875 71.0938 17.1875 70.1172 17.1875C70.1172 15.125 70.1172 13.0625 70.1172 10.9375Z" fill="#FDD86C"/>
<path d="M12.6335 32.3181C12.8469 32.3171 13.0603 32.3161 13.2801 32.3151C13.502 32.3181 13.724 32.3211 13.9526 32.3242C14.2844 32.3197 14.2844 32.3197 14.6229 32.3151C16.2281 32.3226 16.2281 32.3226 17.0418 32.7759C17.3828 33.2031 17.3828 33.2031 17.4805 33.8867C17.3809 34.5837 17.2975 34.8695 16.7969 35.3516C15.8781 35.6578 14.9517 35.599 13.9893 35.6079C13.7858 35.6136 13.5824 35.6192 13.3728 35.6251C11.8821 35.6375 11.8821 35.6375 11.0954 35.2013C10.7244 34.7436 10.6131 34.5643 10.6323 33.9844C10.6321 33.8555 10.6318 33.7266 10.6316 33.5938C10.9234 32.5634 11.6474 32.3226 12.6335 32.3181Z" fill="#5F372A"/>
<path d="M12.6831 24.115C13.0177 24.1135 13.0177 24.1135 13.3591 24.1119C13.5912 24.115 13.8233 24.118 14.0625 24.1211C14.2946 24.1181 14.5268 24.1151 14.7659 24.1119C14.989 24.1129 15.2121 24.114 15.4419 24.115C15.6456 24.1159 15.8493 24.1168 16.0591 24.1177C16.7376 24.2441 16.9693 24.4557 17.3828 25C17.4805 25.6836 17.4805 25.6836 17.3828 26.3672C17.0181 26.8291 16.7343 27.0821 16.2109 27.3438C15.4758 27.4065 14.7389 27.4071 14.0015 27.417C13.7972 27.4243 13.5928 27.4316 13.3823 27.4391C11.8752 27.4564 11.8752 27.4564 11.0947 26.8944C10.6328 26.2035 10.6088 25.8153 10.7422 25C11.3256 24.2351 11.7377 24.1191 12.6831 24.115Z" fill="#61382B"/>
<path d="M13.9648 40.5396C14.1665 40.5382 14.3682 40.5368 14.576 40.5354C16.4258 40.5509 16.4258 40.5509 17.1875 41.2109C17.4696 41.7751 17.4564 42.1478 17.3828 42.7734C17.0582 43.271 16.9117 43.4711 16.4062 43.75C15.5863 43.8916 14.7827 43.8774 13.9526 43.8599C13.7307 43.862 13.5088 43.8642 13.2801 43.8664C11.6472 43.8519 11.6472 43.8519 11.0703 43.3769C10.7151 42.9351 10.6312 42.7459 10.6323 42.1875C10.628 42.0586 10.6238 41.9297 10.6194 41.7969C11.091 40.2969 12.6922 40.5149 13.9648 40.5396Z" fill="#5F372A"/>
<path d="M25.5859 72.8516C27.4551 72.8516 29.3242 72.8516 31.25 72.8516C31.25 73.4316 31.25 74.0117 31.25 74.6094C29.3809 74.6094 27.5117 74.6094 25.5859 74.6094C25.5859 74.0293 25.5859 73.4492 25.5859 72.8516Z" fill="#FBD66B"/>
</svg>
