<svg width="100" height="100" viewBox="0 0 100 100" fill="none" xmlns="http://www.w3.org/2000/svg">
<g clip-path="url(#clip0_5_120)">
<path d="M0 0C33 0 66 0 100 0C100 33 100 66 100 100C67 100 34 100 0 100C0 67 0 34 0 0Z" fill="#FED9A9"/>
<path d="M0 0C33 0 66 0 100 0C100 33 100 66 100 100C67 100 34 100 0 100C0 67 0 34 0 0ZM3.32031 19.9219C3.32031 45.252 3.32031 70.582 3.32031 96.6797C34.1289 96.6797 64.9375 96.6797 96.6797 96.6797C96.6797 71.3496 96.6797 46.0195 96.6797 19.9219C83.5313 19.9219 70.3828 19.9219 56.8359 19.9219C56.9903 21.3216 56.9903 21.3216 57.1641 22.7181C57.1882 22.9013 57.2123 23.0844 57.2371 23.2731C57.2623 23.4648 57.2875 23.6566 57.3135 23.8541C57.395 24.4836 57.4762 25.1131 57.5574 25.7426C57.6136 26.1761 57.6705 26.6094 57.7279 27.0427C57.8112 27.6723 57.8922 28.3022 57.9727 28.9322C57.9987 29.1247 58.0248 29.3172 58.0516 29.5155C58.3591 31.9637 58.3591 31.9637 57.7271 32.7881C57.0474 33.2774 56.5213 33.2313 55.6905 33.2377C55.4837 33.2396 55.4837 33.2396 55.2727 33.2416C54.8157 33.2454 54.3587 33.2477 53.9017 33.2497C53.6677 33.2509 53.6677 33.2509 53.429 33.2521C52.6037 33.2561 51.7784 33.2589 50.9531 33.2608C50.1001 33.2629 49.2473 33.2697 48.3943 33.2774C47.7389 33.2825 47.0834 33.2842 46.4279 33.2849C46.1135 33.2858 45.799 33.2881 45.4846 33.2917C45.0446 33.2964 44.6048 33.2963 44.1648 33.2949C43.9144 33.2961 43.664 33.2972 43.406 33.2984C42.7734 33.2031 42.7734 33.2031 42.3017 32.8428C41.1243 31.2414 42.2191 27.3651 42.4683 25.5127C42.5138 25.1646 42.5592 24.8164 42.6044 24.4682C42.6682 23.977 42.7323 23.4858 42.7977 22.9948C42.9339 21.9713 43.05 20.9487 43.1641 19.9219C30.0156 19.9219 16.8672 19.9219 3.32031 19.9219Z" fill="#231F20"/>
<path d="M56.6406 3.32031C64.2298 3.06842 64.2298 3.06842 67.429 3.01514C69.6321 2.97815 71.8337 2.93487 74.0355 2.84882C75.6399 2.78614 77.2431 2.74612 78.8487 2.73226C79.6982 2.72416 80.5442 2.70546 81.3926 2.6595C86.3969 2.39896 86.3969 2.39896 87.827 3.59344C89.1121 4.93942 89.9103 6.65144 90.6486 8.33899C91.2562 9.72428 92.0308 10.986 92.8409 12.2605C93.1864 12.8066 93.5222 13.3585 93.8591 13.9099C93.9705 14.0911 94.0819 14.2722 94.1967 14.4588C94.5989 15.1564 94.9524 15.8813 95.3125 16.6016C82.5508 16.6016 69.7891 16.6016 56.6406 16.6016C56.6406 12.2188 56.6406 7.83594 56.6406 3.32031Z" fill="#FEC376"/>
<path d="M19.0879 2.72621C19.9431 2.76323 20.7985 2.76631 21.6544 2.77323C23.2698 2.79134 24.883 2.83924 26.4974 2.89833C28.6823 2.97652 30.8679 3.00778 33.0538 3.04189C36.4908 3.09675 39.9227 3.21349 43.3594 3.32031C43.3594 7.70312 43.3594 12.0859 43.3594 16.6016C30.5977 16.6016 17.8359 16.6016 4.6875 16.6016C5.78541 14.4057 5.78541 14.4057 6.36215 13.4674C6.49295 13.2534 6.62374 13.0394 6.7585 12.8189C6.89282 12.6009 7.02714 12.3828 7.16553 12.1582C7.42694 11.7321 7.6881 11.3059 7.94907 10.8795C8.05681 10.7156 8.05681 10.7156 8.16673 10.5483C8.66718 9.76851 9.07704 8.9865 9.44061 8.13319C11.5806 3.17582 13.8913 2.46275 19.0879 2.72621Z" fill="#FEC376"/>
<path d="M46.6797 3.32031C48.8711 3.32031 51.0625 3.32031 53.3203 3.32031C53.3208 4.33495 53.3213 5.34958 53.3218 6.39496C53.3263 7.77082 53.3345 9.14663 53.3447 10.5225C53.346 10.6999 53.3474 10.8773 53.3487 11.0601C53.393 16.5885 53.6419 21.9961 54.5138 27.4661C54.5367 27.6117 54.5595 27.7573 54.583 27.9072C54.6033 28.0305 54.6235 28.1539 54.6443 28.2809C54.7042 28.8772 54.6875 29.4789 54.6875 30.0781C51.5937 30.0781 48.5 30.0781 45.3125 30.0781C45.5292 26.8282 45.5292 26.8282 45.7336 25.6172C46.8705 18.2455 46.6597 10.7592 46.6797 3.32031Z" fill="#006CEE"/>
<path d="M29.8828 41.6016C34.3301 41.6016 38.7773 41.6016 43.3594 41.6016C43.3594 46.0488 43.3594 50.4961 43.3594 55.0781C38.9121 55.0781 34.4648 55.0781 29.8828 55.0781C29.8828 50.6309 29.8828 46.1836 29.8828 41.6016Z" fill="#2C2625"/>
<path d="M30.0781 68.3594C34.4609 68.3594 38.8437 68.3594 43.3594 68.3594C43.3594 72.7422 43.3594 77.125 43.3594 81.6406C38.9766 81.6406 34.5938 81.6406 30.0781 81.6406C30.0781 77.2578 30.0781 72.875 30.0781 68.3594Z" fill="#242020"/>
<path d="M58.3984 41.6016C62.7813 41.6016 67.1641 41.6016 71.6797 41.6016C71.6797 45.9844 71.6797 50.3672 71.6797 54.8828C67.2969 54.8828 62.9141 54.8828 58.3984 54.8828C58.3984 50.5 58.3984 46.1172 58.3984 41.6016Z" fill="#272222"/>
<path d="M43.3594 63.2812C45.0352 63.2812 46.7109 63.2812 48.4375 63.2812C48.4375 66.0527 48.4375 68.8242 48.4375 71.6797C49.4688 71.6797 50.5 71.6797 51.5625 71.6797C51.5625 70.0039 51.5625 68.3281 51.5625 66.6016C52.7227 66.6016 53.8828 66.6016 55.0781 66.6016C55.0781 69.373 55.0781 72.1445 55.0781 75C52.8867 75 50.6953 75 48.4375 75C48.4375 77.1914 48.4375 79.3828 48.4375 81.6406C47.2773 81.6406 46.1172 81.6406 44.9219 81.6406C44.9219 79.4492 44.9219 77.2578 44.9219 75C46.0176 75 47.1133 75 48.2422 75C48.2422 73.9043 48.2422 72.8086 48.2422 71.6797C47.1465 71.6797 46.0508 71.6797 44.9219 71.6797C44.9219 70.0684 44.9219 68.457 44.9219 66.7969C44.4062 66.7969 43.8906 66.7969 43.3594 66.7969C43.3594 65.6367 43.3594 64.4766 43.3594 63.2812Z" fill="#342D2A"/>
<path d="M23.2422 34.9609C27.1094 34.9609 30.9766 34.9609 34.9609 34.9609C34.9609 36.0566 34.9609 37.1523 34.9609 38.2812C32.2539 38.2812 29.5469 38.2812 26.7578 38.2812C26.7578 41.0527 26.7578 43.8242 26.7578 46.6797C25.5977 46.6797 24.4375 46.6797 23.2422 46.6797C23.2422 42.8125 23.2422 38.9453 23.2422 34.9609Z" fill="#2A2524"/>
<path d="M66.6016 34.9609C70.4687 34.9609 74.3359 34.9609 78.3203 34.9609C78.3203 38.8281 78.3203 42.6953 78.3203 46.6797C77.2246 46.6797 76.1289 46.6797 75 46.6797C75 43.9082 75 41.1367 75 38.2812C72.2285 38.2812 69.457 38.2812 66.6016 38.2812C66.6016 37.1855 66.6016 36.0898 66.6016 34.9609Z" fill="#252021"/>
<path d="M75 76.7578C76.0957 76.7578 77.1914 76.7578 78.3203 76.7578C78.3203 80.5605 78.3203 84.3633 78.3203 88.2812C74.4531 88.2812 70.5859 88.2812 66.6016 88.2812C66.6016 87.1855 66.6016 86.0898 66.6016 84.9609C69.373 84.9609 72.1445 84.9609 75 84.9609C75 82.2539 75 79.5469 75 76.7578Z" fill="#242021"/>
<path d="M23.4375 76.7578C24.4688 76.7578 25.5 76.7578 26.5625 76.7578C26.5625 79.4648 26.5625 82.1719 26.5625 84.9609C29.334 84.9609 32.1055 84.9609 34.9609 84.9609C34.9609 86.0566 34.9609 87.1523 34.9609 88.2812C31.1582 88.2812 27.3555 88.2812 23.4375 88.2812C23.4375 84.4785 23.4375 80.6758 23.4375 76.7578Z" fill="#241F20"/>
<path d="M51.5625 41.6016C52.7227 41.6016 53.8828 41.6016 55.0781 41.6016C55.0781 44.373 55.0781 47.1445 55.0781 50C51.7266 50 48.375 50 44.9219 50C44.9219 48.9043 44.9219 47.8086 44.9219 46.6797C47.1133 46.6797 49.3047 46.6797 51.5625 46.6797C51.5625 45.0039 51.5625 43.3281 51.5625 41.6016Z" fill="#2A2424"/>
<path d="M56.6406 63.2812C61.6035 63.2812 66.5664 63.2812 71.6797 63.2812C71.6797 64.377 71.6797 65.4727 71.6797 66.6016C66.7168 66.6016 61.7539 66.6016 56.6406 66.6016C56.6406 65.5059 56.6406 64.4102 56.6406 63.2812Z" fill="#262222"/>
<path d="M68.3594 75C69.4551 75 70.5508 75 71.6797 75C71.6797 77.1914 71.6797 79.3828 71.6797 81.6406C68.3926 81.6406 65.1055 81.6406 61.7188 81.6406C61.7188 80.5449 61.7188 79.4492 61.7188 78.3203C63.9102 78.3203 66.1016 78.3203 68.3594 78.3203C68.3594 77.2246 68.3594 76.1289 68.3594 75Z" fill="#231F20"/>
<path d="M33.3984 71.6797C35.5898 71.6797 37.7812 71.6797 40.0391 71.6797C40.0391 73.8711 40.0391 76.0625 40.0391 78.3203C37.8477 78.3203 35.6563 78.3203 33.3984 78.3203C33.3984 76.1289 33.3984 73.9375 33.3984 71.6797Z" fill="#F7D3A5"/>
<path d="M61.7188 45.1172C63.9102 45.1172 66.1016 45.1172 68.3594 45.1172C68.3594 47.2441 68.3594 49.3711 68.3594 51.5625C66.168 51.5625 63.9766 51.5625 61.7188 51.5625C61.7188 49.4355 61.7188 47.3086 61.7188 45.1172Z" fill="#FCD7A8"/>
<path d="M33.3984 45.1172C35.5898 45.1172 37.7812 45.1172 40.0391 45.1172C40.0391 47.2441 40.0391 49.3711 40.0391 51.5625C37.8477 51.5625 35.6563 51.5625 33.3984 51.5625C33.3984 49.4355 33.3984 47.3086 33.3984 45.1172Z" fill="#FBD7A7"/>
<path d="M44.9219 51.5625C48.7891 51.5625 52.6563 51.5625 56.6406 51.5625C56.6406 52.7227 56.6406 53.8828 56.6406 55.0781C52.7734 55.0781 48.9062 55.0781 44.9219 55.0781C44.9219 53.918 44.9219 52.7578 44.9219 51.5625Z" fill="#2F2927"/>
<path d="M29.8828 63.2812C33.2344 63.2812 36.5859 63.2812 40.0391 63.2812C40.0391 64.377 40.0391 65.4727 40.0391 66.6016C36.6875 66.6016 33.3359 66.6016 29.8828 66.6016C29.8828 65.5059 29.8828 64.4102 29.8828 63.2812Z" fill="#292424"/>
<path d="M43.3594 63.4766C44.9707 63.4766 46.582 63.4766 48.2422 63.4766C48.2422 66.1836 48.2422 68.8906 48.2422 71.6797C47.1465 71.6797 46.0508 71.6797 44.9219 71.6797C44.9219 70.0684 44.9219 68.457 44.9219 66.7969C44.4062 66.7969 43.8906 66.7969 43.3594 66.7969C43.3594 65.7012 43.3594 64.6055 43.3594 63.4766Z" fill="#272222"/>
<path d="M36.7188 56.6406C39.4258 56.6406 42.1328 56.6406 44.9219 56.6406C44.9219 57.7363 44.9219 58.832 44.9219 59.9609C42.2148 59.9609 39.5078 59.9609 36.7188 59.9609C36.7188 58.8652 36.7188 57.7695 36.7188 56.6406Z" fill="#242021"/>
<path d="M55.7099 58.181C55.9899 58.181 56.2699 58.1821 56.5498 58.1841C56.7705 58.1845 56.7705 58.1845 56.9957 58.1849C57.4673 58.186 57.939 58.1885 58.4106 58.1909C58.7297 58.1919 59.0487 58.1928 59.3678 58.1936C60.1514 58.1956 60.9351 58.1994 61.7188 58.2031C61.7188 59.3633 61.7188 60.5235 61.7188 61.7188C59.4629 61.7188 57.207 61.7188 54.8828 61.7188C54.8828 58.21 54.8828 58.21 55.7099 58.181Z" fill="#332C2A"/>
<path d="M44.9219 75C46.0176 75 47.1133 75 48.2422 75C48.2422 77.1914 48.2422 79.3828 48.2422 81.6406C47.1465 81.6406 46.0508 81.6406 44.9219 81.6406C44.9219 79.4492 44.9219 77.2578 44.9219 75Z" fill="#282323"/>
<path d="M56.6406 69.9219C58.832 69.9219 61.0234 69.9219 63.2812 69.9219C63.2812 71.0176 63.2812 72.1133 63.2812 73.2422C61.0898 73.2422 58.8984 73.2422 56.6406 73.2422C56.6406 72.1465 56.6406 71.0508 56.6406 69.9219Z" fill="#282423"/>
<path d="M48.2422 56.6406C49.4023 56.6406 50.5625 56.6406 51.7578 56.6406C51.7578 58.3164 51.7578 59.9922 51.7578 61.7188C50.5977 61.7188 49.4375 61.7188 48.2422 61.7188C48.2422 60.043 48.2422 58.3672 48.2422 56.6406Z" fill="#312B29"/>
<path d="M53.3203 78.3203C54.9961 78.3203 56.6719 78.3203 58.3984 78.3203C58.3984 79.416 58.3984 80.5117 58.3984 81.6406C56.7227 81.6406 55.0469 81.6406 53.3203 81.6406C53.3203 80.5449 53.3203 79.4492 53.3203 78.3203Z" fill="#272222"/>
<path d="M68.3594 56.6406C69.4551 56.6406 70.5508 56.6406 71.6797 56.6406C71.6797 58.3164 71.6797 59.9922 71.6797 61.7188C70.584 61.7188 69.4883 61.7188 68.3594 61.7188C68.3594 60.043 68.3594 58.3672 68.3594 56.6406Z" fill="#272222"/>
<path d="M63.2812 56.6406C64.377 56.6406 65.4727 56.6406 66.6016 56.6406C66.6016 58.3164 66.6016 59.9922 66.6016 61.7188C65.5059 61.7188 64.4102 61.7188 63.2812 61.7188C63.2812 60.043 63.2812 58.3672 63.2812 56.6406Z" fill="#292424"/>
<path d="M44.9219 41.6016C46.082 41.6016 47.2422 41.6016 48.4375 41.6016C48.4415 42.1454 48.4456 42.6892 48.4497 43.2495C48.4515 43.4211 48.4533 43.5926 48.4551 43.7694C48.4565 44.1536 48.4473 44.5378 48.4375 44.9219C48.2422 45.1172 48.2422 45.1172 47.4968 45.1363C47.1878 45.1351 46.8788 45.1326 46.5698 45.1294C45.7541 45.1234 45.7541 45.1234 44.9219 45.1172C44.9219 43.957 44.9219 42.7969 44.9219 41.6016Z" fill="#38312D"/>
<path d="M66.6016 68.3594C67.6973 68.3594 68.793 68.3594 69.9219 68.3594C69.9219 69.4551 69.9219 70.5508 69.9219 71.6797C68.8262 71.6797 67.7305 71.6797 66.6016 71.6797C66.6016 70.584 66.6016 69.4883 66.6016 68.3594Z" fill="#282323"/>
<path d="M30.0781 56.6406C31.1738 56.6406 32.2695 56.6406 33.3984 56.6406C33.3984 57.7363 33.3984 58.832 33.3984 59.9609C32.3027 59.9609 31.207 59.9609 30.0781 59.9609C30.0781 58.8652 30.0781 57.7695 30.0781 56.6406Z" fill="#282423"/>
<path d="M63.2812 46.6797C64.377 46.6797 65.4727 46.6797 66.6016 46.6797C66.6016 47.7754 66.6016 48.8711 66.6016 50C65.5059 50 64.4102 50 63.2812 50C63.2812 48.9043 63.2812 47.8086 63.2812 46.6797Z" fill="#262122"/>
<path d="M34.9609 46.6797C36.0566 46.6797 37.1523 46.6797 38.2812 46.6797C38.2812 47.7754 38.2812 48.8711 38.2812 50C37.1855 50 36.0898 50 34.9609 50C34.9609 48.9043 34.9609 47.8086 34.9609 46.6797Z" fill="#252121"/>
<path d="M34.9609 73.4375C36.0566 73.4375 37.1523 73.4375 38.2812 73.4375C38.2812 74.4688 38.2812 75.5 38.2812 76.5625C37.1855 76.5625 36.0898 76.5625 34.9609 76.5625C34.9609 75.5312 34.9609 74.5 34.9609 73.4375Z" fill="#252121"/>
</g>
<defs>
<clipPath id="clip0_5_120">
<rect width="100" height="100" fill="white"/>
</clipPath>
</defs>
</svg>
