<svg width="100" height="100" viewBox="0 0 100 100" fill="none" xmlns="http://www.w3.org/2000/svg">
<g clip-path="url(#clip0_6_11)">
<path d="M1.95805 17.4798C2.20065 17.4778 2.44325 17.4757 2.6932 17.4736C2.96287 17.4753 3.23254 17.4771 3.50221 17.4789C3.78833 17.478 4.07444 17.4768 4.36055 17.4752C5.14784 17.472 5.93506 17.4736 6.72235 17.476C7.57098 17.4778 8.4196 17.475 9.26823 17.4729C10.9311 17.4694 12.594 17.4702 14.2569 17.4724C15.608 17.4742 16.9591 17.4744 18.3102 17.4736C18.5984 17.4734 18.5984 17.4734 18.8924 17.4732C19.2826 17.473 19.6728 17.4727 20.063 17.4725C23.7244 17.4702 27.3858 17.4728 31.0472 17.477C34.1907 17.4805 37.3342 17.4799 40.4777 17.4763C44.1257 17.4721 47.7738 17.4704 51.4218 17.4728C51.8106 17.4731 52.1994 17.4733 52.5882 17.4736C52.8752 17.4738 52.8752 17.4738 53.168 17.4739C54.5179 17.4746 55.8678 17.4735 57.2177 17.4716C58.8623 17.4695 60.5067 17.47 62.1512 17.4742C62.9907 17.4763 63.8302 17.4771 64.6697 17.4745C65.4376 17.4722 66.2054 17.4734 66.9733 17.4776C67.2517 17.4785 67.5301 17.478 67.8084 17.4761C68.1858 17.4738 68.5631 17.4766 68.9404 17.4798C69.2553 17.48 69.2553 17.48 69.5765 17.4802C70.2498 17.6021 70.4751 17.8337 70.8984 18.3594C71.2051 18.9727 71.119 19.6273 71.1159 20.3004C71.116 20.4605 71.116 20.6205 71.116 20.7855C71.1159 21.316 71.1144 21.8465 71.1128 22.377C71.1125 22.7443 71.1122 23.1116 71.112 23.4788C71.1112 24.4466 71.1093 25.4144 71.1072 26.3821C71.1052 27.3692 71.1043 28.3563 71.1033 29.3434C71.1012 31.281 71.0979 33.2186 71.0938 35.1563C71.3114 35.1545 71.529 35.1528 71.7532 35.151C73.805 35.1352 75.8569 35.1234 77.9088 35.1158C78.9636 35.1117 80.0185 35.1062 81.0733 35.0973C82.0915 35.0888 83.1096 35.0842 84.1278 35.0821C84.5161 35.0807 84.9043 35.0779 85.2926 35.0737C85.8369 35.068 86.3809 35.0672 86.9252 35.0676C87.0854 35.0648 87.2455 35.0619 87.4106 35.0591C88.9583 35.0702 89.773 35.819 90.846 36.8861C90.9386 36.9777 91.0312 37.0693 91.1266 37.1636C91.4291 37.4635 91.7302 37.7647 92.0311 38.0661C92.2426 38.2768 92.454 38.4874 92.6656 38.698C93.1073 39.1383 93.5483 39.5794 93.9889 40.0209C94.552 40.5852 95.1173 41.1472 95.6832 41.7086C96.1201 42.1426 96.5555 42.5779 96.9907 43.0136C97.1985 43.2213 97.4068 43.4286 97.6156 43.6354C97.9077 43.9251 98.1979 44.2166 98.4876 44.5087C98.6528 44.6737 98.818 44.8388 98.9882 45.0088C100.123 46.338 100.085 47.5142 100.079 49.1966C100.081 49.577 100.081 49.577 100.083 49.965C100.086 50.6583 100.086 51.3515 100.085 52.0448C100.085 52.6243 100.086 53.2038 100.087 53.7834C100.09 55.1508 100.089 56.5182 100.087 57.8856C100.085 59.2948 100.088 60.704 100.093 62.1132C100.097 63.3248 100.098 64.5363 100.097 65.7479C100.097 66.4708 100.097 67.1936 100.101 67.9166C100.104 68.7226 100.101 69.5286 100.098 70.3346C100.1 70.5733 100.102 70.812 100.104 71.0579C100.093 72.2955 100.072 73.0928 99.2188 74.0234C98.5119 74.5723 98.0072 74.6808 97.1214 74.6666C96.9131 74.6647 96.7048 74.6628 96.4901 74.6609C96.2747 74.656 96.0593 74.6511 95.8374 74.646C95.6182 74.6434 95.3991 74.6407 95.1733 74.638C94.6337 74.6311 94.0942 74.6215 93.5547 74.6094C93.5162 74.9663 93.5162 74.9663 93.4769 75.3304C93.1955 77.5582 91.9529 79.3914 90.2252 80.7922C87.9699 82.3439 85.6831 82.6943 83.0078 82.4219C80.8787 81.9292 78.8441 80.7649 77.5993 78.9383C76.7516 77.5364 76.3413 76.4457 75.9766 74.8047C59.6055 74.8047 43.2344 74.8047 26.3672 74.8047C26.1738 75.5781 25.9805 76.3516 25.7813 77.1484C25.4068 77.8415 25.0519 78.4609 24.6094 79.1016C24.4966 79.2748 24.3838 79.448 24.2676 79.6265C22.5721 81.369 20.3919 82.4261 17.9629 82.5375C15.4733 82.5707 13.4749 81.9601 11.5662 80.3055C9.85455 78.636 9.06755 76.9582 8.78907 74.6094C8.57038 74.6145 8.35168 74.6196 8.12636 74.6249C7.31178 74.6426 6.4972 74.6538 5.68248 74.663C5.33048 74.6679 4.9785 74.6746 4.62657 74.683C4.11939 74.695 3.61247 74.7004 3.10517 74.7047C2.87073 74.7123 2.87073 74.7123 2.63155 74.72C1.82366 74.7204 1.32414 74.6569 0.684843 74.1395C0.0529992 73.4855 -0.0243564 73.2186 -0.0262053 72.3392C-0.027076 72.1477 -0.0279467 71.9562 -0.0288437 71.759C-0.0288077 71.5471 -0.0287717 71.3352 -0.0287346 71.1169C-0.0294527 70.893 -0.0301708 70.6691 -0.0309107 70.4384C-0.0326954 69.8151 -0.033594 69.1917 -0.0341117 68.5684C-0.0348732 67.8968 -0.036744 67.2252 -0.0384501 66.5537C-0.0423123 64.9311 -0.0442765 63.3085 -0.0460141 61.6858C-0.0468698 60.9223 -0.0479181 60.1587 -0.0489417 59.3951C-0.0522644 56.8578 -0.0550955 54.3204 -0.0565098 51.7831C-0.0568828 51.1245 -0.0572579 50.4658 -0.0576398 49.8072C-0.0577343 49.6435 -0.0578288 49.4798 -0.0579261 49.3111C-0.0595483 46.6575 -0.0644985 44.0038 -0.0708391 41.3502C-0.0772918 38.6276 -0.0808156 35.9049 -0.0814404 33.1823C-0.0818638 31.6529 -0.0835808 30.1235 -0.0885616 28.5941C-0.0927925 27.292 -0.0943779 25.9899 -0.0924743 24.6878C-0.0915841 24.0231 -0.0919716 23.3585 -0.0957481 22.6938C-0.0991785 21.9739 -0.0978357 21.2542 -0.0952534 20.5343C-0.0973958 20.3233 -0.0995383 20.1123 -0.101746 19.8949C-0.10007 19.7024 -0.0983937 19.5099 -0.0966669 19.3115C-0.0968577 19.1453 -0.0970485 18.9791 -0.0972451 18.8079C0.148319 17.6754 0.907501 17.4804 1.95805 17.4798Z" fill="#FEBF6C"/>
<path d="M71.0938 35.1563C75.4081 35.1321 75.4081 35.1321 79.8096 35.1074C81.1701 35.0968 81.1701 35.0968 82.5582 35.0859C83.6687 35.0824 83.6687 35.0824 84.1891 35.0817C84.5514 35.0805 84.9136 35.0778 85.2759 35.0738C85.8257 35.068 86.3754 35.0673 86.9252 35.0676C87.0857 35.0648 87.2462 35.0619 87.4115 35.0591C88.9588 35.0702 89.7735 35.8194 90.846 36.8861C90.9386 36.9777 91.0312 37.0693 91.1266 37.1636C91.4291 37.4635 91.7302 37.7647 92.0311 38.0661C92.2426 38.2768 92.4541 38.4874 92.6656 38.698C93.1073 39.1384 93.5483 39.5794 93.9889 40.021C94.552 40.5852 95.1173 41.1472 95.6832 41.7086C96.1201 42.1426 96.5556 42.5779 96.9907 43.0136C97.1985 43.2213 97.4068 43.4286 97.6156 43.6354C97.9077 43.9251 98.1979 44.2166 98.4876 44.5087C98.6528 44.6737 98.818 44.8388 98.9882 45.0088C100.123 46.338 100.085 47.5142 100.079 49.1966C100.081 49.577 100.081 49.577 100.083 49.965C100.086 50.6583 100.086 51.3515 100.085 52.0448C100.085 52.6243 100.086 53.2039 100.087 53.7834C100.09 55.1508 100.089 56.5182 100.087 57.8856C100.085 59.2948 100.088 60.704 100.093 62.1132C100.097 63.3248 100.099 64.5363 100.097 65.7479C100.097 66.4708 100.097 67.1937 100.101 67.9166C100.104 68.7226 100.101 69.5286 100.098 70.3346C100.101 70.6926 100.101 70.6926 100.104 71.0579C100.093 72.2955 100.072 73.0929 99.2188 74.0235C98.5119 74.5723 98.0072 74.6808 97.1214 74.6666C96.9131 74.6647 96.7048 74.6628 96.4901 74.6609C96.2747 74.656 96.0593 74.6511 95.8374 74.646C95.6183 74.6434 95.3991 74.6407 95.1733 74.638C94.6337 74.6311 94.0942 74.6215 93.5547 74.6094C93.5162 74.9663 93.5162 74.9663 93.4769 75.3304C93.1955 77.5583 91.9529 79.3914 90.2252 80.7923C87.9699 82.3439 85.6831 82.6943 83.0078 82.4219C80.8787 81.9292 78.8441 80.7649 77.5994 78.9383C76.7517 77.5364 76.3413 76.4457 75.9766 74.8047C59.6055 74.8047 43.2344 74.8047 26.3672 74.8047C26.1738 75.5781 25.9805 76.3516 25.7813 77.1485C25.4068 77.8416 25.0519 78.461 24.6094 79.1016C24.4966 79.2748 24.3838 79.448 24.2676 79.6265C22.5721 81.369 20.3919 82.4261 17.9629 82.5375C15.4733 82.5707 13.4749 81.9601 11.5662 80.3055C9.85455 78.6361 9.06755 76.9582 8.78907 74.6094C8.57038 74.6145 8.35169 74.6196 8.12636 74.6249C7.31178 74.6426 6.4972 74.6538 5.68248 74.663C5.33048 74.6679 4.9785 74.6746 4.62657 74.6831C4.11939 74.695 3.61247 74.7005 3.10517 74.7048C2.87073 74.7123 2.87073 74.7123 2.63155 74.72C1.82366 74.7204 1.32414 74.6569 0.684843 74.1396C0.0293244 73.461 -0.024327 73.1799 -0.0190636 72.2641C-0.0184342 72.0715 -0.0178048 71.8789 -0.0171563 71.6805C-0.0155198 71.4788 -0.0138833 71.2771 -0.0121972 71.0693C-0.0108754 70.7646 -0.0108754 70.7646 -0.00952691 70.4537C-0.00722054 69.9509 -0.00400398 69.4481 9.83828e-06 68.9453C0.123345 68.9472 0.246683 68.9491 0.373755 68.9511C1.66351 68.9689 2.9528 68.9729 4.24267 68.9692C4.72327 68.9695 5.20389 68.9734 5.68443 68.9808C8.38577 69.179 8.38577 69.179 10.8341 68.3279C11.2642 67.8387 11.587 67.358 11.9141 66.7969C12.5076 66.3208 12.5076 66.3208 13.0127 66.0156C13.2642 65.8585 13.2642 65.8585 13.5208 65.6983C14.8513 65.0386 16.0979 64.9678 17.5537 64.9658C17.7378 64.961 17.9218 64.9563 18.1114 64.9513C20.2114 64.9426 22.0566 65.8741 23.584 67.2974C23.729 67.4545 23.874 67.6116 24.0234 67.7735C24.1725 67.9144 24.3215 68.0554 24.4751 68.2007C24.8047 68.5547 24.8047 68.5547 24.8047 68.9453C40.0801 68.9453 55.3555 68.9453 71.0938 68.9453C71.0938 57.7949 71.0938 46.6445 71.0938 35.1563Z" fill="#62AEF3"/>
<path d="M77.1484 35.1563C78.6306 35.1381 80.1128 35.1243 81.5951 35.1158C82.2835 35.1117 82.9718 35.1062 83.6601 35.0973C84.4523 35.0872 85.2444 35.0834 86.0367 35.08C86.2827 35.0759 86.5287 35.0719 86.7822 35.0678C87.0128 35.0677 87.2434 35.0676 87.481 35.0676C87.7842 35.065 87.7842 35.065 88.0935 35.0623C89.2596 35.2517 90.0348 36.0793 90.846 36.8861C90.9386 36.9777 91.0312 37.0693 91.1265 37.1636C91.4291 37.4635 91.7301 37.7647 92.0311 38.0661C92.2425 38.2768 92.454 38.4874 92.6656 38.6981C93.1073 39.1384 93.5483 39.5794 93.9888 40.021C94.552 40.5852 95.1173 41.1472 95.6832 41.7086C96.1201 42.1426 96.5555 42.5779 96.9906 43.0136C97.1985 43.2213 97.4068 43.4286 97.6155 43.6354C97.9077 43.9251 98.1978 44.2166 98.4876 44.5087C98.6528 44.6737 98.818 44.8388 98.9882 45.0088C100.123 46.338 100.085 47.5142 100.079 49.1966C100.08 49.4502 100.082 49.7038 100.083 49.965C100.086 50.6583 100.086 51.3515 100.085 52.0448C100.085 52.6243 100.086 53.2039 100.087 53.7834C100.09 55.1508 100.089 56.5182 100.087 57.8856C100.085 59.2948 100.088 60.704 100.093 62.1132C100.097 63.3248 100.098 64.5363 100.097 65.7479C100.097 66.4708 100.097 67.1937 100.101 67.9166C100.104 68.7226 100.101 69.5286 100.098 70.3346C100.1 70.5733 100.102 70.812 100.104 71.0579C100.093 72.2956 100.072 73.0929 99.2187 74.0235C98.5119 74.5723 98.0072 74.6808 97.1214 74.6666C96.9131 74.6647 96.7047 74.6628 96.4901 74.6609C96.2747 74.656 96.0593 74.6511 95.8374 74.646C95.6182 74.6434 95.3991 74.6407 95.1733 74.638C94.6336 74.6311 94.0942 74.6215 93.5547 74.6094C93.5355 74.3901 93.5164 74.1708 93.4967 73.9449C93.281 71.6411 93.281 71.6411 92.3828 69.5313C92.2982 69.3837 92.2136 69.2362 92.1265 69.0842C91.2965 67.7355 90.2874 66.7258 88.8672 66.0156C88.8672 62.7285 88.8672 59.4414 88.8672 56.0547C88.0444 56.0638 87.2216 56.0728 86.3739 56.0822C85.7174 56.0872 85.0609 56.0914 84.4043 56.0951C83.7115 56.0993 83.0188 56.1048 82.326 56.1136C81.5309 56.1238 80.7359 56.1275 79.9408 56.131C79.6928 56.135 79.4447 56.1391 79.1892 56.1432C78.8432 56.1433 78.8432 56.1433 78.4902 56.1434C78.2873 56.1451 78.0843 56.1469 77.8752 56.1487C77.3437 56.0547 77.3437 56.0547 76.8876 55.7408C76.4539 55.1174 76.4646 54.7136 76.4645 53.957C76.4629 53.761 76.4629 53.761 76.4613 53.5611C76.4589 53.1306 76.4621 52.7003 76.4656 52.2698C76.4656 51.9701 76.4653 51.6705 76.4647 51.3709C76.4645 50.7435 76.4669 50.1162 76.4714 49.4889C76.4769 48.6845 76.4764 47.8803 76.4739 47.0759C76.4725 46.4575 76.474 45.8391 76.4765 45.2206C76.4774 44.924 76.4774 44.6274 76.4767 44.3308C76.4761 43.9165 76.4793 43.5024 76.4836 43.0881C76.4846 42.8524 76.4857 42.6166 76.4868 42.3737C76.5625 41.7969 76.5625 41.7969 76.8204 41.4285C77.3586 41.0716 77.9475 41.1168 78.5728 41.111C78.7107 41.1075 78.8486 41.104 78.9907 41.1004C79.4305 41.0898 79.8702 41.0832 80.31 41.0767C80.6085 41.0702 80.9069 41.0635 81.2054 41.0565C81.9364 41.0399 82.6673 41.0268 83.3984 41.0156C83.2793 40.8965 83.1602 40.7774 83.0374 40.6546C79.2969 36.9141 79.2969 36.9141 78.787 36.3859C78.2788 35.8976 77.7899 35.635 77.1484 35.3516C77.1484 35.2871 77.1484 35.2227 77.1484 35.1563Z" fill="#399AE9"/>
<path d="M59.7656 17.5781C63.1816 17.5781 66.5977 17.5781 70.1172 17.5781C71.0801 18.541 71.0801 18.541 71.118 19.1204C71.1179 19.2727 71.1179 19.425 71.1178 19.582C71.1182 19.7576 71.1186 19.9332 71.119 20.1142C71.1181 20.4054 71.1181 20.4054 71.1172 20.7026C71.1174 20.9079 71.1176 21.1132 71.1177 21.3247C71.1181 22.0172 71.117 22.7097 71.1159 23.4021C71.1159 23.8967 71.1159 24.3913 71.116 24.8859C71.1161 25.953 71.1155 27.0201 71.1144 28.0873C71.1128 29.6302 71.1123 31.1731 71.1121 32.716C71.1116 35.2191 71.1103 37.7221 71.1085 40.2252C71.1067 42.6572 71.1053 45.0891 71.1045 47.521C71.1044 47.6708 71.1044 47.8207 71.1043 47.9751C71.1041 48.7267 71.1038 49.4783 71.1036 50.23C71.1016 56.4684 71.098 62.7069 71.0938 68.9453C67.3555 68.9453 63.6172 68.9453 59.7656 68.9453C59.7656 66.8184 59.7656 64.6914 59.7656 62.5C61.4746 62.4268 61.4746 62.4268 62.0092 62.4066C62.2204 62.3962 62.2204 62.3962 62.4359 62.3856C62.5791 62.3794 62.7223 62.3733 62.8698 62.367C63.3375 62.2962 63.6601 62.1608 64.0625 61.9141C64.3671 61.3049 64.3283 60.8257 64.2578 60.1562C63.4231 59.4341 62.5114 59.4652 61.4624 59.436C60.6225 59.4058 60.6225 59.4058 59.7656 59.375C59.7656 57.5059 59.7656 55.6367 59.7656 53.7109C61.6821 53.6499 61.6821 53.6499 62.2839 53.6352C62.4411 53.6287 62.5982 53.6222 62.7602 53.6156C62.9207 53.6105 63.0813 53.6053 63.2468 53.6001C63.7681 53.4965 63.9464 53.3562 64.2578 52.9297C64.3709 52.0054 64.3709 52.0054 63.9893 51.1963C62.6222 50.2499 62.1237 50.7169 59.7656 50.5859C59.7656 39.6934 59.7656 28.8008 59.7656 17.5781Z" fill="#ECA558"/>
<path d="M26.7578 17.5781C32.2363 17.5781 37.7148 17.5781 43.3594 17.5781C43.3829 21.9903 43.3829 21.9903 43.388 23.8674C43.3915 25.1495 43.3956 26.4316 43.4036 27.7137C43.4099 28.7471 43.4134 29.7804 43.415 30.8138C43.4161 31.2086 43.4182 31.6033 43.4213 31.998C43.4256 32.5499 43.4262 33.1016 43.4259 33.6535C43.428 33.8176 43.4301 33.9817 43.4323 34.1507C43.4263 35.2642 43.4263 35.2642 43.1028 35.6863C42.5635 36.0977 41.9513 36.0222 41.2998 36.0195C41.1502 36.0212 41.0005 36.0228 40.8464 36.0245C40.3514 36.0291 39.8566 36.0293 39.3616 36.0291C39.0179 36.0304 38.6742 36.0319 38.3305 36.0336C37.61 36.0362 36.8896 36.0365 36.1691 36.0353C35.245 36.0342 34.321 36.0402 33.3969 36.0481C32.6871 36.0531 31.9774 36.0537 31.2676 36.053C30.9268 36.0533 30.5861 36.0552 30.2453 36.0587C29.7692 36.063 29.2935 36.0611 28.8174 36.0577C28.6761 36.0603 28.5349 36.0628 28.3893 36.0655C27.7421 36.0546 27.4233 36.0188 26.9628 35.5484C26.6937 34.7774 26.6806 34.0605 26.6913 33.2544C26.6912 33.0847 26.6911 32.915 26.691 32.7402C26.6914 32.1811 26.696 31.6221 26.7006 31.0631C26.7017 30.6747 26.7025 30.2864 26.7031 29.8981C26.7053 28.8773 26.7111 27.8566 26.7176 26.8359C26.7246 25.6104 26.7273 24.385 26.7307 23.1595C26.7364 21.299 26.7476 19.4386 26.7578 17.5781Z" fill="#FF4C4C"/>
<path d="M17.5537 64.9658C17.8298 64.9586 17.8298 64.9586 18.1114 64.9513C20.2097 64.9426 22.0288 65.8735 23.5718 67.2729C23.7208 67.4381 23.8699 67.6033 24.0234 67.7734C24.2651 68.0272 24.2651 68.0272 24.5117 68.2861C26.0332 70.1301 26.4053 72.4907 26.3672 74.8047C26.1744 76.4523 25.5438 77.7488 24.6094 79.1016C24.4966 79.2748 24.3838 79.448 24.2676 79.6265C22.5721 81.369 20.3919 82.4261 17.9629 82.5375C15.4733 82.5707 13.4749 81.9601 11.5662 80.3055C9.85455 78.636 9.06755 76.9582 8.78907 74.6094C8.57038 74.6145 8.35169 74.6196 8.12636 74.6249C7.31178 74.6426 6.4972 74.6538 5.68248 74.663C5.33048 74.6679 4.9785 74.6746 4.62657 74.683C4.11939 74.6949 3.61247 74.7004 3.10517 74.7047C2.87073 74.7123 2.87073 74.7123 2.63155 74.72C1.82366 74.7204 1.32414 74.6569 0.684843 74.1395C0.0293244 73.461 -0.024327 73.1799 -0.0190636 72.2641C-0.0184342 72.0715 -0.0178048 71.8789 -0.0171563 71.6804C-0.0155198 71.4788 -0.0138833 71.2771 -0.0121972 71.0693C-0.011316 70.8662 -0.0104348 70.663 -0.00952691 70.4536C-0.00722054 69.9509 -0.00400398 69.4481 9.83828e-06 68.9453C0.123345 68.9472 0.24668 68.9491 0.373752 68.951C1.66351 68.9689 2.9528 68.9729 4.24267 68.9692C4.72327 68.9695 5.20389 68.9734 5.68443 68.9808C8.38577 69.179 8.38577 69.179 10.8341 68.3279C11.2642 67.8387 11.587 67.358 11.9141 66.7969C12.5076 66.3208 12.5076 66.3208 13.0127 66.0156C13.1804 65.9109 13.3481 65.8062 13.5208 65.6982C14.8513 65.0386 16.0979 64.9678 17.5537 64.9658Z" fill="#3D6687"/>
<path d="M25 69.1406C40.1465 69.1406 55.293 69.1406 70.8984 69.1406C70.8984 70.9453 70.8984 72.75 70.8984 74.6094C56.1387 74.6094 41.3789 74.6094 26.1719 74.6094C26.1074 73.6426 26.043 72.6758 25.9766 71.6797C25.6543 70.8418 25.332 70.0039 25 69.1406Z" fill="#3999E9"/>
<path d="M90.2939 66.7412C92.1815 68.2951 93.2867 70.226 93.5547 72.6563C93.7309 75.3026 93.3105 77.4178 91.6016 79.4922C90.1083 81.0772 88.1057 82.3614 85.8818 82.4944C83.038 82.5677 80.7142 81.9969 78.5156 80.0781C76.9151 78.3859 76.007 76.2345 75.9636 73.9174C76.0515 71.3028 76.9497 68.8672 78.8818 67.0357C82.3387 64.2967 86.7122 64.0762 90.2939 66.7412Z" fill="#3D6687"/>
<path d="M85.4391 40.8526C89.2062 41.6862 92.4807 46.1429 94.5312 49.2188C94.6066 50.0211 94.5955 50.8236 94.5929 51.6293C94.5923 52.0237 94.5969 52.4178 94.6018 52.8122C94.6019 53.062 94.6021 53.3117 94.6022 53.569C94.6028 53.7975 94.6034 54.0259 94.604 54.2613C94.5236 54.9484 94.3679 55.3156 93.9453 55.8594C93.2332 56.0967 92.5766 56.0866 91.8351 56.0893C91.68 56.0905 91.525 56.0918 91.3652 56.0932C90.8522 56.097 90.3392 56.0993 89.8262 56.1012C89.651 56.102 89.4758 56.1028 89.2953 56.1036C88.3687 56.1077 87.4421 56.1105 86.5155 56.1123C85.5576 56.1145 84.5999 56.1212 83.6421 56.129C82.906 56.1341 82.17 56.1357 81.4339 56.1364C81.0807 56.1374 80.7276 56.1397 80.3745 56.1433C79.8807 56.148 79.3871 56.1478 78.8933 56.1465C78.7473 56.149 78.6013 56.1515 78.4508 56.1541C77.808 56.1476 77.4055 56.095 76.8624 55.7406C76.4619 55.1167 76.4646 54.6968 76.4645 53.9569C76.4629 53.761 76.4629 53.761 76.4613 53.5611C76.4589 53.1306 76.4621 52.7003 76.4656 52.2698C76.4656 51.9701 76.4653 51.6705 76.4647 51.3709C76.4645 50.7435 76.4669 50.1162 76.4714 49.4889C76.4769 48.6845 76.4764 47.8803 76.4739 47.0759C76.4725 46.4575 76.474 45.839 76.4765 45.2206C76.4774 44.924 76.4774 44.6274 76.4767 44.3308C76.4761 43.9165 76.4793 43.5024 76.4836 43.0881C76.4846 42.8524 76.4857 42.6166 76.4868 42.3737C76.5625 41.7969 76.5625 41.7969 76.8087 41.4347C78.8178 40.1113 83.179 40.5218 85.4391 40.8526Z" fill="#33D7DD"/>
<path d="M48.1384 50.658C48.3049 50.6566 48.4714 50.6552 48.643 50.6538C49.1931 50.6504 49.7429 50.6542 50.293 50.6584C50.6753 50.6583 51.0577 50.6578 51.44 50.657C52.2413 50.6564 53.0425 50.6593 53.8437 50.6647C54.8709 50.6713 55.898 50.6701 56.9253 50.6665C57.7148 50.6644 58.5043 50.6662 59.2938 50.6691C59.6726 50.6701 60.0513 50.67 60.4301 50.6688C60.9594 50.6677 61.4885 50.6717 62.0178 50.6771C62.2528 50.6751 62.2528 50.6751 62.4926 50.6732C63.1832 50.6851 63.5938 50.7245 64.1598 51.1357C64.5907 51.7626 64.5592 52.1875 64.4531 52.9297C64.1587 53.3567 64.1587 53.3567 63.6719 53.7109C63.1019 53.788 62.6056 53.8178 62.0358 53.812C61.7889 53.8141 61.7889 53.8141 61.537 53.8162C60.9933 53.8196 60.4497 53.8173 59.906 53.8147C59.528 53.8152 59.15 53.816 58.7721 53.817C57.98 53.8181 57.188 53.8164 56.396 53.8128C55.3806 53.8083 54.3653 53.8109 53.3499 53.8156C52.5694 53.8184 51.789 53.8175 51.0085 53.8155C50.6341 53.815 50.2597 53.8156 49.8853 53.8174C49.362 53.8194 48.839 53.8164 48.3158 53.812C48.0835 53.8144 48.0835 53.8144 47.8466 53.8168C47.1566 53.8062 46.7583 53.77 46.199 53.3499C45.8029 52.7962 45.7031 52.4394 45.7031 51.7578C46.3059 50.6709 46.9877 50.6412 48.1384 50.658Z" fill="#FEFEFE"/>
<path d="M48.2768 59.277C48.5175 59.2754 48.5175 59.2754 48.7631 59.2738C49.2932 59.2714 49.8231 59.2746 50.3532 59.2781C50.722 59.2781 51.0907 59.2778 51.4595 59.2772C52.2323 59.277 53.0051 59.2794 53.7779 59.2839C54.7679 59.2894 55.7578 59.2889 56.7478 59.2864C57.5093 59.285 58.2708 59.2866 59.0324 59.289C59.3974 59.2899 59.7623 59.2899 60.1273 59.2892C60.6379 59.2886 61.1483 59.2918 61.6588 59.2961C61.8093 59.2952 61.9598 59.2943 62.1149 59.2934C63.0769 59.3067 63.7598 59.4629 64.4531 60.1562C64.5663 61.3563 64.5663 61.3563 64.1622 61.9529C63.4709 62.4488 62.8341 62.4125 62.0147 62.4027C61.8479 62.4037 61.6811 62.4048 61.5092 62.4059C60.9582 62.4083 60.4074 62.4051 59.8564 62.4016C59.4736 62.4016 59.0907 62.4019 58.7079 62.4024C57.9059 62.4027 57.1039 62.4002 56.3018 62.3958C55.2728 62.3903 54.2439 62.3908 53.2149 62.3933C52.4246 62.3946 51.6343 62.3931 50.8439 62.3907C50.4644 62.3898 50.085 62.3897 49.7055 62.3905C49.1757 62.3911 48.646 62.3879 48.1162 62.3836C47.8802 62.3849 47.8802 62.3849 47.6393 62.3863C46.5896 62.3722 46.5896 62.3722 46.0947 62.0548C45.7531 61.4699 45.7414 60.8003 45.8984 60.1562C46.5507 59.2568 47.2412 59.264 48.2768 59.277Z" fill="#FEFEFD"/>
<path d="M-7.74302e-06 68.9453C3.35155 68.9453 6.70312 68.9453 10.1562 68.9453C9.83398 69.7188 9.51171 70.4922 9.17968 71.2891C9.06163 71.9127 8.97034 72.4715 8.92333 73.0957C8.90199 73.3174 8.90199 73.3174 8.88023 73.5435C8.84653 73.8985 8.81727 74.2539 8.78905 74.6094C7.75354 74.6336 6.71819 74.6513 5.68246 74.663C5.33046 74.6679 4.97848 74.6746 4.62655 74.683C4.11937 74.6949 3.61245 74.7004 3.10516 74.7047C2.87071 74.7123 2.87071 74.7123 2.63153 74.72C1.82364 74.7204 1.32412 74.6569 0.684826 74.1395C-0.832922 72.5684 -7.74302e-06 72.1401 -7.74302e-06 68.9453Z" fill="#3C9AE7"/>
<path d="M18.8011 70.4323C19.7095 70.825 20.2584 71.3582 20.7329 72.2252C21.1381 73.2803 21.0306 74.234 20.5811 75.2564C20.0657 76.177 19.3507 76.6227 18.3594 76.9531C17.3999 77.0539 16.635 77.0653 15.7593 76.6358C15.5861 76.4827 15.4129 76.3296 15.2344 76.1719C14.9564 75.9362 14.9564 75.9362 14.6729 75.6958C14.0576 74.9173 14.1365 74.0103 14.1754 73.0599C14.3198 72.0104 14.7811 71.5163 15.5518 70.8374C16.5461 70.1309 17.6296 70.1146 18.8011 70.4323Z" fill="#CAC9C9"/>
<path d="M86.3892 70.5322C87.195 71.0944 87.7691 71.7058 88.0859 72.6562C88.215 73.6459 88.3119 74.5933 87.8151 75.4875C87.0748 76.3627 86.4534 76.8654 85.3027 77.0073C84.2177 77.0751 83.4464 76.9313 82.5577 76.2909C81.7499 75.5241 81.4095 74.6367 81.3354 73.5351C81.387 72.5406 81.7661 71.8311 82.4219 71.0937C83.5547 70.073 84.9948 70.0586 86.3892 70.5322Z" fill="#CAC9C9"/>
</g>
<defs>
<clipPath id="clip0_6_11">
<rect width="100" height="100" fill="white"/>
</clipPath>
</defs>
</svg>
